<svg xmlns="http://www.w3.org/2000/svg" width="45" height="48" fill="none" viewBox="0 0 45 48"><path fill="#707070" d="M11.5197 2.31554C9.54628 2.31554 7.90482 3.8441 7.78267 5.79563L7.60897 8.57163L7.60864 8.57684L7.60831 8.58172C7.48879 10.6182 9.06294 12.3761 11.1171 12.5007L13.8671 12.6693L14.8926 12.7321L15.7184 12.1262L16.7173 11.3938L17.5851 10.7571L17.7845 9.79175C17.8239 9.64371 17.8665 9.44426 17.882 9.20024L18.054 6.42749C18.1171 5.43676 17.7858 4.48181 17.1218 3.73803C16.4608 2.99686 15.5457 2.55436 14.5465 2.49417L11.7496 2.32238H11.7456L11.7414 2.32205C11.6678 2.31782 11.5933 2.31554 11.5197 2.31554ZM13.614 8.37414L13.7171 6.72292L12.0503 6.62075L11.9469 8.2723L13.614 8.37414ZM11.5197 5.10879C11.5381 5.10879 11.5568 5.10944 11.5755 5.11042L14.3758 5.28253C14.6211 5.29717 14.8473 5.40617 15.0105 5.58935C15.1747 5.77318 15.2564 6.00907 15.2407 6.25342L15.0683 9.02682C15.0657 9.06976 15.0483 9.10751 15.04 9.1485L14.0412 9.88122L11.2895 9.71268C10.7819 9.68177 10.3931 9.24741 10.4227 8.74408L10.5964 5.9684C10.6266 5.48393 11.0321 5.10879 11.5197 5.10879Z"/><path fill="#707070" d="M23.0772 15.7829C11.3496 15.7829 1.80847 25.237 1.80847 36.8577C1.80847 40.8531 2.93671 44.5928 4.89373 47.7798H8.29125C5.9911 44.7305 4.62776 40.9488 4.62776 36.8577C4.62776 26.7772 12.904 18.5761 23.0772 18.5761C27.9093 18.5761 32.5375 20.5807 36.1091 24.2205C39.5523 27.7289 41.527 32.3351 41.527 36.8577C41.527 39.9541 41.0108 44.1621 38.7672 47.7798H41.9847C43.5375 44.6827 44.346 40.9797 44.346 36.8577C44.346 31.6141 42.0806 26.2983 38.1305 22.2729C34.0234 18.0878 28.6774 15.7829 23.0772 15.7829Z"/><path fill="#707070" d="M19.0677 42.5699C19.0677 43.6134 18.2143 44.459 17.1612 44.459C16.1082 44.459 15.2548 43.6134 15.2548 42.5699C15.2548 41.5265 16.1082 40.6809 17.1612 40.6809C18.2143 40.6809 19.0677 41.5265 19.0677 42.5699Z"/><path fill="#707070" d="M30.8996 42.5699C30.8996 43.6134 30.0462 44.459 28.9931 44.459C27.9401 44.459 27.0867 43.6134 27.0867 42.5699C27.0867 41.5265 27.9401 40.6809 28.9931 40.6809C30.0462 40.6809 30.8996 41.5265 30.8996 42.5699Z"/><path fill="#fff" d="M1.40942 41.8206L11.9918 30.6996L9.44468 38.6121C17.7065 32.6547 26.3797 33.5967 32.4869 35.3738C38.969 37.2596 43.5072 31.5869 39.0646 25.5355C36.9535 22.6596 34.0578 20.2717 30.7686 18.8235C22.1416 15.0262 13.468 17.2403 7.61704 23.0969C1.41895 29.3009 1.40942 36.182 1.40942 41.8206Z"/><path fill="#707070" d="M22.0827 18.3424C20.8544 18.3424 19.6345 18.4637 18.4357 18.7081C14.7794 19.4532 11.3848 21.3107 8.61874 24.0795C4.02403 28.6785 3.06916 33.6146 2.87084 38.2488L15.2181 25.2729L11.9493 35.4269C18.0922 32.2445 25.1161 31.7737 32.8838 34.0337C35.3556 34.7527 37.596 34.2077 38.7312 32.6115C39.8972 30.9713 39.5957 28.6333 37.9247 26.357C35.928 23.637 33.1832 21.4151 30.1961 20.1C27.547 18.9339 24.7947 18.3424 22.0827 18.3424ZM0 45.3378V41.8206C0 35.9911 0 28.7361 6.6151 22.1143C9.77391 18.9528 13.665 16.8288 17.8676 15.9721C22.2919 15.0702 26.9507 15.6148 31.3408 17.5472C34.7731 19.0582 37.9211 21.6035 40.2045 24.7136C42.5828 27.9536 42.9013 31.5964 41.0356 34.2201C39.2115 36.7856 35.7007 37.764 32.0895 36.7137C23.761 34.2904 16.4209 35.3091 10.274 39.7415L6.7934 42.251L8.76519 36.1261L0 45.3378Z"/><path fill="#fff" d="M28.1469 16.1316C26.8922 19.3709 23.254 21.1796 19.8831 20.2393C16.0853 19.1796 14.08 16.1553 14.5614 12.3193C15.0405 8.5044 17.642 5.15967 20.6409 1.03666C18.1776 6.23239 20.2702 6.71913 20.9322 6.69311C21.5863 6.6674 22.5411 6.77803 23.9002 7.22475C27.6031 8.44259 29.5605 12.4816 28.1469 16.1316Z"/><path fill="#707070" d="M18.4242 6.60448C17.1232 8.62564 16.2097 10.5043 15.9602 12.4916C15.5652 15.6388 17.1744 18.0325 20.2653 18.8948C22.9486 19.6434 25.8323 18.2099 26.8311 15.6314C27.3726 14.233 27.3161 12.7203 26.6722 11.372C26.0276 10.0224 24.8856 9.0203 23.4563 8.55048C22.2019 8.13792 21.4211 8.07252 20.9883 8.08879C20.0167 8.12653 19.12 7.67818 18.5913 6.8882C18.5302 6.7971 18.4744 6.70274 18.4242 6.60448ZM21.7002 21.8845C20.9693 21.8845 20.2308 21.7872 19.5012 21.5836C17.3124 20.9729 15.5632 19.7658 14.4432 18.0927C13.3264 16.4249 12.8838 14.369 13.1626 12.1467C13.6551 8.22381 16.0951 4.88168 18.9203 1.01181C19.1108 0.750868 19.3032 0.487324 19.4976 0.220201L21.9166 1.63065C20.7227 4.14929 20.8596 5.08178 20.9223 5.29457C21.8828 5.26561 23.034 5.46831 24.3441 5.89909C26.5116 6.61196 28.2434 8.13109 29.2203 10.1773C30.1968 12.2219 30.2828 14.5144 29.4629 16.6322C28.2191 19.8432 25.0478 21.8845 21.7002 21.8845Z"/><path fill="#fff" d="M24.5848 28.5026C24.0912 28.5026 23.6289 28.2852 23.317 27.9065L22.3687 26.7557C21.819 26.0887 21.8978 25.1129 22.5332 24.5396C22.328 24.4401 22.1444 24.2966 21.9953 24.1157L21.779 23.8531C21.2096 23.1624 21.3137 22.1417 22.0104 21.5779L22.1467 21.4676L20.7578 19.7783C20.1401 19.0286 20.2534 17.9195 21.0106 17.3065C21.3281 17.0501 21.7261 16.9099 22.1326 16.9099C22.6665 16.9099 23.1672 17.1448 23.5058 17.5547L29.4303 24.7801C30.047 25.5287 29.9337 26.6379 29.1765 27.2509C28.9677 27.4201 28.7175 27.5418 28.4541 27.602C28.3235 27.6319 28.1888 27.6469 28.0545 27.6469C27.5929 27.6469 27.1565 27.4715 26.8278 27.1595L25.6191 28.1372C25.3278 28.3727 24.9604 28.5026 24.5848 28.5026Z"/><path fill="#707070" d="M24.3981 16.8308C23.8395 16.1547 23.0137 15.7672 22.1327 15.7672C21.4616 15.7672 20.8049 15.9989 20.2838 16.4192C19.0314 17.4331 18.8449 19.2632 19.8651 20.5016L20.6367 21.4403C20.07 22.4059 20.1314 23.6605 20.8856 24.5758L21.0308 24.7521C20.6896 25.6439 20.8239 26.688 21.4754 27.4783L22.4237 28.6295C22.9553 29.275 23.743 29.6453 24.5846 29.6453C25.2255 29.6453 25.8521 29.4243 26.3485 29.0225L26.9166 28.5631C27.2719 28.7111 27.6577 28.7899 28.0547 28.7899C28.276 28.7899 28.4976 28.7648 28.7134 28.7154C29.1481 28.6161 29.5605 28.4157 29.9063 28.1359C31.1557 27.1243 31.3422 25.2942 30.3223 24.0558L24.4037 16.8377L24.3981 16.8308ZM22.1327 18.0526C22.3124 18.0526 22.4907 18.13 22.6135 18.279L28.5354 25.5008C28.7521 25.764 28.7124 26.1512 28.4471 26.3659C28.3706 26.4277 28.2842 26.4681 28.1946 26.4886C28.1486 26.4993 28.1016 26.5045 28.0547 26.5045C27.8747 26.5045 27.6964 26.4274 27.5736 26.2784L26.9839 25.5584L24.89 27.2519C24.8003 27.3248 24.6923 27.3599 24.5846 27.3599C24.4447 27.3599 24.3058 27.2997 24.2103 27.1839L23.262 26.0331C23.0952 25.8307 23.1257 25.5327 23.3299 25.3674L25.4341 23.6654L24.5744 22.6151L23.5335 23.4578C23.4481 23.5265 23.3457 23.56 23.2439 23.56C23.1113 23.56 22.9796 23.5031 22.889 23.3934L22.6722 23.1302C22.5051 22.9275 22.5353 22.6288 22.7399 22.4632L23.7686 21.6309L21.6517 19.0563C21.435 18.7934 21.4747 18.4062 21.74 18.1915C21.8559 18.0981 21.9948 18.0526 22.1327 18.0526Z"/></svg>