<svg xmlns="http://www.w3.org/2000/svg" fill="#8D8D8D" viewBox="0 0 244 79"><path d="M13 21.1a4.4 4.4 0 01-.4.4 3.9 3.9 0 00-.5.4 25.8 25.8 0 01-.8 1l-.7.8a.5.5 0 01-.2.2h-.2l-.3.5a5.8 5.8 0 01-.8.7l-.4.6-.4.6-.7 1-.6 1a1 1 0 00-.1.8c0 .2.2.4.4.6.2.2.5.3.6.6a9.6 9.6 0 002.2 1.9l1.6 1a38.9 38.9 0 012.6 1.7 18 18 0 011 .8l.4.5.3.5c0 .1.1.2 0 .2l-.2.4a.7.7 0 01-.3.2 9.5 9.5 0 01-2.1.3c-.3 0-.5 0-.8.2a1 1 0 01-.7-.2h-.4L9 38h-.7a2.9 2.9 0 01-1.1 0 4.7 4.7 0 00-.5-.2.5.5 0 00-.3 0H6l-.5-.2a4.8 4.8 0 01-.6 0c-.3-.3-.7-.5-1-.6-.4 0-.7-.2-1-.4l-.8-.6-.9-.5a2.3 2.3 0 01-.5-.4 1.8 1.8 0 01-.4-.6l.4.2.3.1.6.1.6.1 1 .1 1 .1h2a35.5 35.5 0 003.3-.4h.4a3.9 3.9 0 00.6 0 5 5 0 00.3-.2 1.9 1.9 0 01-.2-.1l-.2-.2-1-.8a7925.6 7925.6 0 00-2.1-1.8l-1-1a6.6 6.6 0 00-.6-.8 1.6 1.6 0 01-.4-1 .6.6 0 00-.2-.2.8.8 0 01-.2-.4 5.2 5.2 0 01-.2-1 3.5 3.5 0 00-.2-.9 1.2 1.2 0 010-.9l.4-.7.6-.8.6-.9.5-.6.6-.7.5-.7.6-.6 3.5-3.9.5-.6.6-.5c.4-.4.9-.4 1.4-.2l.3.3a3.8 3.8 0 01.5.3c.5 0 .9 0 1.1.3l.8.8.4.7v.2l-.2.5v.6l-.4.9-.3.9-.1.2-.2.1-.1.2a57.4 57.4 0 00-1 2.2l-.4 1-.3.8a.8.8 0 01-.2.2l-.4.5-.3.6-.2.6-.3.6-.3.5-.3.6-.2.5a.7.7 0 000 .4c0 .2 0 .3-.3.2l-.7-.5-.3-.6a4 4 0 010-1.4l.3-1.5.5-1.5a11372 11372 0 001-2.6l.1-.3V21z"/><path d="M23.5 11.8c-.1-.2-.3-.3-.5-.2l-.5.2-.5.1a4.8 4.8 0 00-.8.2l-.4.1a.5.5 0 01-.2 0 2.3 2.3 0 00-1.3.2 5.6 5.6 0 01-1.2.2 6.6 6.6 0 00-.6.1c-.2 0-.4 0-.6-.2h-.3a103.2 103.2 0 00-2.5.6l-.9.2-.8.1a38.4 38.4 0 00-1.4.3l-.3-.4a2.9 2.9 0 011-1.3l1.6-.7 1.2-.4a21.7 21.7 0 013-.8l1.6-.3a108.1 108.1 0 002.4-.6 31 31 0 002.4-.4l1.3-.2 1.3-.3a.6.6 0 00.4-.4L29 3.1a3739.9 3739.9 0 001-1.8c0-.2.2-.3.3-.4a.8.8 0 01.5 0h.5a5.4 5.4 0 01.7.2 10.9 10.9 0 00.8.5l.6.5.2.3.2.3v.4l-.1.4v.2c.2.2.2.4.1.6l-.5.6-.6.9-.5.8-.5.7c0 .3 0 .4.4.4l2.2-.2c.8 0 1.5 0 2.3.2l.7.1.8.1a2.4 2.4 0 011 .7l.5.5.2.6v1.1c0 .2 0 .3-.2.5a.7.7 0 01-.3.2 5 5 0 01-1.5.3h-.9c-.3 0-.6 0-.9-.2-.7-.2-1.4-.2-2.1-.2h-3.2l-1 .1-.2.5-.3.9a45.6 45.6 0 01-.5 1.4 1 1 0 01-.3.4l-.1.4-.1.1-.2.1v.5l-.3.2a2.2 2.2 0 01-.4.4.4.4 0 000 .2c-.1 0-.1 0 0 .1v.2a.8.8 0 000 .3 10.2 10.2 0 00-.3.8l-.3.4a.4.4 0 00-.1.2v.1a39.5 39.5 0 00-.7.8V20s0 .2-.3.3c0 .2.1.3 0 .4a.5.5 0 01-.2.2l-.4.2s-.2 0-.2.2h.6a2 2 0 00-.6.6v.5l-.3.3-.2.2a77.2 77.2 0 01.2.3l-.1.2a1 1 0 00-.5.1l.2.4-.3.1-.3.2-.1.1.1.2h.4c-.2 0-.3.2-.3.3l-.1.4-.2.5a4.7 4.7 0 00-.2 1.2h-.2a.6.6 0 00-.2 0 .2.2 0 00-.1 0h-.1a3.4 3.4 0 00.4.5l-.3.3-.1.3a.3.3 0 000 .3 203.5 203.5 0 01.2.4v.1l-.2.5-.2.5-.2.1a319 319 0 00-.2.1v.1a.5.5 0 000 .2h-.1l-.2.1.1.8-.2.7-.1.5a2.2 2.2 0 00-.2.4l-.2 1-.1 1-.1.4-.1.5h-.2a.5.5 0 00-.1.2l-.3.3v.9c-.2.2-.2.4-.2.6l-.1.2a.6.6 0 000 .2V40c-.2.3-.2.5-.1.7a1.5 1.5 0 00.4.7l.1.2-.8-.1-.6-.4a.5.5 0 01-.3-.3 9.9 9.9 0 000-.4.6.6 0 00-.3-.3c-.2 0-.2-.1 0-.3l-.3-.5a1.6 1.6 0 01-.2-.5v-2.3-.7l.1-.6v-.6l.2-.6.3-1.5a39 39 0 011.5-6l.4-1.2.7-2.2.8-2.2.3-.8.3-.8.5-1.2.4-1.1a11372 11372 0 001-2.6l.3-.5c0-.3.2-.5.3-.8l.1-.8v-.4a4.1 4.1 0 00-.5 0 .6.6 0 01-.4-.2h-.3-.2zm-2.3 14.3v.5h.1a.6.6 0 000-.2l.2-.2h-.3a.6.6 0 000-.2v-.2l.6.1a348.9 348.9 0 00-.2-.6l.2-.2.1-.2a7.3 7.3 0 01-.3-.2 6.4 6.4 0 00.4-1.2h.1l-.1.4-.1.4a.4.4 0 000 .2l.2-.1a15.7 15.7 0 00.7-1.3h-.3l-.3.2v-.1l.3-.2.1-.2.2-.1.2-.7.3-.8a.4.4 0 00-.2 0 5 5 0 01-.3-.1l.6-1 .1.3c.5-.4.6-.8.5-1a.4.4 0 01-.2 0 .4.4 0 00-.2.1l.5-1.2.5-1.2v.5h.1l.3-.3.2-.4-.1-.1h-.4a1 1 0 010-.2 56 56 0 01.6-2l.1-.3V14c.1 0 0 0 0-.1H25l-.4.8-.6 1.6-.6 1.5-.5 1-.3 1-.5 1-.3 1-.3.8A22.9 22.9 0 0021 24l-.8 2.6a20.6 20.6 0 00-.6 1.8l-.1.8c0 .3-.2.5-.3.8l-.3.9-.1 1-.2.9c0 .3 0 .7-.2 1l-.2.9-.1 1a.3.3 0 000 .2v.2l.2-.2.2-.2c0 .4-.1.7-.5.7l.3.1.3.1c.2-.3.3-.7.3-1 0-.3 0-.6-.2-1l.8-.5-.3-.2c-.1-.1 0-.2 0-.4v-.6-.4l.1-.3h-.1a1 1 0 00-.2-.2h.4l.2-.2.3-.5.3-.7a.6.6 0 00-.2 0h-.2l.2-.2h.2a6.4 6.4 0 010-.7c0-.3-.1-.4-.4-.6h.3a77.2 77.2 0 01.2.3 1.1 1.1 0 010-.4l.3-.3v-.1l.3-.9.3-.8v-.1a.5.5 0 01-.2 0l-.1.1h-.1l.2-.4.2-.4zm3.2-5.8l-.2.3a5.2 5.2 0 01-.6 1.1c-.2.3-.3.5-.3.8l-.1.4a1 1 0 01-.1.4c-.4.5-.6 1-.7 1.5a27.9 27.9 0 01-1 3l-.2.5-.1.7c0 .2 0 .5-.2.7l-.2.7c0 .3-.1.5-.4.6a304.6 304.6 0 01.2.7l.3-.4.4-1.5.5-1.5.6-1.7.1-.4.2-.4.2-.4c.2-.2.2-.3.2-.5l.2-.7c0-.3.1-.5.3-.7v-.1l.1-.3.1-.3.1-.5c.1-.3.2-.5.4-.6a.9.9 0 00.2-.7v-.7c.1 0 0 0 0 0zm-2-10.6a.4.4 0 000-.1h-.3l-1 .2-.6.1H20l-.8.2-.7.2a28.3 28.3 0 00-4.4 1l-1.1.3c-.3 0-.5.2-.7.3a1 1 0 00-.4.4l1-.3.9-.3 1.3-.3a23.5 23.5 0 012.6-.6l1.3-.3 1.2-.2 1.2-.2.5-.2.5-.2zm2.9.5a1.7 1.7 0 00-.3-.1.2.2 0 00-.2 0h-.7l-.7.3h-.6l-.5.1-1.2.2-1.2.2h-.5l-1.8.4h-.3-.3a.4.4 0 000 .2l-.2.2.4.1.4-.1.3-.1.4-.1h.5c.2 0 .3 0 .4-.2h1l1-.3 1.1-.2c.4 0 .8 0 1.2-.2a3 3 0 011-.2l1-.1a.8.8 0 00.3-.2l-.1-.1a.8.8 0 00-.3 0 .2.2 0 000 .1h-.1zm-.5 10c0-.3 0-.5.2-.7l.2-.7.4-.6v-.7l-.4.9a16 16 0 00-.3.7l-.3.6c-.2.3-.1.4.2.4zM18 38.3a7.1 7.1 0 00.2-1.2l.1.2.2.2a.3.3 0 01.1 0v-.3-.3a.8.8 0 01-.3-.1 1.4 1.4 0 01-.2-.3.5.5 0 010 .1l-.1.1v.6a27 27 0 01-.1.9l.2.1zm2.5-6.5v-.1l-.2.2-.1.1v.5l-.3.4V33.3h.4V33a53.5 53.5 0 00.2-1.3zm-.8 2.8l.3-.5.1-.5v-.2a.5.5 0 01-.2 0 .2.2 0 00-.1.2l-.2.4v.5a.5.5 0 010 .1zm4.2-25.3a7.1 7.1 0 01-.6 0l-.6.2.4.2.4-.1.4-.2v-.1zM18.5 38a.4.4 0 01-.1 0l-.2.3c0 .2.1.3.4.4V38zm-2-26.5a3.8 3.8 0 01-.8.2v.1h.8v-.3zm5.3 18.3l.5-.4a.9.9 0 00-.4 0l-.1.4zm.6-7.6a10.2 10.2 0 01.3-.8h.2l-.3.9h-.2z"/><path d="M40.3 23.1zm.5 13.3c0 .2 0 .4.2.5a6.3 6.3 0 00.7.6v.2l-.4.1a.6.6 0 01-.5.1l-.5-.2a.7.7 0 01-.4-.2l-.3-.3c0-.2-.2-.3-.3-.4a1.4 1.4 0 01-.4-.4 10.1 10.1 0 01-.7-1.8 4.3 4.3 0 01-.1-2.1c0-.7.3-1.4.5-2a32.6 32.6 0 012.2-5.4l.5-1V24h-.1l-.6.6a15.9 15.9 0 00-1 1.1 16.8 16.8 0 01-1.1 1.2l-.6.6-.5.6-.5.5a3.4 3.4 0 01-.4.6.2.2 0 01-.2 0l-.2.3v.2l-.8.9-.7.9-.4.7-.4.6-.6.6a15.4 15.4 0 00-.9 1.2 2 2 0 01-.4.5.8.8 0 00-.4.5c0 .1-.1.3-.3.3H31v.2l-.1.3-.3.3-.8.9a1 1 0 01-.7.4 1 1 0 01-.8-.3 3.3 3.3 0 01-.4-.4 1.4 1.4 0 01-.1-.6h-.1a1.2 1.2 0 01-.6-.5 10.9 10.9 0 01-.4-1 6.7 6.7 0 010-3.6l.4-1.5.5-1.4v-.2a.5.5 0 00.2-.1V28a5.3 5.3 0 01.4-.8l.3-.6.2-.4.1-.5.4-.6.4-.7A76.8 76.8 0 0031 22a48.1 48.1 0 013.4-4.8l.8-.8.8-.7c.6 0 1.1.3 1.6.7a33.4 33.4 0 012.8 2.2l.3.2.2.2a4908.3 4908.3 0 011.5 1.5h.2l.2.2-.2.1v.1h.2l.4-.2.4-.2c.1-.1.2-.2.3-.1h.4c.2 0 .3.2.3.4l.2.1a.7.7 0 01.2.1l.2.1a.8.8 0 01.2.1h.2l.4.6.4.4c.1.2.2.4.1.7 0 .3-.1.5-.3.6l-.1.1a.8.8 0 00-.1.2v.2c-.4.3-.6.6-.8 1a1 1 0 01-.2.4l-.3.3-.3.5-.3.5-.5 1a3.5 3.5 0 01-.6.9l-.3.4a7.8 7.8 0 00-.2.4 5.1 5.1 0 00-.3.8l-.1.4-.2.4-.1.3c0 .1-.1.2 0 .4-.3.1-.4.3-.4.5v.5l-.3.4-.1.3-.2 1-.1 1v.9zm-13.3-3.6c-.1 0-.2 0-.3-.2a.5.5 0 010-.2l.2-.3a.4.4 0 000-.2c-.4.2-.5.5-.3.8l.1.1a.4.4 0 01.2.1h.1zm.2-1.7l.1-.4.2-.4-.2.1a.4.4 0 00-.1.1 4.6 4.6 0 00-.4 1v.2h.1l.1-.3.2-.3zm.6-1.5v-.2a.2.2 0 00-.2 0l-.2.1.1.3-.3.2.2.2a.4.4 0 01.1 0 3.8 3.8 0 01.3-.6zm.1-.4v-.1l.1-.1a.8.8 0 00.1-.2.7.7 0 01.1-.2l.3-.5.3-.5.3-.8.5-.9v-.1a8.7 8.7 0 01.6-1v-.2l.2-.3a.5.5 0 01-.2 0l-.1.1a36.4 36.4 0 00-.9 1.3.3.3 0 000 .1 1 1 0 00-.5.6v.7a.3.3 0 00-.1 0v.1l-.4.4v.4c-.2.1-.3.3-.3.4 0 .2 0 .3-.2.4v.4h.2zm2.1-3.4l.3-.2-.2-.2a144 144 0 010 .4zm-.2 2.4V28l-.1-.2a.4.4 0 01-.1.1l-.3.4v.1c.2 0 .3-.2.5-.3zm-1.6 3v.1l.2-.3v-.3l-.2.3v.3zm5.3-.7l.4-.2-.2-.1-.2.3zm.4-.4l.2-.3a19.3 19.3 0 000-.1 1 1 0 00-.3.2l.1.2zM39 26v-.2l-.3.2a.8.8 0 00-.2 0l.1.2.4-.2zm1.1-2l1.4-1.2a54.9 54.9 0 011.3-1.4l-.9.7-.9.7-.3.3-.4.1a277 277 0 012-1.7l-.2-.1a304.6 304.6 0 00-.5-.2 1.3 1.3 0 00-.3-.2l-.3-.2a.8.8 0 00-.2-.1.7.7 0 00-.2-.1.8.8 0 01-.2-.1 17 17 0 01-1.5-1.1h-.3c-.3 0-.5.2-.7.4l-.9 1-.8.9a2.4 2.4 0 01-.3.2l-.3.3-.3.3a.9.9 0 00-.4.5 1.6 1.6 0 01-.3.4l-.3.5h-.1a9.4 9.4 0 01-.6 1 .8.8 0 00-.1.1 23.8 23.8 0 01-.7 1.2l-.6 1a13.4 13.4 0 00-1 2.2l-.6 1.4-.7 1.3v.4c-.1.2-.2.2-.4.3V33c-.2.1-.3.3-.3.5a58.2 58.2 0 00-.1.8v.1l-.2.8v.7l.2.3a69 69 0 014.7-6 133.5 133.5 0 014.7-5.1l-.3.4a15.4 15.4 0 00-1.1 1.2 3.2 3.2 0 00-.4.5l-.1.2a.4.4 0 01-.1 0l-.1.1v.3H36a.7.7 0 00-.2.2 1783.3 1783.3 0 00-.7.9.3.3 0 000 .1v.1l-.2.2h-.2a.4.4 0 000 .2v.2h.1l.3-.2.3-.4.4-.4.2-.2a.5.5 0 00.1-.2c0-.2.1-.3.3-.3.1 0 .2 0 .3-.2l.3-.6.6-.5.5-.5V26l.2-.3a.4.4 0 01.2 0 1.1 1.1 0 00.4-.4l.2-.3.2-.2a1 1 0 00.1-.2l.3-.3c.2 0 .3-.1.4 0 .3 0 .4 0 .6-.3h-.3l-.3.1V24z"/><path d="M55.8 22.7c.2.3.1.6-.1.8a.6.6 0 00-.2.2l-.1.3-.3.2-.4.4.2.3-.3.2a.5.5 0 00-.1.2 2 2 0 01-.2.4l.5-.1.5-.7a8.8 8.8 0 01.8-1.3 8.7 8.7 0 01.6-.7l.2-.3c0-.2 0-.4.2-.4l.4-.4a9.4 9.4 0 00.6-1 25.6 25.6 0 00.7-1l1.1-1a54.8 54.8 0 011.3-1.4l.3-.2v.1l-.8.9-1 .9h.5l.8-.8.7-.8c.2-.1.3-.4.1-.6l.3-.3.3-.4V16h-.2a9.8 9.8 0 01-1.2.7h.1l1-.8.9-.8a.4.4 0 00.2-.3 1.3 1.3 0 01.4-.5l.3-.3h.2c0 .2.2.3.3.3.2-.1.3-.1.4 0l.4.1a8.5 8.5 0 01.7.4l.3.3c0 .1.1.3.4.5.1 0 .2.1.2.3l.2.4v.3c.1.1.1.3 0 .4v1.1a.7.7 0 01-.2.2l-.1.3-1 1.3L65 21a.7.7 0 00-.1.3 11.3 11.3 0 01-.3.8.9.9 0 01-.4.3.6.6 0 00-.2.4 1 1 0 01-.1.3 3.3 3.3 0 01-.2.5 7.1 7.1 0 00-.5.9l-.1.4c-.2.3-.2.5-.2.8 0 .3 0 .5-.2.8a.8.8 0 000 .5 2.1 2.1 0 010 .8v.3l.2.5.2.6a.9.9 0 01-1 0 4.5 4.5 0 01-1.8-2 7 7 0 01-.4-2.7 11.6 11.6 0 011.1-5l.2-.5V19a.7.7 0 01-.3 0l-.1.2-.7.8-.7.8a14.2 14.2 0 01-.6 1 11.8 11.8 0 01-.4.5l-.6.8a178.6 178.6 0 00-3.2 5l-1 2-1 1.8-.7 1.6a27.2 27.2 0 01-1.2 2.3 4.2 4.2 0 00-.4.6l-.5.8-.5.6c-.3.5-.7.6-1.2.2a1.5 1.5 0 00-.4-.2c-.2 0-.3-.1-.4-.3a4.2 4.2 0 01-.6-1.1l-.2-1.3c-.1-1 0-2.2.2-3.3.3-1.5.7-3 1.2-4.4l.5-1.3a89.8 89.8 0 012.2-4.9l.2-.6.5-1 .6-1 .5-1.2.6-1c.1-.5.5-.8 1-1l.1.3h.8v.3h.5l.5.4.5.5a1.7 1.7 0 01.5.8v.2l-.2 1c0 .3-.2.6-.4.9l-.6.7a3 3 0 00-.4.8l-.2.2a.6.6 0 00-.2.3l-.4.7a7.8 7.8 0 01-.6 1.2l-.2.3c-.3.1-.6.4-.7.7l-.4.8-.2.6-.5.3v.6l-.3.6-.2.3-.1.5-.1.3a.8.8 0 00-.2.2l-.4.8-.4.7-.2.7v1a2.4 2.4 0 00-.4.7l-.2.5.2-.1a.4.4 0 00.1-.1l2.3-4.2.8-1.4a44.5 44.5 0 011.4-2.3 40 40 0 001-1.5 12 12 0 01.7-1zM54.5 26h-.1a.4.4 0 01-.2 0 .4.4 0 00-.2.1.4.4 0 00-.1.2v.1a.6.6 0 01.1 0h.2a.4.4 0 00.1-.1l.2-.3zm-6 4.7v.1h.1v-.2l.2-.2h-.1v-.1l-.3.4zm12.2-13.6l-.8.8a9.9 9.9 0 00-1.2 1.3 14.2 14.2 0 01-.4.6 2 2 0 00-.9.8l-.7 1-.2.4a.5.5 0 00-.1.4h-.2l-.3.1a28.3 28.3 0 014.7-5.5l.1.1z"/><path d="M69.7 11.8c0-.2-.3-.3-.5-.2l-.4.2-.5.1a4.8 4.8 0 00-.9.2l-.3.1a.5.5 0 01-.3 0 2.3 2.3 0 00-1.2.2 5.6 5.6 0 01-1.2.2 6.6 6.6 0 00-.7.1c-.2 0-.4 0-.6-.2H63l-1.3.3a15 15 0 01-2 .5l-1 .1a38.4 38.4 0 00-1.3.3l-.4-.4A2.9 2.9 0 0158 12c.5-.3 1-.6 1.5-.7l1.2-.4a21.7 21.7 0 013-.8l1.6-.3a108.1 108.1 0 002.4-.6 31 31 0 002.5-.4l1.2-.2c.5 0 .9-.2 1.3-.3a.6.6 0 00.5-.4l2-4.8a3739.9 3739.9 0 001-1.8c0-.2.2-.4.4-.4a.8.8 0 01.5 0h.5a5.4 5.4 0 01.7.2 10.9 10.9 0 00.8.5l.5.5.2.3.2.3.1.4-.1.4v.2c.1.2.2.4 0 .6 0 .2-.2.4-.5.6l-.5.9-.6.8c0 .3-.3.5-.5.7 0 .3.1.4.4.4l2.3-.2c.7 0 1.5 0 2.2.2l.7.1.8.1a2.4 2.4 0 011.1.7l.4.5c.2.2.2.4.2.6v1.1l-.1.5a.7.7 0 01-.3.2 5 5 0 01-.8.2h-2.5c-.7-.3-1.4-.3-2.2-.3H77l-1 .1-.1.5-.4.9a45.6 45.6 0 01-.5 1.4 1 1 0 01-.2.4l-.2.4v.1l-.3.1v.5l-.2.2a2.2 2.2 0 01-.4.4.4.4 0 00-.1.2v.1l.1.2a.8.8 0 000 .3 10.2 10.2 0 00-.3.8l-.4.4a.4.4 0 000 .2v.1a39.5 39.5 0 00-.7.8s-.1.2 0 .2v.4l-.3.3v.4a.5.5 0 01-.3.2l-.3.2c-.1 0-.2 0-.3.2h.7a2 2 0 00-.7.6v.5c0 .2-.2.2-.3.3l-.2.2a77.2 77.2 0 01.2.3c.1.1 0 .2 0 .2a1 1 0 00-.5.1l.2.4-.3.1-.3.2-.2.1.2.2h.4c-.2 0-.4.2-.4.3v.4l-.2.5a4.7 4.7 0 00-.3 1.2h-.2a.6.6 0 00-.2 0h-.2a3.4 3.4 0 00.4.5l-.2.3-.2.3a.3.3 0 000 .3 203.5 203.5 0 01.2.4v.1l-.2.5c0 .2 0 .4-.2.5l-.1.1-.3.1v.1a.5.5 0 00.1.2H68l-.2.1c.1.3.2.6.1.8 0 .3 0 .5-.2.7l-.1.5a2.2 2.2 0 00-.2.4l-.1 1-.2 1v.4l-.2.5h-.1a.5.5 0 00-.2.2l-.2.3s-.1.2 0 .4l-.1.5-.2.6v.2a.6.6 0 00-.1.2l.1.5v1l-.1.3-.1.7a1.5 1.5 0 00.4.7l.2.2-.9-.1-.6-.4a.5.5 0 01-.2-.3 9.9 9.9 0 00-.1-.4.6.6 0 00-.3-.3v-.3l-.3-.5a1.6 1.6 0 01-.1-.5v-1.2l-.1-1.1v-.7l.2-.6v-.6l.1-.6.3-1.5a39 39 0 011.5-6l.4-1.2.8-2.2.7-2.2.4-.8.3-.8a5464.2 5464.2 0 00.9-2.3 11372 11372 0 001-2.6l.2-.5.3-.8.2-.8v-.4a4.1 4.1 0 00-.6 0 .6.6 0 01-.4-.2H70h-.3zm-2.2 14.3v.5a.6.6 0 00.1-.2l.1-.2h-.2a.6.6 0 000-.2v-.2l.5.1a348.9 348.9 0 00-.1-.6l.1-.2.2-.2a7.3 7.3 0 01-.3-.2 6.4 6.4 0 00.4-1.2v.4l-.2.4a.4.4 0 000 .2.4.4 0 01.1 0l.2-.1A15.7 15.7 0 0069 23h-.3l-.2.2v-.1l.2-.2.2-.2.1-.1.3-.7.2-.8a.4.4 0 00-.2 0 5 5 0 01-.2-.1l.5-1 .2.3c.4-.4.6-.8.4-1a.4.4 0 01-.1 0 .4.4 0 00-.2.1l.4-1.2.5-1.2h.1v.5l.3-.3.2-.4v-.1H71a1 1 0 010-.2 56 56 0 01.6-2v-.3l.1-.3v-.1H71.4l-.4.8-.7 1.6-.6 1.5-.4 1-.4 1-.4 1-.4 1-.3.8a22.9 22.9 0 00-.5 1.4l-.9 2.6a20.6 20.6 0 00-.5 1.8l-.2.8-.2.8-.3.9c0 .3 0 .6-.2 1l-.2.9-.1 1c-.2.3-.2.6-.2.9 0 .3 0 .6-.2 1a.3.3 0 000 .2v.2l.3-.2.1-.2c.1.4 0 .7-.5.7l.3.1.3.1.4-1-.3-1 .8-.5-.3-.2v-.4-.3-.3l.1-.2v-.2-.3a1 1 0 00-.2-.2h.3l.3-.2.2-.5.3-.7a.6.6 0 00-.2 0H66l.2-.2h.2a6.4 6.4 0 010-.7c0-.3 0-.4-.4-.6h.3a77.2 77.2 0 01.3.3 1.1 1.1 0 010-.4s0-.2.3-.3v-.1l.3-.9.2-.8v-.1a.5.5 0 01-.2 0v.1H67l.1-.4.3-.4zm3.1-5.8l-.1.3a5.2 5.2 0 01-.6 1.1c-.2.3-.3.5-.3.8l-.2.4a1 1 0 01-.1.4l-.7 1.5a27.9 27.9 0 01-1 3l-.2.5v.7l-.2.7-.2.7c0 .3-.2.5-.5.6a304.6 304.6 0 01.3.7l.2-.4.5-1.5.5-1.5.6-1.7v-.4l.3-.4.2-.4.2-.5.1-.7c0-.3.2-.5.4-.7v-.1l.1-.3.1-.3v-.5l.4-.6a.9.9 0 00.3-.7v-.7zm-2-10.6a.4.4 0 000-.1h-.3l-1 .2-.5.1h-.6l-.7.2-.7.2a28.3 28.3 0 00-4.4 1c-.4 0-.8.2-1.1.3-.3 0-.5.2-.7.3a1 1 0 00-.4.4l.9-.3 1-.3 1.3-.3a23.5 23.5 0 012.6-.6l1.3-.3 1.2-.2 1.2-.2.5-.2.5-.2zm2.9.5a1.7 1.7 0 00-.2-.1.2.2 0 00-.2 0h-.7l-.8.3h-.5l-.6.1-1.2.2-1.1.2h-.6l-1.7.4h-.6a.4.4 0 00-.1.2l-.1.2.3.1.4-.1.4-.1.4-.1h.5c.1 0 .3 0 .4-.2h1l1-.3 1-.2c.5 0 .9 0 1.2-.2a3 3 0 011-.2l1-.1a.8.8 0 00.3-.2V10a.8.8 0 00-.3 0 .2.2 0 00-.1.1h-.1zm-.4 10l.1-.7.3-.7.3-.6.1-.7-.5.9a16 16 0 00-.3.7l-.3.6c-.2.3 0 .4.3.4zm-6.8 18.2a7.1 7.1 0 00.2-1.2v.2l.2.2a.3.3 0 01.1 0v-.3-.3a.8.8 0 01-.3-.1 1.4 1.4 0 01-.1-.3.5.5 0 01-.1.1v.7a27 27 0 01-.2.9l.2.1zm2.4-6.5v-.1l-.2.2v.6c-.2.1-.3.3-.3.4V33.3H66.5l.1-.2a53.5 53.5 0 00.1-1.3zm-.8 2.8h.1l.2-.5.2-.5-.1-.2a.5.5 0 01-.2 0 .2.2 0 000 .2l-.2.4v.5a.5.5 0 010 .1zm4.3-25.3a7.1 7.1 0 01-.6 0l-.6.2.3.2.5-.1.4-.2v-.1zM64.8 38a.4.4 0 01-.2 0l-.1.3c0 .2 0 .3.3.4V38zm-2-26.5a3.8 3.8 0 01-.9.2v.1h.9v-.3zM68 29.8l.6-.4a.9.9 0 00-.5 0v.4zm.7-7.6a10.2 10.2 0 01.3-.8h.2l-.3.9h-.1-.1z"/><path d="M101.3 33.6l-.1.6h-.4v-.1l.1-.1.4-.4zm8.3-14.7v.7a1.2 1.2 0 01-.3.4l-.3.3c-.2 0-.3.2-.4.3a1783.3 1783.3 0 00-.7.9l-1.4 2a1.5 1.5 0 01-.3.4c-.1 0-.1.2 0 .4a3.4 3.4 0 01-.6.6l-.2.5-.3.3-.1.3v.2a.9.9 0 01-.2.3.7.7 0 00-.1.2c-.2.4-.4.8-.8 1.2l-.5.5a1 1 0 00-.2.7l-.1.1a6.3 6.3 0 01-.1.4v.3l-.4.5-.5.5a.7.7 0 01.3.1v.2h-.1a.7.7 0 00-.4.2l-.1.6.1-.3.2-.3v.4l-.2.3h-.3l-.3.5-.3.6h.4l.2-.3c0 .3 0 .4-.4.5h-.4l-.3.2.1.1H101v.3a.7.7 0 00-.2.2 8.2 8.2 0 00-.5 1.2l-.6 1.6a.8.8 0 000 .4 3821.2 3821.2 0 00.7-1 .4.4 0 000 .2v.2l-.3.7-.2.8a18.5 18.5 0 00-.6.8h.3l-.1.7-.2.8v.3l-.1.3v1.2l-.1.4h-.3v.5l.1.4.2.2h.3l.3-.2h.3c0 .6-.2 1-.8 1.2l-.2-.1a.7.7 0 00-.4-.3 2.3 2.3 0 01-.5-.1l-.2-.2a.6.6 0 00-.1-.1 3 3 0 01-1.2-1.6 7 7 0 01-.2-1.9v-1.2a21 21 0 01.2-1.8l.1-.6.3-1.1a20.6 20.6 0 01.6-2.2l.4-1 .7-1.8a235.2 235.2 0 011.6-4.1l1-2.2a27.7 27.7 0 011.4-3l.8-1.3.7-1.4.2-.3a.9.9 0 00.2-.3l-1.2 1a37.2 37.2 0 00-1.2.8l1.2-1 1.2-1V18v-.1l.4-.6a3.5 3.5 0 011.1-1c.4-.3.7-.3 1 0h.2l.6.4.4.4c0 .2.2.3.3.4a2.9 2.9 0 01.6.4 2 2 0 01.2.4l.2.3v.2l.1.1zm-8.7 8c-.5.9-.8 1.8-1.1 2.8l.2-.1.3-1c0-.2 0-.3.2-.4.3-.3.4-.8.4-1.2zm-1.6 2.8a.3.3 0 00-.1.2.6.6 0 010 .2h.1a11.3 11.3 0 00.4-.9v-.1l-.2.1-.1.3-.1.2zM97.8 34l-.3.5h.4a.3.3 0 01.1 0 .7.7 0 00.3 0v-.2a.6.6 0 00-.2 0 .6.6 0 01-.2 0 .3.3 0 010-.2.3.3 0 000-.1h-.1zm-.9 5.3l.1-.6.2-.6-.1-.1H97l-.1.1-.1.4v.4a1.9 1.9 0 000 .4h.1zm2.9-5.6a144 144 0 00-.3-.1.6.6 0 00-.2 0H99v-.2l.1-.3c-.2 0-.3.2-.4.4-.1 0-.2.3-.1.5l-.1.5-.2.3-.1.2-.2-.2-.2-.2-.1.4h-.1a1.2 1.2 0 00-.1-.1v-.2l-.2.4s0 .2.2.3v.2a.8.8 0 01-.2.2 2.1 2.1 0 00-.1.3 58.2 58.2 0 000 1.1.5.5 0 00.1 0V37l.6-1.7c0-.1 0-.2.1-.1.1 0 .2 0 .3.2h-.3l-.1.4a.5.5 0 000 .2.6.6 0 010 .2.5.5 0 01.1 0l.3-.1-.1.1v.1H98l-.1.1-.1.4v.4l-.1.3-.4.8v1.1c-.2.1-.2.3-.1.4v.4l.3-.1.2-.2-.3-.5h.4v-.2l-.1-.2a.4.4 0 01.1 0l.3-.1.2-.4v-.3l-.2-.4c0-.2 0-.3.2-.5a28.8 28.8 0 01.4-1c.4-.2.5-.4.2-.7l.3-.4.3-.6v-.2-.1l-.2-.3.2-.2h.3v-.1zm0-1l.1-.3v-.2-.4a.6.6 0 010-.4l-.1-.1a14.3 14.3 0 00-.5.9.2.2 0 00-.1 0H99v-.5l.1-.3V31c-.2 0-.2-.2-.2-.2l.2-.3v-.2H99a.3.3 0 01-.1-.1l-.2.4v1l-.1.5-.3.4v.3c-.2 0-.3.2-.5.4v.6l.1-.3h.1v.5h.2l.1-.2a.3.3 0 000-.2l.1-.1.1-.4.2-.5.1-.2.1-.2.3.1h.1l.2-.1.3.3zm.3-.8c0-.1 0-.2.2-.3l-.1-.3s0 .2-.2.3l.1.3zm.4-1.2v-.1l.1-.2a3.8 3.8 0 00-.3-.4v-.2h-.1v.1c0 .2 0 .3-.2.5l-.2.3a.3.3 0 000 .1v.1l.3-.1.1-.3a.5.5 0 00.1.1.4.4 0 01.2.1zm.6-1.3h-.2a.3.3 0 00-.1 0l.2-.5.2-.6-.6.6c-.2.3-.2.6-.2.7h.6l.1-.2zm-4-2a35.2 35.2 0 00-1.5 2l-.7.8-.6.9-.7.8-.3.6-.3.7c0 .3-.2.5-.5.8a10.1 10.1 0 00-1.3 1.8c-.2.4-.3.8-.3 1.3v.1l-.4.4-.5.3-.2.1h-.2l-.1.1V38c-.3 0-.5-.2-.6-.5a1 1 0 00-.4-.5 2 2 0 01-.7-.8 7.4 7.4 0 01-.3-4.3l.3-1.7a20.5 20.5 0 011-3.5l.8-1.8.3-.9a18.1 18.1 0 011-1.9l.5-1.1 1.2-2.1a65.6 65.6 0 012.3-4l1.1-1.8 1.2-2a26758.6 26758.6 0 002.5-4.3c.1-.2.3-.3.4-.3l.5-.1a.8.8 0 000 .2.3.3 0 01-.1.1h.9c.2 0 .3.2.4.3l.3.4.3.4.3.2c.3.1.5.3.6.6l.3.8-.1.8-.2.1-.1.2h-.2v.2l-.2.5-.2.3-.7 1-.6.8-.4.5-.4.6h-.2l-.3.3a.4.4 0 00-.1.2l-.1.1c-.1 0-.2.1-.2.3a1 1 0 01-.2.3 1 1 0 01-.2.2 2 2 0 00-.2.3v.1c-.1.5-.3.8-.7 1.2l-.5.5-.2.5-.3.3-.1.1a1.3 1.3 0 01-.3.6l-.5.6v.1c-.1 0-.1.1 0 .1v.4l-.3.2c-.3.1-.5.4-.6.7l-.4.8a13.4 13.4 0 00-1.2 2 .4.4 0 000 .2l-.1.2-.2.2-.1.1h-.1v.3l-.4.4.2.4H92.9v.4a.8.8 0 010 .4.7.7 0 01-.2.3l-.1.2-.1.3h-.3l-.2.1a.5.5 0 010 .2h.3l-.2.5-.4.6v.5l-.3.8c0 .3-.2.6-.3.8 0 .3-.2.4-.3.4v.4l-.1.4-.2.6v.6a6.4 6.4 0 00-.3 1v.3l.2-.4a11.3 11.3 0 01.9-1.2l.6-.8a.5.5 0 01.2 0v-.2a5.8 5.8 0 011.6-2.4 12.2 12.2 0 001-1.3l.5-.8.5-.6.6-.5c.2-.1.2-.3.2-.6l.4-.1a2.2 2.2 0 00.4-.6l.1-.3 1-1.1 1-1.1.7-.7.6-.7.6-.6.7-.3a75.5 75.5 0 00-6.7 8l.2.3 1.2-1.4 1.1-1.4h.2l-.4.6-.4.6zm-6.7.7a.8.8 0 00-.2-.2l-.2-.2.3-.2v-.3l-.1.1H90l-.1.1v.2a6.4 6.4 0 000 .6h.2a568.9 568.9 0 01-.6.4h.2l.2.2a319 319 0 01-.1.4h-.3a1 1 0 00-.2 0l.2.3.2.2a.5.5 0 01.1 0l.1-.2a9 9 0 00.5-1.4zm-.4 7v.1zM92 25l.4-.1a.4.4 0 000-.2l-.5.2-.5-.4v.5l-.2-.1-.2.2V25.3a.3.3 0 01.1 0 .8.8 0 00.2-.2.5.5 0 01-.2.4h-.2a.3.3 0 00-.2.2l.2.2.1.1-.3.1v.4l-.3.2.2.1a.5.5 0 010 .1H90.4l.2.3.2.2.3-.7a1 1 0 01.6-.6 42.2 42.2 0 00-.1-.2s-.1-.2 0-.2a.2.2 0 010-.1h.4l.1-.2-.2-.2v-.1a.4.4 0 00.2-.2zm-.5-.8v.2l.1.1a.5.5 0 00.1.1h.2l.2-.1.3-.2-.1-.4a1 1 0 00-.3-.2h-.2a1 1 0 000 .2.6.6 0 01-.1.2l-.2.1zm1.2-1l.1-.7.2-.7a.4.4 0 01-.2 0V22h-.4v.4l-.1.2v.2l.3.3h.1zm.2.4l.3-.4.3-.5c-.4 0-.6.4-.6.9zm.8-2.3v-.4-.4l-.4.3-.2.4a.2.2 0 00-.1.1v.2h.3l-.1.4v.4l.2-.4c.2 0 .3 0 .3-.2v-.4zm1.1-1a50.9 50.9 0 000-.2l-.5.7-.3.5c.2 0 .3-.2.5-.4l.3-.6zm-.1-4l-.3.4-.3.5h.3l.2-.5.2-.4h-.1zm-6 14.8v-.3l.1-.3.2-.2.3-.1-.3-.2-.1-.1v-.3l.2-.2V29l.2-.3.3-.8.3-.9a48.8 48.8 0 011-2.5l.3-.6.3-.5.2-.4.4-.7.4-.7.1-.2.1-.2c0-.2 0-.4.2-.5l.3-.5c0-.2.2-.3.3-.4l.3-.4.2-.5.3-.6.5-.8.5-.9.1-.2v-.2H95a.8.8 0 00-.1.4l-.2.6-.4.6s-.1.1-.2 0c-.2 0-.3 0-.3.2l-.1.3.3-.1c0 .3-.1.4-.3.5a1.1 1.1 0 01-.6 0 .7.7 0 000 .3.8.8 0 01-.2.2h.4l.3-.2a5 5 0 01-.3.4 1.6 1.6 0 00-.2 0 .5.5 0 01-.1-.1h-.1l.2.5a1 1 0 01-.2 0 .6.6 0 00-.2 0 .7.7 0 01-.2.2h-.1c-.1.3-.2.6-.5.9l-.3.5-.2.5-.2.4-.1.4v.1h.3a.5.5 0 010 .1.4.4 0 01-.1.1.2.2 0 00-.1.1 2.5 2.5 0 00-.2.5l-.2.5a1 1 0 01-.2.3l-.2.2v-.1l.2-.3.2-.3v-.4a.5.5 0 01-.1.1l-.1.1a3.6 3.6 0 00-.4.8v.2l-.1.1v.1a.7.7 0 01.3.1l-.2.3-.1.4a.4.4 0 00-.2-.1 2.5 2.5 0 01-.3-.1v1.1l-.2.1h-.2v.1l.4.2-.2.3v.2l-.5.1-.2.7.3-.2.2-.3-.1.5-.1.4a2.4 2.4 0 00-.3.2l-.2.2.2.3-.2.1a.7.7 0 00-.3 0l.2.3h.2a.4.4 0 00-.1.2v.4h-.2a.3.3 0 00-.2.2l.1.2s.1.1 0 .2h-.1l-.2.3-.1.3v.3c.3 0 .3.1.2.3a4.8 4.8 0 00-.2 1.5v.4h.1v-.4l.1-.4.3-1 .3-1.2zm.4.8a.1.1 0 000-.1v-.1a1 1 0 00.3-.6c0-.2 0-.4.2-.6V30l.1-.3a1 1 0 00-.3 0 2.2 2.2 0 00-.2 0l.1.2v.3a2 2 0 00-.1.6c0 .3-.1.4-.3.6v.5h.2zm3-10.3l-.2.6a.6.6 0 00-.2-.1l.1-.3.1-.3h.2z"/><path d="M127.3 24.8v.1l-.2.4a.5.5 0 01-.3.3.7.7 0 00-.3.2c0 .1 0 .2-.2.3 0 .2-.2.3-.3.4l-.3.5a3.4 3.4 0 00-.2.5l-.4.5-.4.4-.3.3-.2.3-.3.3-.3.3a.6.6 0 01-.3.5l-.4.2a.9.9 0 01-.2-.2l.2-.2.1-.2.2-.1.2-.2.2-.2a5.8 5.8 0 001-1.1l.3-.4a17 17 0 00.6-1l.3-.3.3-.2V26v-.2-.1c.3 0 .4 0 .3-.2a.7.7 0 010-.4.5.5 0 00.1-.2h.1a14 14 0 01-.2-.2 36.3 36.3 0 01-2.2 2.9h-.1v-.2a56.2 56.2 0 012.6-3.5l.2.2.2.2.1.1V24.8zm-5.3 5.8l.4-.2h.5l-.6.6a531.9 531.9 0 00-1.4 1.4h-.1a14 14 0 00-.3.3l-.3.3c-.2.4-.4.7-.7.9l-.8.7-.8.7-.9.7h-.1a2.7 2.7 0 01-3.1 2 4.9 4.9 0 01-1.7.2c-.2 0-.5 0-.7-.3l-.5.1-.2.2h-.4a.7.7 0 01-.3-.1l-.2-.3h-.1v.4a2.7 2.7 0 01-.6-.8v-.2a2 2 0 00-.5-.9.6.6 0 01-.2-.2l-.1-.3-.3-.4-.2-.3a2 2 0 01-.1-.3 16.7 16.7 0 01-.3-1.2v-1a38.5 38.5 0 01.1-1.1v-.1c0-.4 0-.7.2-1l.4-1 .2-.1c-.2-.3-.2-.4.2-.6v-.1c0-.3 0-.4.2-.5l.1-.3a.7.7 0 00.2 0c.1-.1.1-.2 0-.4v-.2a6 6 0 01.4-.3v-.1l.3-.2a1.6 1.6 0 00-.2-.2c.3 0 .4-.1.3-.3l.2-.3.3-.3.1-.2.2-.3.5-.3v-.4a.3.3 0 01.1 0h.2l-.2-.2-.1-.2 1-1.3v.2a21.3 21.3 0 01.4-.4l.2-.4c0-.1 0-.3.2-.5l.5-.3h.1v-.4a1 1 0 00.4-.3l.5-.7.7-.7.7-.7.6-.7.7-.9a9.3 9.3 0 011-.8l.2-.1h.2l.8.3h.2l.3.2.2.2.2.2.3.2.5.5a9.4 9.4 0 01.3.7v.4l.2.5.2.7.3.6v.7a1 1 0 000 .7v.1a.3.3 0 000 .1c.1.1.2.3 0 .4l-.1.3v.4l-.2.4v.3l-.2.2a.2.2 0 000 .2l-.1.1-.4.6-.6 1-.4.5a12 12 0 01-.7 1 4 4 0 00-.5.9l-.2.2c-.2 0-.4.2-.5.4l-.4.5a2 2 0 01-.4.3l-.4.4-.3.2a3.8 3.8 0 01-.7.6l-.4.3h-.1a3 3 0 01-1 .5 19.3 19.3 0 00-1.3.3 6.5 6.5 0 01-2.3.1h-.2c0 .3 0 .5-.3.6l-.1.2a.5.5 0 00-.1.1v.1c-.2.1-.2.2-.1.3a.4.4 0 01.2 0l-.1.4-.1.3-.1.2c-.2.2-.3.4-.1.6v.4c-.1.1-.1.3 0 .4l.2.2v.2l.1.4a1 1 0 00.1.3l.6.3h1.4l1.4-.6.7-.5a47.1 47.1 0 003.8-2.8l1.3-1.1a54.5 54.5 0 002.2-2.1 37.1 37.1 0 001.9-1.7l.2-.2.2-.3a4.3 4.3 0 00.1.1 99.8 99.8 0 00-3 3.3 21.3 21.3 0 00-.3.3l-.4.4-.4.4-.1.1a.4.4 0 00-.1 0v.2h.2l.2-.1.2-.2a16.8 16.8 0 001.8-1.7zM110.3 28l.3-.3c.1 0 .2-.2.1-.4h-.2c0 .2-.2.2-.2.3l-.2.3c0 .2.1.2.2 0zm.4 1l.3-.5.4-.5a.8.8 0 00-.6.3.8.8 0 00-.1.6zm5.5.4v-.5l-.3.3-.1.2-.2.2-.4.2.1.1a7.3 7.3 0 00.9-.5zm.4-.5l.1-.2h-.3l-.1.2h.3zm-2.1-2.8l-.5.6c0 .2-.2.4-.4.6h-.2-.1a1 1 0 00-.1.3v.3a29 29 0 00-.3.4l-.2.2-.1.2a.8.8 0 00-.2.2l-.3.7c0 .2-.2.3-.4.5l-.5.7H112.5l.3-.2h.5a.8.8 0 01.2-.2h.3v-.1l1-.7.4-.2a6.4 6.4 0 001-.9 5 5 0 00.8-.8v-.1l.5-.5.4-.6.5-.6.5-.6.1-.2v-.2a6.5 6.5 0 001.5-4v-.7-.2h-.2a.4.4 0 00-.3 0l-.2.3a2 2 0 01-.3.3 2.5 2.5 0 01-.2.2l-.3.2a2 2 0 00-.3.3l-.4.3c-.2 0-.3.2-.4.4a4.5 4.5 0 01-.7.6l-.2.2a5.1 5.1 0 00-.5.6 2.5 2.5 0 01-.6.9l-.4.4a9 9 0 00-.5.6c-.1.2-.3.4-.6.4v.4zm-.8-4l-.2.2V22.7h.2v-.2-.2zm-.6.6a14 14 0 00-.3.2l.3.3.2-.1.1-.3-.2-.1zm-.2.5c-.2 0-.4 0-.5.3l.3.2v-.1l-.1-.2h.2l.2-.1-.1-.1zm-4.2 7a2.6 2.6 0 00-.1-.3h-.1a.1.1 0 000 .2l.2.2zm-.2-.5l.3-.1.3-.2c-.2-.1-.2-.3 0-.5v-.2l-.3.5-.3.5zm.6 2.8v-.2a.5.5 0 000-.3v.2l-.2.2v.1h.2zm0-4h.1a.8.8 0 01.2.2.9.9 0 00.1-.2.7.7 0 00.1-.3V28h.2l.2-.2.3-.4a.4.4 0 000-.1c0-.1 0-.1 0 0h-.2a7.3 7.3 0 00-.1.2h-.1l.1-.3a.6.6 0 01.2-.2l.4-.2-.1-.3.2-.1.2-.1.2-.2.2-.4c.2 0 .3-.2.4-.3a4.7 4.7 0 00-.1-.4l.4-.3.2-.2.2-.3c.1-.1 0-.3-.1-.4-.7.7-1.3 1.5-1.8 2.3l-1.4 2.4zm.3 3.1l.2-.6.3-.5v-.1l-.2.1c0 .1 0 .3-.2.4l-.2.4v.3z"/><path d="M132.5 22.7c.2.3.1.6-.2.8a.6.6 0 00-.1.2l-.1.3-.3.2-.4.4.2.3-.3.2a.5.5 0 00-.2.2v.4l.4-.1.4-.7a9 9 0 01.9-1.3 8.9 8.9 0 01.6-.7l.1-.3c0-.2.1-.4.3-.4l.4-.4a8.8 8.8 0 00.6-1 23.2 23.2 0 00.7-1l1.1-1a57.3 57.3 0 011.5-1.6l.1.1-.9.9-.8.9h.4l.7-.8.8-.8c.2-.1.2-.4.1-.6l.3-.3.3-.4V16h-.2a9.8 9.8 0 01-1.2.7h.1l1-.8.9-.8a.4.4 0 00.1-.3 1.3 1.3 0 01.5-.5l.2-.3a.3.3 0 01.2 0c.1.2.3.3.4.3.2-.1.3-.1.4 0l.4.1a8.4 8.4 0 01.7.4l.2.3.5.5c.1 0 .2.1.2.3l.2.4v.3c.1.1.1.3 0 .4v1.1a.7.7 0 01-.2.2l-.1.3-1 1.3-.8 1.2a.7.7 0 00-.2.3 11.3 11.3 0 01-.3.8.9.9 0 01-.3.3.6.6 0 00-.2.4 1 1 0 01-.1.3l-.2.5-.3.4-.2.5c0 .1 0 .3-.2.4 0 .3-.1.5 0 .8 0 .3-.1.5-.3.8a.8.8 0 000 .5 2.1 2.1 0 010 .9v.2c0 .2 0 .3.2.5l.2.6a.9.9 0 01-1 0 4.5 4.5 0 01-1.8-2 7 7 0 01-.5-2.7 11.6 11.6 0 011.2-5l.2-.5-.1-.1a.7.7 0 01-.2 0l-.2.2-.6.8a21.9 21.9 0 01-1 1.3l-.3.4a10.5 10.5 0 01-.4.6 20 20 0 01-.6.8l-.6.9a32.6 32.6 0 00-3.6 6 83.2 83.2 0 01-4.3 7.8c-.3.5-.7.6-1.2.2a1.5 1.5 0 00-.4-.2c-.2 0-.3-.1-.4-.3a4.2 4.2 0 01-.6-1.1 6.2 6.2 0 01-.2-1.3c-.1-1 0-2.2.2-3.3.3-1.5.7-3 1.2-4.4l.5-1.3a89.8 89.8 0 012.2-4.9l.2-.6.5-1 .6-1 .5-1.2.5-1c.2-.5.5-.8 1-1l.2.3h.8v.3h.5l.4.4.6.5a1.7 1.7 0 01.5.8.5.5 0 010 .2l-.2 1c0 .3-.2.6-.4.9l-.6.7a3 3 0 00-.4.8l-.2.2a.6.6 0 00-.2.3l-.4.7a7.7 7.7 0 01-.6 1.2l-.3.3c-.3.1-.5.4-.6.7l-.4.8-.2.6-.5.3v.6l-.3.6-.3.3v.5s0 .2-.2.3a.9.9 0 00-.2.2l-.4.8-.3.7-.2.7v.7l-.1.3a2.4 2.4 0 00-.4.7l-.1.5.1-.1a.4.4 0 00.2-.1l2.3-4.2.8-1.4a45.2 45.2 0 011.4-2.3 37.5 37.5 0 001-1.5 12 12 0 01.7-1zm-1.4 3.4a.4.4 0 01-.3 0 .4.4 0 00-.1.1.4.4 0 00-.1.2v.1a.6.6 0 01.1 0h.2a.4.4 0 00.1-.1l.1-.3zm-6 4.7v.1h.2v-.2l.2-.2h-.1v-.1l-.3.4zm12.3-13.6l-.8.8a10 10 0 00-1.2 1.3 13.3 13.3 0 01-.4.6 2 2 0 00-.9.8l-.7 1-.2.4a.5.5 0 00-.1.4h-.2l-.3.1a28.3 28.3 0 014.7-5.5l.1.1z"/><path d="M160.7 24.8v.1l-.2.4a.5.5 0 01-.3.3.7.7 0 00-.3.2c0 .1 0 .2-.2.3l-.3.4-.3.5a3.8 3.8 0 00-.2.5 2 2 0 01-.4.5l-.4.4-.3.3-.2.3a.7.7 0 01-.3.3l-.2.3h-.1a.6.6 0 01-.3.5l-.4.2a.9.9 0 01-.2-.2l.2-.2.1-.2.2-.1.2-.2.2-.2a5.8 5.8 0 001-1.1l.3-.4a13.3 13.3 0 00.6-1l.3-.3.3-.2V26v-.2-.1c.3 0 .4 0 .3-.2a.7.7 0 010-.4.5.5 0 00.1-.2h.1a14 14 0 01-.2-.2 92 92 0 01-1 1.5l-1.2 1.4h-.1v-.2a94.4 94.4 0 00.8-1l.7-.9a9.7 9.7 0 00.6-1l.3-.3.2-.2.2.1.2.2.1.1V24.8zm-5.2 5.8s.1-.2.3-.2h.5l-.6.6a531.9 531.9 0 00-1.4 1.4h-.1l-.2.2a.5.5 0 010 .1l-.3.3h-.1a2 2 0 01-.7.9 7 7 0 00-.8.7l-.8.7-.9.7h-.1a31.4 31.4 0 00-1.3.9l-.6.4-.5.3-.7.4a4.9 4.9 0 01-1.7.2c-.2 0-.5 0-.7-.3l-.5.1c0 .2-.1.2-.2.2h-.4a.7.7 0 01-.3-.1c-.1 0-.2-.1-.2-.3h-.1v.4a2.7 2.7 0 01-.6-.8v-.2a2 2 0 00-.5-.9.6.6 0 01-.2-.2l-.1-.3-.3-.4-.2-.3-.1-.3-.1-.3-.2-1v-1.4a5 5 0 00.2-.7l.1-1 .4-1 .2-.1c-.2-.3-.2-.4.2-.5v-.2c0-.3 0-.4.2-.5l.1-.3a.7.7 0 00.2 0c.1-.1.1-.2 0-.4v-.1l.3-.3c.1 0 .1-.1 0-.2l.4-.2a1.6 1.6 0 00-.2-.2c.3 0 .4-.1.3-.3l.2-.3.3-.3.1-.2.2-.3.5-.3v-.4a.3.3 0 01.1 0h.2l-.2-.2V24l1-1.3-.1.2.2-.1.2-.3.2-.4c0-.1 0-.3.2-.5l.5-.3h.1v-.4a1 1 0 00.4-.3l.5-.7.7-.7.7-.7.6-.7.7-.9a9.3 9.3 0 011-.8l.2-.1h.2l.8.3h.1l.4.2.2.2.2.2.3.2.5.5a9 9 0 01.3.7v.4l.2.5.2.7.3.6v.7a1 1 0 000 .7v.1a.4.4 0 000 .1c.1.1.2.3 0 .4l-.1.3v.4l-.2.4v.3l-.2.2a.2.2 0 000 .2l-.1.1-.4.6-.6 1-.4.5a12 12 0 01-.7 1 4 4 0 00-.5.9l-.2.2c-.2 0-.4.2-.5.4l-.4.5a2 2 0 01-.4.3l-.4.4-.3.2a3.4 3.4 0 01-.7.6l-.4.3h-.1a3 3 0 01-1 .5 19.7 19.7 0 00-1.3.3 6.5 6.5 0 01-2.3.1h-.2c0 .3 0 .5-.3.6l-.1.2a.5.5 0 00-.1.1v.1c-.2.1-.2.2-.1.3a.4.4 0 01.2 0l-.1.4-.1.3-.1.2c-.2.2-.2.4-.1.6v.4c-.1.1-.1.3 0 .4 0 0 .2 0 .2.2v.2l.1.4a1 1 0 00.2.3c0 .2.3.3.5.3h1.4l1.4-.6.7-.5.8-.6a43.7 43.7 0 003-2.2l1.3-1.1A54.5 54.5 0 00155 30a37.1 37.1 0 001.9-1.7l.2-.2.2-.3.1.1a104.6 104.6 0 00-3 3.3l-.2.2a8.1 8.1 0 01-.5.5l-.4.4-.1.1a.4.4 0 00-.1 0v.2h.2l.2-.1.2-.2a16.8 16.8 0 001.8-1.7zM143.6 28l.3-.3c.1 0 .2-.2.1-.4h-.2l-.2.3-.2.3c.1.2.2.2.2 0zm.4 1l.3-.5.4-.5a.8.8 0 00-.5.3.8.8 0 00-.2.6zm5.5.4v-.2l.1-.3c-.2 0-.3.1-.4.3l-.1.2a1.3 1.3 0 00-.2.2l-.4.2.1.1a7.3 7.3 0 00.9-.5zm.4-.5l.1-.2c-.1-.1-.2-.1-.2 0a.5.5 0 00-.1 0l-.1.2h.3zm-2.1-2.8a6 6 0 00-.4.6l-.5.6h-.2-.1a1 1 0 00-.1.3 1 1 0 010 .3l-.2.2-.1.2-.2.2-.1.2a.9.9 0 00-.2.2l-.3.7c0 .2-.2.3-.4.5l-.5.7H146l.3-.2h.5a.8.8 0 01.2-.2h.3l.1-.1 1-.7.3-.2a6.3 6.3 0 001-.9 5 5 0 00.8-.8l.1-.1.4-.5.4-.6.5-.6.5-.6.1-.2v-.2a6.4 6.4 0 001.5-4v-.7a.3.3 0 000-.2h-.2a.4.4 0 00-.3 0l-.2.3-.3.3a2.4 2.4 0 01-.2.2l-.2.2a2 2 0 00-.4.3l-.4.3c-.2 0-.3.2-.4.4a4.5 4.5 0 01-.7.6l-.2.2a5.1 5.1 0 00-.5.6 3.6 3.6 0 01-.6 1l-.4.3-.5.6a1 1 0 01-.6.4v.4zm-.8-3.9l-.2.2v.2h.2v-.2-.2zm-.6.5a.7.7 0 00-.1.1l-.2.1.3.3.2-.1.1-.3h-.2v-.1zm-.2.5c-.3 0-.4 0-.6.3l.4.2v-.1l-.1-.2h.2l.2-.1-.1-.1zm-4.2 7a2.5 2.5 0 00-.1-.3h-.1a.1.1 0 000 .2l.2.2zm-.2-.5l.3-.1.3-.2c-.2-.1-.2-.3 0-.5v-.2l-.3.5-.3.5zm.6 2.8v-.2a.5.5 0 000-.3v.2l-.2.2v.1h.2zm0-4h.1a.8.8 0 01.2.2.8.8 0 00.1-.2.7.7 0 00.1-.3V28h.2l.2-.2.3-.3a4.1 4.1 0 010-.2h-.2v.2h-.1-.1l.1-.3a.6.6 0 01.2-.2l.4-.1-.1-.4.2-.1.2-.1.2-.2.2-.4c.2 0 .3-.2.4-.3a4.7 4.7 0 00-.1-.4l.4-.3.2-.2.2-.2c.1-.2 0-.3-.1-.5a11.8 11.8 0 00-1.8 2.3l-1.4 2.4zm.3 3.1l.2-.6.3-.5v-.1l-.2.1c0 .1 0 .3-.2.4l-.2.4v.3z"/><path fill-rule="evenodd" d="M197.4 25a138.7 138.7 0 00-27.2 3.2l-.4-2a141 141 0 0127.6-3.2c9.6-.1 19.1 1 26.6 4.2 7.6 3.2 13.3 8.6 15 17 1.7 7.7-.2 18-7 31.3l10.7-3.7.6 2-14 4.8-3.3-14.1 2-.5 2.4 10.4c6.5-13 8.1-22.7 6.7-29.9-1.6-7.5-6.7-12.4-13.8-15.5-7.2-3-16.4-4.1-25.9-4z" clip-rule="evenodd"/></svg>