<svg xmlns="http://www.w3.org/2000/svg" fill="currentColor" viewBox="0 0 45 48"><path d="M11.5 2.3c-2 0-3.6 1.5-3.7 3.5l-.2 2.8c-.1 2 1.5 3.8 3.5 3.9l2.8.2h1l.8-.6 1-.7.9-.6.2-1v-.6l.3-2.8c0-1-.3-2-1-2.7a3.7 3.7 0 00-2.6-1.2l-2.8-.2h-.2zm2.1 6l.1-1.6h-1.6l-.2 1.6h1.7zm-2-3.2l2.8.2a1 1 0 01.8 1L15.1 9v.1l-1 .8-2.8-.2a1 1 0 01-.9-1l.2-2.7c0-.5.4-.9 1-.9z"/><path d="M23 15.8a21.2 21.2 0 00-21.2 21c0 4 1.1 7.8 3 11h3.5a18 18 0 01-3.7-11 18.4 18.4 0 0131.5-12.6 18 18 0 015.4 12.7 21 21 0 01-2.7 10.9H42c1.5-3.1 2.3-6.8 2.3-11 0-5.2-2.2-10.5-6.2-14.5a21 21 0 00-15-6.5z"/><path d="M19 42.6c0 1-.8 1.9-1.8 1.9s-2-.9-2-2c0-1 1-1.8 2-1.8s1.9.8 1.9 1.9z"/><path d="M30.9 42.6c0 1-.9 1.9-2 1.9-1 0-1.8-.9-1.8-2 0-1 .8-1.8 1.9-1.8 1 0 1.9.8 1.9 1.9z"/><path fill="none" d="M1.4 41.8L12 30.7l-2.6 8c8.3-6 17-5.1 23-3.3 6.6 1.9 11.1-3.8 6.7-9.9a20.9 20.9 0 00-31.5-2.4c-6.2 6.2-6.2 13-6.2 18.7z"/><path d="M22 18.3A19.4 19.4 0 008.6 24 19.7 19.7 0 003 38.3l12.3-13L12 35.5A27.5 27.5 0 0133 34c2.5.8 4.7.2 5.8-1.4 1.2-1.6.9-4-.8-6.2a19.5 19.5 0 00-15.8-8zm-22 27v-3.5c0-5.8 0-13 6.6-19.7A22 22 0 0117.9 16a22.3 22.3 0 0122.3 8.7c2.4 3.3 2.7 6.9.8 9.5-1.8 2.6-5.3 3.6-9 2.5a24.1 24.1 0 00-21.7 3l-3.5 2.6 2-6.2L0 45.3z"/><path fill="none" d="M28.1 16.1a7 7 0 01-8.2 4.1 7 7 0 01-5.3-7.9c.4-3.8 3-7.1 6-11.3-2.4 5.2-.3 5.7.3 5.7.7 0 1.6 0 3 .5a6.8 6.8 0 014.2 9z"/><path d="M18.4 6.6c-1.3 2-2.2 3.9-2.4 5.9-.4 3.1 1.2 5.5 4.3 6.4 2.6.7 5.5-.7 6.5-3.3.6-1.4.5-2.9-.1-4.2a5.4 5.4 0 00-3.2-2.8C22.2 8 21.5 8 21 8a2.7 2.7 0 01-2.6-1.5zm3.3 15.3a8.8 8.8 0 01-7.3-3.8 8.6 8.6 0 01-1.2-6c.5-3.9 2.9-7.2 5.7-11l.6-.9 2.4 1.4c-1.2 2.5-1 3.5-1 3.7 1 0 2.1.2 3.4.6a8.2 8.2 0 01-2.6 16z"/><path fill="none" d="M24.6 28.5c-.5 0-1-.2-1.3-.6l-1-1.1c-.5-.7-.4-1.7.2-2.3-.2 0-.4-.2-.5-.4l-.2-.2c-.6-.7-.5-1.8.2-2.3l.1-.1-1.3-1.7c-.7-.8-.5-1.9.2-2.5a1.8 1.8 0 012.5.3l6 7.2a1.7 1.7 0 01-1 2.8 1.8 1.8 0 01-1.7-.4l-1.2 1c-.3.2-.6.3-1 .3z"/><path d="M24.4 16.8a3 3 0 00-4.1-.4 2.9 2.9 0 00-.4 4.1l.7 1c-.5 1-.5 2.2.3 3l.1.3c-.3.8-.2 1.9.5 2.7l1 1.1a2.8 2.8 0 003.8.4l.6-.4a3 3 0 003-.5c1.3-1 1.4-2.8.4-4l-5.9-7.3zm-2.3 1.3c.2 0 .4 0 .5.2l6 7.2a.6.6 0 01-.4 1H28c-.2 0-.4 0-.5-.2l-.6-.7-2.1 1.7a.5.5 0 01-.7-.1l-1-1.2a.5.5 0 01.1-.6l2.1-1.7-.8-1-1 .8a.5.5 0 01-.7-.1l-.2-.3a.5.5 0 010-.6l1-.9-2-2.5a.6.6 0 010-1h.4z"/></svg>