<svg xmlns="http://www.w3.org/2000/svg" width="1365.333" height="1365.333" preserveAspectRatio="xMidYMid meet" version="1.0" viewBox="0 0 1024 1024"><metadata>Created by potrace 1.11, written by Peter Selinger 2001-2013</metadata><g fill="#000" stroke="none"><path d="M4596 9577 c-21 -29 -137 -189 -156 -216 -110 -157 -232 -328 -238 -336 -5 -6 -17 -24 -28 -40 -10 -17 -22 -34 -27 -40 -23 -29 -107 -158 -107 -163 0 -18 -40 -31 -72 -22 -51 13 -295 31 -460 34 -38 1 -68 3 -68 6 0 3 -26 5 -58 6 -31 1 -111 4 -177 8 -185 11 -306 8 -393 -9 -12 -3 -34 -7 -50 -10 -49 -9 -76 -17 -115 -33 -15 -7 -39 -15 -52 -18 -14 -3 -25 -9 -25 -13 0 -4 -6 -8 -12 -8 -13 0 -134 -70 -163 -94 -44 -38 -114 -109 -147 -149 -35 -43 -128 -194 -133 -215 -2 -10 -7 -24 -32 -85 -14 -33 -17 -44 -27 -88 -2 -9 -10 -37 -16 -62 -7 -25 -14 -61 -16 -80 -2 -19 -6 -47 -9 -63 -3 -15 -8 -73 -11 -130 -10 -183 -23 -387 -30 -477 -13 -151 -3 -331 22 -410 3 -8 5 -17 6 -20 0 -7 28 -80 45 -120 34 -76 106 -189 151 -236 6 -7 12 -18 12 -25 0 -7 3 -10 6 -6 3 3 20 -10 37 -30 17 -20 61 -57 97 -84 36 -27 70 -53 75 -57 16 -13 178 -93 195 -96 8 -2 22 -6 30 -9 81 -33 240 -56 389 -58 l54 -1 -29 -24 c-16 -13 -33 -23 -37 -24 -4 0 -35 -18 -68 -40 -33 -22 -63 -40 -65 -40 -5 0 -65 -41 -74 -50 -3 -3 -18 -14 -35 -24 -49 -31 -230 -169 -233 -178 -2 -4 -8 -8 -13 -8 -6 0 -20 -10 -33 -22 -13 -13 -45 -41 -72 -63 -159 -132 -421 -399 -542 -554 -15 -19 -32 -39 -37 -45 -15 -15 -115 -148 -145 -191 -14 -20 -30 -42 -35 -48 -11 -12 -42 -59 -60 -89 -5 -9 -41 -68 -79 -130 -113 -184 -256 -483 -318 -663 -12 -33 -25 -71 -31 -85 -11 -27 -14 -35 -21 -65 -2 -11 -10 -33 -16 -50 -6 -16 -13 -37 -15 -46 -2 -8 -11 -40 -20 -70 -9 -30 -19 -65 -22 -79 -10 -48 -11 -55 -13 -55 -1 0 -3 -8 -5 -19 -2 -10 -9 -41 -16 -70 -7 -28 -14 -60 -15 -71 -1 -11 -3 -20 -4 -20 -2 0 -6 -21 -14 -70 -6 -36 -10 -63 -21 -120 -2 -11 -4 -20 -5 -20 -1 0 -3 -18 -5 -40 -3 -21 -7 -55 -10 -75 -10 -55 -16 -109 -20 -180 -2 -36 -5 -65 -5 -65 -4 0 -10 -53 -16 -140 -3 -55 -8 -120 -10 -145 -2 -25 -7 -367 -10 -760 -5 -622 -4 -713 8 -700 8 8 64 78 124 155 59 77 111 142 114 145 3 3 17 21 30 40 13 19 32 42 42 51 10 9 18 19 18 23 0 3 9 16 19 28 11 13 39 49 64 80 l44 58 13 -58 c7 -31 19 -69 26 -83 7 -15 11 -28 9 -31 -3 -2 7 -35 21 -74 14 -38 27 -73 28 -79 4 -22 72 -184 108 -258 21 -43 38 -80 38 -83 0 -3 9 -18 20 -34 11 -15 17 -29 14 -32 -2 -3 2 -11 11 -18 8 -7 15 -17 15 -24 0 -17 120 -126 139 -126 9 0 22 -5 27 -10 6 -6 44 -11 85 -12 109 -1 184 36 232 111 28 47 32 140 7 217 -14 47 -91 233 -140 339 -31 68 -138 418 -155 510 -2 11 -6 31 -9 45 -13 68 -26 139 -31 170 -3 19 -8 48 -11 64 -4 23 6 43 58 110 82 106 90 116 110 138 10 10 15 18 10 18 -4 0 -2 4 3 8 11 8 40 44 226 282 67 85 135 172 153 194 17 21 35 46 40 55 5 9 12 18 15 21 8 6 127 157 224 282 38 49 71 88 75 88 5 0 -21 -84 -56 -188 -34 -103 -64 -196 -66 -207 -2 -11 -8 -31 -14 -45 -12 -29 -24 -61 -28 -75 -1 -5 -28 -86 -59 -180 -31 -93 -58 -178 -60 -188 -2 -9 -7 -23 -12 -30 -4 -6 -8 -16 -9 -22 -1 -5 -23 -73 -49 -150 -26 -77 -48 -144 -49 -150 -2 -5 -6 -17 -9 -25 -15 -37 -49 -147 -53 -170 -4 -21 -2 -23 9 -10 7 8 21 21 32 28 107 68 139 89 149 98 6 6 16 13 21 15 8 3 166 94 225 129 24 14 310 160 315 160 2 1 20 7 39 15 20 8 39 15 44 15 4 0 13 5 20 12 6 6 17 13 24 14 7 1 67 24 133 51 66 27 122 50 125 51 8 1 29 9 110 37 41 15 80 28 85 29 6 1 44 13 85 26 41 13 80 25 85 26 6 1 37 10 70 19 33 9 67 18 75 20 8 1 22 5 30 7 26 10 103 30 130 35 14 2 52 11 84 19 32 9 71 17 85 19 14 2 37 7 51 10 14 3 40 8 59 11 18 3 43 8 55 10 27 6 82 15 110 18 11 2 37 6 56 10 19 3 47 8 62 10 15 3 32 7 37 10 5 4 13 2 16 -4 4 -7 11 -7 18 -2 7 5 19 10 27 10 8 0 33 3 55 5 47 6 167 19 210 23 17 1 30 3 30 3 0 1 50 5 110 8 238 14 768 7 905 -12 19 -3 68 -7 108 -10 40 -2 77 -7 81 -9 4 -3 25 -6 47 -7 21 -1 43 -5 49 -8 5 -3 23 -6 40 -6 16 -1 59 -7 95 -14 36 -7 75 -14 88 -16 12 -2 30 -6 40 -9 9 -3 33 -7 52 -10 19 -3 50 -10 68 -15 17 -5 32 -8 32 -5 0 3 8 0 18 -5 9 -5 31 -11 47 -14 17 -3 45 -10 63 -16 18 -5 34 -10 37 -11 3 0 10 -2 17 -4 245 -70 376 -90 593 -90 107 0 240 8 240 14 0 0 16 3 35 5 19 3 46 7 60 10 14 3 35 8 47 11 12 2 33 8 45 13 13 5 28 9 33 10 22 3 135 43 171 61 21 11 44 20 51 20 7 0 13 5 13 10 0 6 6 10 13 10 43 0 360 244 341 262 -2 3 6 10 19 17 20 11 90 101 111 143 10 20 28 24 25 5 -2 -10 6 -71 17 -132 8 -41 18 -152 19 -197 0 -27 2 -48 5 -48 12 0 0 -499 -15 -610 -2 -19 -7 -60 -11 -90 -21 -175 -33 -260 -39 -280 -2 -8 -7 -32 -11 -54 -8 -53 -10 -65 -22 -111 -6 -22 -13 -56 -17 -75 -6 -38 -12 -63 -15 -67 -3 -3 -3 -5 -14 -53 -10 -43 -64 -230 -73 -250 -3 -8 -7 -21 -9 -29 -2 -12 -26 -77 -60 -161 -48 -121 6 -268 116 -317 74 -33 197 -21 276 28 38 23 102 94 118 129 6 14 13 27 16 30 12 10 138 414 154 490 4 20 28 120 35 145 0 3 2 8 2 13 1 4 2 12 3 17 1 6 6 33 11 60 10 54 11 61 15 73 1 4 2 10 1 15 -1 4 4 28 10 55 10 44 15 83 24 172 2 19 4 35 5 35 1 0 4 20 6 45 2 25 6 61 8 80 21 202 29 688 13 845 -5 44 -10 96 -12 115 -2 19 -4 35 -5 35 -1 0 -3 16 -5 35 -4 40 -8 65 -35 205 -10 55 -21 111 -24 125 -2 14 -9 37 -15 53 -6 15 -9 27 -7 27 3 0 -6 34 -19 75 -12 41 -21 75 -19 75 3 0 -2 13 -11 30 -8 16 -15 32 -15 35 0 3 0 6 -1 8 0 1 -2 10 -5 20 -7 29 -11 41 -17 57 -4 8 -22 59 -42 113 -19 54 -42 111 -50 126 -8 16 -11 31 -8 35 4 3 2 6 -4 6 -6 0 -14 11 -17 24 -11 43 -198 420 -217 436 -3 3 -20 32 -39 65 -46 82 -246 378 -270 400 -11 10 -20 22 -20 27 0 5 -13 22 -30 38 -16 16 -30 32 -30 36 0 4 -16 25 -36 48 -198 223 -339 365 -505 506 -115 99 -118 101 -214 173 -49 37 -95 71 -101 76 -18 15 -225 151 -229 151 -2 0 -40 22 -84 50 -45 27 -81 46 -81 43 0 -3 -8 1 -17 9 -17 15 -263 138 -276 138 -3 0 -34 13 -69 29 -73 33 -220 91 -240 95 -7 1 -21 6 -30 11 -16 9 -15 15 5 75 12 36 27 68 32 72 6 4 7 8 4 8 -4 0 0 26 8 58 7 31 16 73 18 92 3 19 7 42 10 50 30 104 25 374 -10 550 -3 14 -7 36 -10 49 -7 35 -34 133 -44 156 -5 11 -19 46 -31 78 -74 191 -204 384 -360 534 -97 93 -99 95 -140 123 -19 13 -37 27 -40 31 -5 6 -69 48 -125 81 -44 27 -165 87 -165 83 0 -2 -25 7 -56 21 -46 20 -157 56 -244 79 -144 39 -298 62 -428 64 -33 1 -51 5 -47 11 3 6 2 10 -3 10 -8 0 -7 47 2 135 4 35 9 61 20 100 2 6 6 24 10 40 8 31 18 65 32 100 4 11 8 25 9 30 6 23 56 142 102 243 8 19 13 34 11 35 -1 1 -16 10 -33 20 -16 10 -38 21 -47 24 -10 3 -18 10 -18 15 0 5 -4 6 -10 3 -5 -3 -10 -1 -10 4 0 6 -7 11 -15 11 -8 0 -15 4 -15 9 0 5 -8 11 -17 14 -10 4 -40 20 -68 37 -27 17 -57 33 -65 37 -8 3 -22 12 -30 18 -8 7 -40 26 -71 43 l-57 31 -16 -22z m-1376 -1501 c41 -3 129 -8 195 -11 66 -3 129 -8 140 -10 11 -2 32 -4 47 -4 l27 -1 -26 -57 c-24 -57 -66 -160 -69 -175 -1 -5 -3 -10 -4 -13 -1 -3 -3 -8 -4 -12 -2 -5 -10 -34 -20 -65 l-17 -57 -100 2 c-54 1 -99 4 -99 7 0 3 -24 5 -54 5 -30 0 -56 -2 -59 -5 -5 -5 -13 -112 -23 -310 -3 -52 -7 -101 -9 -107 -4 -13 4 -14 123 -16 17 0 32 -3 32 -6 0 -3 24 -6 52 -6 l53 0 0 -45 c0 -25 -3 -55 -7 -67 -4 -13 -4 -23 0 -23 4 0 7 -48 8 -108 1 -59 3 -116 5 -127 3 -16 -1 -20 -21 -19 -14 1 -72 5 -130 8 -58 3 -150 8 -205 11 -126 7 -137 9 -191 35 -47 23 -93 74 -116 130 -16 37 -17 122 -4 295 3 44 9 118 12 165 3 47 7 108 9 135 2 28 6 93 9 145 7 114 12 144 34 190 19 39 26 47 67 76 36 24 60 34 100 41 17 3 31 6 33 8 3 3 102 -1 212 -9z m1590 -1611 c19 -10 46 -31 60 -48 14 -17 37 -43 53 -59 15 -16 27 -31 27 -34 0 -2 13 -19 29 -37 16 -17 39 -43 50 -57 11 -14 31 -35 43 -47 12 -13 20 -23 16 -23 -3 0 8 -15 26 -34 17 -18 49 -55 71 -81 22 -26 45 -53 50 -59 6 -6 44 -51 85 -101 41 -49 77 -92 80 -95 3 -3 35 -41 70 -85 36 -43 77 -92 93 -107 15 -15 27 -30 27 -33 0 -3 10 -17 23 -30 12 -13 36 -41 54 -62 17 -21 48 -59 70 -84 21 -25 58 -69 83 -99 25 -29 50 -58 55 -64 6 -6 30 -36 55 -66 48 -60 74 -90 114 -133 14 -15 26 -32 26 -37 0 -4 3 -10 8 -12 4 -1 28 -28 52 -58 25 -30 54 -64 65 -76 11 -11 36 -40 55 -64 34 -43 100 -120 110 -130 3 -3 25 -30 50 -60 25 -30 53 -64 64 -75 32 -35 58 -103 55 -148 -8 -111 -104 -192 -219 -183 -66 5 -109 31 -165 98 -55 67 -106 126 -147 171 l-26 30 -59 -47 c-91 -74 -107 -86 -178 -141 -15 -11 -34 -27 -43 -35 -10 -8 -45 -35 -77 -60 -33 -25 -62 -47 -65 -50 -3 -3 -36 -30 -75 -60 -38 -30 -71 -58 -73 -62 -2 -5 -10 -8 -18 -8 -8 0 -14 -4 -14 -8 0 -10 -84 -72 -120 -89 -61 -30 -149 -7 -193 50 -14 18 -33 41 -43 52 -11 11 -44 49 -74 85 -30 36 -61 73 -70 82 -8 9 -19 23 -25 30 -5 7 -34 41 -63 76 -30 34 -51 62 -47 62 4 0 2 6 -4 14 -12 14 -15 49 -8 81 3 11 6 25 6 31 1 11 25 38 62 69 56 47 87 71 119 95 19 14 48 37 64 51 17 14 72 56 121 94 50 39 95 74 101 80 6 5 54 44 108 85 54 41 110 85 124 97 15 13 31 23 36 23 7 0 -52 75 -103 132 -9 9 -21 23 -26 30 -17 22 -109 132 -131 156 l-21 24 -101 -81 c-56 -45 -106 -81 -112 -81 -5 0 -10 -4 -10 -8 0 -5 -19 -22 -42 -39 -24 -17 -52 -40 -63 -50 -40 -38 -113 -51 -166 -29 -41 17 -132 117 -153 167 -18 45 -12 93 15 132 12 18 60 61 107 97 47 36 96 75 109 88 13 12 28 22 33 22 4 0 10 3 12 8 2 4 23 23 48 42 61 46 62 51 34 77 -13 12 -24 25 -24 28 0 4 -6 12 -12 19 -7 7 -29 32 -48 55 -19 23 -44 52 -55 65 -11 12 -38 44 -60 70 -22 27 -44 54 -50 60 -137 152 -159 210 -117 316 17 44 118 120 140 106 4 -3 14 -1 21 3 17 11 78 -1 121 -24z" transform="translate(0.000000,1024.000000) scale(0.100000,-0.100000)"/><path d="M4305 1850 c-73 -17 -161 -76 -210 -141 -61 -80 -81 -232 -44 -330 24 -62 73 -130 121 -166 35 -26 78 -47 91 -45 4 1 7 -2 7 -6 0 -7 24 -12 68 -15 6 0 12 -4 12 -9 0 -5 4 -6 10 -3 5 3 36 8 68 10 117 8 228 87 284 202 25 53 32 79 33 142 1 42 -2 87 -7 101 -28 71 -52 120 -60 120 -4 0 -8 7 -8 15 0 8 -3 15 -7 15 -5 0 -24 15 -43 33 -19 18 -51 39 -70 47 -19 7 -41 18 -47 23 -16 12 -158 17 -198 7z" transform="translate(0.000000,1024.000000) scale(0.100000,-0.100000)"/><path d="M6286 1853 c-4 -4 -16 -8 -28 -10 -68 -10 -166 -92 -212 -176 -84 -154 -35 -361 109 -459 52 -35 107 -58 153 -62 20 -3 39 -5 42 -6 3 -1 10 -1 15 0 6 1 28 4 51 5 92 6 218 95 265 187 21 41 46 141 43 173 -4 46 -15 98 -24 116 -6 10 -8 19 -5 19 8 0 -24 49 -68 103 -21 26 -45 47 -53 47 -8 0 -14 4 -14 9 0 20 -115 55 -191 57 -42 2 -80 0 -83 -3z" transform="translate(0.000000,1024.000000) scale(0.100000,-0.100000)"/></g></svg>