<svg xmlns="http://www.w3.org/2000/svg" fill="currentColor" viewBox="0 0 700 1000"><path d="M27.466 154.673c1.562.146 3.1.268 4.614.366 1.563.049 3.076.073 4.541.073 12.012 0 20.8-2.685 26.367-8.056 5.615-5.371 8.423-13.843 8.423-25.415 0-11.621-2.808-20.069-8.423-25.342-5.615-5.322-14.6-7.984-26.953-7.984-2.295 0-4.053.025-5.273.074-1.172.049-2.27.146-3.296.293v65.991zm0 10.327H12.598c-1.807 0-3.174-.439-4.102-1.318-.879-.879-1.318-2.198-1.318-3.955 0-1.905.512-3.223 1.538-3.956 1.074-.732 3.076-1.098 6.006-1.098h1.318V88.682h-1.172c-2.93 0-4.956-.391-6.079-1.172-1.074-.782-1.611-2.149-1.611-4.102 0-1.806.44-3.125 1.318-3.955.928-.879 2.344-1.318 4.248-1.318h30.908c12.158 0 21.85 3.93 29.078 11.792 7.226 7.812 10.84 18.384 10.84 31.714 0 6.494-1.05 12.524-3.15 18.09-2.05 5.567-5.054 10.45-9.009 14.649-3.662 3.808-8.13 6.592-13.403 8.349-5.225 1.709-11.963 2.564-20.215 2.564-.977 0-2.637-.049-4.98-.147-2.295-.097-4.078-.146-5.347-.146zM174.683 121.494c0 13.379-3.711 24.365-11.133 32.959-7.422 8.545-16.919 12.818-28.491 12.818-11.475 0-20.948-4.297-28.418-12.891-7.422-8.594-11.133-19.556-11.133-32.886 0-13.476 3.686-24.463 11.059-32.959 7.373-8.545 16.871-12.817 28.492-12.817 11.572 0 21.069 4.297 28.491 12.89 7.422 8.594 11.133 19.556 11.133 32.886zm-39.624 35.376c8.203 0 14.648-3.125 19.336-9.375 4.736-6.299 7.104-14.966 7.104-26.001 0-11.035-2.368-19.678-7.104-25.928-4.688-6.298-11.133-9.448-19.336-9.448-8.252 0-14.722 3.125-19.41 9.375-4.638 6.201-6.958 14.868-6.958 26.001 0 11.035 2.344 19.702 7.032 26.001 4.736 6.25 11.181 9.375 19.336 9.375zM248.291 80.552c.488-1.319 1.172-2.246 2.051-2.783.879-.538 2.148-.806 3.808-.806 1.807 0 3.077.44 3.809 1.318.732.88 1.099 2.686 1.099 5.42 0 4.785.048 9.253.146 13.404.098 4.101.147 5.883.147 5.346 0 2.295-.391 3.858-1.172 4.688-.782.781-2.173 1.172-4.175 1.172-3.223 0-5.322-2.295-6.299-6.885-.342-1.367-.61-2.417-.806-3.15-.927-3.662-3.149-6.64-6.665-8.935-3.515-2.344-7.641-3.516-12.378-3.516-8.642 0-15.576 3.174-20.8 9.522-5.225 6.299-7.837 14.77-7.837 25.415 0 10.644 2.636 19.14 7.91 25.488 5.322 6.299 12.329 9.448 21.02 9.448 2.832 0 5.713-.39 8.643-1.172 2.93-.83 5.811-2.05 8.643-3.662 1.318-.683 3.125-1.831 5.419-3.442 2.295-1.66 3.931-2.49 4.908-2.49 1.513 0 2.783.512 3.808 1.538 1.075.976 1.612 2.197 1.612 3.662 0 1.465-.586 2.881-1.758 4.248-1.123 1.318-3.247 2.954-6.372 4.907-4.102 2.686-8.228 4.663-12.378 5.933-4.151 1.269-8.521 1.904-13.111 1.904-12.06 0-22.021-4.248-29.882-12.744-7.862-8.545-11.792-19.458-11.792-32.739 0-13.135 3.979-24.048 11.938-32.74 7.959-8.691 17.969-13.037 30.029-13.037 3.223 0 6.495.39 9.815 1.172 3.369.781 6.909 1.953 10.62 3.516zM293.848 162.437c-.244 2.197-.806 3.71-1.685 4.541-.879.878-2.27 1.318-4.175 1.318-2.05 0-3.589-.61-4.614-1.831-.977-1.172-1.538-3.101-1.685-5.786l-.952-16.992v-1.319c0-2.344.44-4.004 1.319-4.98.927-.977 2.441-1.465 4.541-1.465 2.929 0 5.029 2.099 6.299 6.299.585 2.099 1.147 3.686 1.684 4.76 1.709 3.418 4.395 6.055 8.057 7.911 3.711 1.855 8.13 2.783 13.257 2.783 6.298 0 11.401-1.489 15.307-4.468 3.955-2.979 5.933-6.787 5.933-11.426 0-3.857-1.221-6.958-3.662-9.302-2.393-2.343-5.909-3.857-10.547-4.541l-10.84-1.464c-10.107-1.416-17.481-4.078-22.119-7.984-4.639-3.906-6.958-9.399-6.958-16.479 0-7.471 3.076-13.745 9.228-18.823 6.202-5.079 13.916-7.618 23.145-7.618 2.685 0 5.517.367 8.496 1.099 2.978.683 6.348 1.782 10.107 3.296.098-1.416.489-2.393 1.172-2.93.684-.537 1.856-.805 3.516-.805 2.148 0 3.638.317 4.468.952.83.634 1.342 2.148 1.538 4.54l1.025 15.308v.733c0 1.709-.488 3.051-1.465 4.028-.976.928-2.343 1.392-4.101 1.392-2.588 0-4.59-1.807-6.006-5.42-.684-2.051-1.367-3.59-2.051-4.615-1.611-2.441-3.931-4.32-6.958-5.64-3.027-1.318-6.47-1.977-10.327-1.977-5.908 0-10.718 1.465-14.429 4.395-3.662 2.93-5.493 6.762-5.493 11.499 0 3.711 1.367 6.64 4.102 8.789 2.783 2.148 7.006 3.613 12.671 4.394l11.718 1.465c8.496 1.123 14.893 3.736 19.19 7.837 4.297 4.053 6.445 9.546 6.445 16.48 0 8.203-3.052 14.795-9.155 19.775-6.104 4.932-14.258 7.397-24.463 7.397-3.516 0-7.007-.415-10.474-1.245-3.467-.83-7.153-2.124-11.059-3.881z"/><path d="M27.466 154.673c1.562.146 3.1.268 4.614.366 1.563.049 3.076.073 4.541.073 12.012 0 20.8-2.685 26.367-8.056 5.615-5.371 8.423-13.843 8.423-25.415 0-11.621-2.808-20.069-8.423-25.342-5.615-5.322-14.6-7.984-26.953-7.984-2.295 0-4.053.025-5.273.074-1.172.049-2.27.146-3.296.293v65.991zm0 10.327H12.598c-1.807 0-3.174-.439-4.102-1.318-.879-.879-1.318-2.198-1.318-3.955 0-1.905.512-3.223 1.538-3.956 1.074-.732 3.076-1.098 6.006-1.098h1.318V88.682h-1.172c-2.93 0-4.956-.391-6.079-1.172-1.074-.782-1.611-2.149-1.611-4.102 0-1.806.44-3.125 1.318-3.955.928-.879 2.344-1.318 4.248-1.318h30.908c12.158 0 21.85 3.93 29.078 11.792 7.226 7.812 10.84 18.384 10.84 31.714 0 6.494-1.05 12.524-3.15 18.09-2.05 5.567-5.054 10.45-9.009 14.649-3.662 3.808-8.13 6.592-13.403 8.349-5.225 1.709-11.963 2.564-20.215 2.564-.977 0-2.637-.049-4.98-.147-2.295-.097-4.078-.146-5.347-.146zM174.683 121.494c0 13.379-3.711 24.365-11.133 32.959-7.422 8.545-16.919 12.818-28.491 12.818-11.475 0-20.948-4.297-28.418-12.891-7.422-8.594-11.133-19.556-11.133-32.886 0-13.476 3.686-24.463 11.059-32.959 7.373-8.545 16.871-12.817 28.492-12.817 11.572 0 21.069 4.297 28.491 12.89 7.422 8.594 11.133 19.556 11.133 32.886zm-39.624 35.376c8.203 0 14.648-3.125 19.336-9.375 4.736-6.299 7.104-14.966 7.104-26.001 0-11.035-2.368-19.678-7.104-25.928-4.688-6.298-11.133-9.448-19.336-9.448-8.252 0-14.722 3.125-19.41 9.375-4.638 6.201-6.958 14.868-6.958 26.001 0 11.035 2.344 19.702 7.032 26.001 4.736 6.25 11.181 9.375 19.336 9.375zM248.291 80.552c.488-1.319 1.172-2.246 2.051-2.783.879-.538 2.148-.806 3.808-.806 1.807 0 3.077.44 3.809 1.318.732.88 1.099 2.686 1.099 5.42 0 4.785.048 9.253.146 13.404.098 4.101.147 5.883.147 5.346 0 2.295-.391 3.858-1.172 4.688-.782.781-2.173 1.172-4.175 1.172-3.223 0-5.322-2.295-6.299-6.885-.342-1.367-.61-2.417-.806-3.15-.927-3.662-3.149-6.64-6.665-8.935-3.515-2.344-7.641-3.516-12.378-3.516-8.642 0-15.576 3.174-20.8 9.522-5.225 6.299-7.837 14.77-7.837 25.415 0 10.644 2.636 19.14 7.91 25.488 5.322 6.299 12.329 9.448 21.02 9.448 2.832 0 5.713-.39 8.643-1.172 2.93-.83 5.811-2.05 8.643-3.662 1.318-.683 3.125-1.831 5.419-3.442 2.295-1.66 3.931-2.49 4.908-2.49 1.513 0 2.783.512 3.808 1.538 1.075.976 1.612 2.197 1.612 3.662 0 1.465-.586 2.881-1.758 4.248-1.123 1.318-3.247 2.954-6.372 4.907-4.102 2.686-8.228 4.663-12.378 5.933-4.151 1.269-8.521 1.904-13.111 1.904-12.06 0-22.021-4.248-29.882-12.744-7.862-8.545-11.792-19.458-11.792-32.739 0-13.135 3.979-24.048 11.938-32.74 7.959-8.691 17.969-13.037 30.029-13.037 3.223 0 6.495.39 9.815 1.172 3.369.781 6.909 1.953 10.62 3.516zM293.848 162.437c-.244 2.197-.806 3.71-1.685 4.541-.879.878-2.27 1.318-4.175 1.318-2.05 0-3.589-.61-4.614-1.831-.977-1.172-1.538-3.101-1.685-5.786l-.952-16.992v-1.319c0-2.344.44-4.004 1.319-4.98.927-.977 2.441-1.465 4.541-1.465 2.929 0 5.029 2.099 6.299 6.299.585 2.099 1.147 3.686 1.684 4.76 1.709 3.418 4.395 6.055 8.057 7.911 3.711 1.855 8.13 2.783 13.257 2.783 6.298 0 11.401-1.489 15.307-4.468 3.955-2.979 5.933-6.787 5.933-11.426 0-3.857-1.221-6.958-3.662-9.302-2.393-2.343-5.909-3.857-10.547-4.541l-10.84-1.464c-10.107-1.416-17.481-4.078-22.119-7.984-4.639-3.906-6.958-9.399-6.958-16.479 0-7.471 3.076-13.745 9.228-18.823 6.202-5.079 13.916-7.618 23.145-7.618 2.685 0 5.517.367 8.496 1.099 2.978.683 6.348 1.782 10.107 3.296.098-1.416.489-2.393 1.172-2.93.684-.537 1.856-.805 3.516-.805 2.148 0 3.638.317 4.468.952.83.634 1.342 2.148 1.538 4.54l1.025 15.308v.733c0 1.709-.488 3.051-1.465 4.028-.976.928-2.343 1.392-4.101 1.392-2.588 0-4.59-1.807-6.006-5.42-.684-2.051-1.367-3.59-2.051-4.615-1.611-2.441-3.931-4.32-6.958-5.64-3.027-1.318-6.47-1.977-10.327-1.977-5.908 0-10.718 1.465-14.429 4.395-3.662 2.93-5.493 6.762-5.493 11.499 0 3.711 1.367 6.64 4.102 8.789 2.783 2.148 7.006 3.613 12.671 4.394l11.718 1.465c8.496 1.123 14.893 3.736 19.19 7.837 4.297 4.053 6.445 9.546 6.445 16.48 0 8.203-3.052 14.795-9.155 19.775-6.104 4.932-14.258 7.397-24.463 7.397-3.516 0-7.007-.415-10.474-1.245-3.467-.83-7.153-2.124-11.059-3.881zM197.29 330.673c1.563.146 3.101.268 4.614.366 1.563.049 3.076.073 4.541.073 12.012 0 20.801-2.685 26.367-8.056 5.616-5.371 8.423-13.843 8.423-25.415 0-11.621-2.807-20.069-8.423-25.342-5.615-5.322-14.599-7.984-26.953-7.984-2.295 0-4.052.025-5.273.074a32.98 32.98 0 00-3.296.293v65.991zm0 10.327H182.422c-1.807 0-3.174-.439-4.102-1.318-.879-.879-1.318-2.198-1.318-3.955 0-1.905.513-3.223 1.538-3.956 1.074-.732 3.076-1.098 6.006-1.098h1.318v-65.991h-1.172c-2.929 0-4.956-.391-6.079-1.172-1.074-.781-1.611-2.149-1.611-4.102 0-1.806.439-3.125 1.318-3.955.928-.879 2.344-1.318 4.248-1.318h30.909c12.158 0 21.85 3.93 29.077 11.792 7.226 7.812 10.84 18.384 10.84 31.714 0 6.494-1.05 12.524-3.15 18.09-2.051 5.567-5.054 10.45-9.009 14.649-3.662 3.808-8.13 6.592-13.403 8.349-5.225 1.709-11.963 2.564-20.215 2.564-.976 0-2.637-.049-4.98-.147-2.295-.097-4.077-.146-5.347-.146zM344.507 297.494c0 13.379-3.711 24.365-11.133 32.959-7.422 8.545-16.919 12.818-28.491 12.818-11.475 0-20.947-4.297-28.418-12.891-7.422-8.594-11.133-19.556-11.133-32.886 0-13.476 3.687-24.463 11.06-32.959 7.373-8.545 16.87-12.817 28.491-12.817 11.572 0 21.069 4.297 28.491 12.89 7.422 8.594 11.133 19.556 11.133 32.886zm-39.624 35.376c8.203 0 14.648-3.125 19.336-9.375 4.736-6.299 7.104-14.966 7.104-26.001 0-11.035-2.368-19.678-7.104-25.928-4.688-6.298-11.133-9.448-19.336-9.448-8.252 0-14.722 3.125-19.409 9.375-4.639 6.201-6.958 14.868-6.958 26.001 0 11.035 2.343 19.702 7.031 26.001 4.736 6.25 11.182 9.375 19.336 9.375zM418.115 256.552c.489-1.319 1.172-2.246 2.051-2.783.879-.538 2.148-.806 3.809-.806 1.806 0 3.076.439 3.808 1.318.733.879 1.099 2.686 1.099 5.42 0 4.785.049 9.253.146 13.403.098 4.102.147 5.884.147 5.347 0 2.295-.391 3.858-1.172 4.688-.781.781-2.173 1.172-4.175 1.172-3.223 0-5.322-2.295-6.299-6.885-.341-1.367-.61-2.417-.805-3.15-.928-3.662-3.15-6.64-6.665-8.935-3.516-2.344-7.642-3.516-12.378-3.516-8.643 0-15.577 3.174-20.801 9.522-5.225 6.299-7.837 14.77-7.837 25.415 0 10.644 2.637 19.14 7.91 25.488 5.322 6.299 12.329 9.448 21.021 9.448 2.832 0 5.713-.39 8.642-1.172 2.93-.83 5.811-2.05 8.643-3.662 1.318-.683 3.125-1.831 5.42-3.442 2.295-1.66 3.93-2.49 4.907-2.49 1.514 0 2.783.512 3.809 1.538 1.074.976 1.611 2.197 1.611 3.662 0 1.465-.586 2.881-1.758 4.248-1.123 1.318-3.247 2.954-6.372 4.907-4.102 2.686-8.228 4.663-12.378 5.933-4.15 1.269-8.52 1.904-13.11 1.904-12.061 0-22.022-4.248-29.883-12.744-7.861-8.545-11.792-19.458-11.792-32.739 0-13.135 3.979-24.048 11.938-32.74 7.959-8.691 17.969-13.037 30.03-13.037 3.222 0 6.494.391 9.814 1.172 3.369.781 6.909 1.953 10.62 3.516zM463.672 338.437c-.244 2.197-.806 3.71-1.685 4.541-.879.878-2.27 1.318-4.175 1.318-2.05 0-3.588-.61-4.614-1.831-.976-1.172-1.538-3.101-1.684-5.786l-.952-16.992v-1.319c0-2.344.439-4.004 1.318-4.98.928-.977 2.441-1.465 4.541-1.465 2.93 0 5.029 2.099 6.299 6.299.586 2.099 1.147 3.686 1.684 4.76 1.709 3.418 4.395 6.055 8.057 7.911 3.711 1.855 8.13 2.783 13.257 2.783 6.299 0 11.401-1.489 15.307-4.468 3.955-2.979 5.933-6.787 5.933-11.426 0-3.857-1.221-6.958-3.662-9.302-2.393-2.343-5.908-3.857-10.547-4.541l-10.84-1.464c-10.107-1.416-17.48-4.078-22.119-7.984-4.639-3.906-6.958-9.399-6.958-16.479 0-7.471 3.076-13.745 9.229-18.824 6.201-5.078 13.916-7.617 23.144-7.617 2.686 0 5.518.367 8.496 1.099 2.979.684 6.348 1.782 10.108 3.296.097-1.416.488-2.393 1.171-2.93.684-.537 1.856-.806 3.516-.806 2.149 0 3.638.318 4.468.953.83.634 1.343 2.148 1.538 4.541l1.025 15.307v.733c0 1.709-.488 3.051-1.465 4.028-.976.928-2.343 1.392-4.101 1.392-2.588 0-4.59-1.807-6.006-5.42-.684-2.051-1.367-3.589-2.051-4.615-1.611-2.441-3.93-4.321-6.958-5.639-3.027-1.319-6.469-1.978-10.327-1.978-5.908 0-10.718 1.465-14.429 4.395-3.662 2.929-5.493 6.762-5.493 11.499 0 3.711 1.367 6.64 4.102 8.789 2.783 2.148 7.007 3.613 12.671 4.394l11.718 1.465c8.497 1.123 14.893 3.736 19.19 7.837 4.297 4.053 6.445 9.546 6.445 16.48 0 8.203-3.052 14.795-9.155 19.775-6.104 4.932-14.258 7.397-24.463 7.397-3.516 0-7.007-.415-10.474-1.245-3.466-.83-7.153-2.124-11.059-3.881z"/><path d="M197.29 330.673c1.563.146 3.101.268 4.614.366 1.563.049 3.076.073 4.541.073 12.012 0 20.801-2.685 26.367-8.056 5.616-5.371 8.423-13.843 8.423-25.415 0-11.621-2.807-20.069-8.423-25.342-5.615-5.322-14.599-7.984-26.953-7.984-2.295 0-4.052.025-5.273.074a32.98 32.98 0 00-3.296.293v65.991zm0 10.327H182.422c-1.807 0-3.174-.439-4.102-1.318-.879-.879-1.318-2.198-1.318-3.955 0-1.905.513-3.223 1.538-3.956 1.074-.732 3.076-1.098 6.006-1.098h1.318v-65.991h-1.172c-2.929 0-4.956-.391-6.079-1.172-1.074-.781-1.611-2.149-1.611-4.102 0-1.806.439-3.125 1.318-3.955.928-.879 2.344-1.318 4.248-1.318h30.909c12.158 0 21.85 3.93 29.077 11.792 7.226 7.812 10.84 18.384 10.84 31.714 0 6.494-1.05 12.524-3.15 18.09-2.051 5.567-5.054 10.45-9.009 14.649-3.662 3.808-8.13 6.592-13.403 8.349-5.225 1.709-11.963 2.564-20.215 2.564-.976 0-2.637-.049-4.98-.147-2.295-.097-4.077-.146-5.347-.146zM344.507 297.494c0 13.379-3.711 24.365-11.133 32.959-7.422 8.545-16.919 12.818-28.491 12.818-11.475 0-20.947-4.297-28.418-12.891-7.422-8.594-11.133-19.556-11.133-32.886 0-13.476 3.687-24.463 11.06-32.959 7.373-8.545 16.87-12.817 28.491-12.817 11.572 0 21.069 4.297 28.491 12.89 7.422 8.594 11.133 19.556 11.133 32.886zm-39.624 35.376c8.203 0 14.648-3.125 19.336-9.375 4.736-6.299 7.104-14.966 7.104-26.001 0-11.035-2.368-19.678-7.104-25.928-4.688-6.298-11.133-9.448-19.336-9.448-8.252 0-14.722 3.125-19.409 9.375-4.639 6.201-6.958 14.868-6.958 26.001 0 11.035 2.343 19.702 7.031 26.001 4.736 6.25 11.182 9.375 19.336 9.375zM418.115 256.552c.489-1.319 1.172-2.246 2.051-2.783.879-.538 2.148-.806 3.809-.806 1.806 0 3.076.439 3.808 1.318.733.879 1.099 2.686 1.099 5.42 0 4.785.049 9.253.146 13.403.098 4.102.147 5.884.147 5.347 0 2.295-.391 3.858-1.172 4.688-.781.781-2.173 1.172-4.175 1.172-3.223 0-5.322-2.295-6.299-6.885-.341-1.367-.61-2.417-.805-3.15-.928-3.662-3.15-6.64-6.665-8.935-3.516-2.344-7.642-3.516-12.378-3.516-8.643 0-15.577 3.174-20.801 9.522-5.225 6.299-7.837 14.77-7.837 25.415 0 10.644 2.637 19.14 7.91 25.488 5.322 6.299 12.329 9.448 21.021 9.448 2.832 0 5.713-.39 8.642-1.172 2.93-.83 5.811-2.05 8.643-3.662 1.318-.683 3.125-1.831 5.42-3.442 2.295-1.66 3.93-2.49 4.907-2.49 1.514 0 2.783.512 3.809 1.538 1.074.976 1.611 2.197 1.611 3.662 0 1.465-.586 2.881-1.758 4.248-1.123 1.318-3.247 2.954-6.372 4.907-4.102 2.686-8.228 4.663-12.378 5.933-4.15 1.269-8.52 1.904-13.11 1.904-12.061 0-22.022-4.248-29.883-12.744-7.861-8.545-11.792-19.458-11.792-32.739 0-13.135 3.979-24.048 11.938-32.74 7.959-8.691 17.969-13.037 30.03-13.037 3.222 0 6.494.391 9.814 1.172 3.369.781 6.909 1.953 10.62 3.516zM463.672 338.437c-.244 2.197-.806 3.71-1.685 4.541-.879.878-2.27 1.318-4.175 1.318-2.05 0-3.588-.61-4.614-1.831-.976-1.172-1.538-3.101-1.684-5.786l-.952-16.992v-1.319c0-2.344.439-4.004 1.318-4.98.928-.977 2.441-1.465 4.541-1.465 2.93 0 5.029 2.099 6.299 6.299.586 2.099 1.147 3.686 1.684 4.76 1.709 3.418 4.395 6.055 8.057 7.911 3.711 1.855 8.13 2.783 13.257 2.783 6.299 0 11.401-1.489 15.307-4.468 3.955-2.979 5.933-6.787 5.933-11.426 0-3.857-1.221-6.958-3.662-9.302-2.393-2.343-5.908-3.857-10.547-4.541l-10.84-1.464c-10.107-1.416-17.48-4.078-22.119-7.984-4.639-3.906-6.958-9.399-6.958-16.479 0-7.471 3.076-13.745 9.229-18.824 6.201-5.078 13.916-7.617 23.144-7.617 2.686 0 5.518.367 8.496 1.099 2.979.684 6.348 1.782 10.108 3.296.097-1.416.488-2.393 1.171-2.93.684-.537 1.856-.806 3.516-.806 2.149 0 3.638.318 4.468.953.83.634 1.343 2.148 1.538 4.541l1.025 15.307v.733c0 1.709-.488 3.051-1.465 4.028-.976.928-2.343 1.392-4.101 1.392-2.588 0-4.59-1.807-6.006-5.42-.684-2.051-1.367-3.589-2.051-4.615-1.611-2.441-3.93-4.321-6.958-5.639-3.027-1.319-6.469-1.978-10.327-1.978-5.908 0-10.718 1.465-14.429 4.395-3.662 2.929-5.493 6.762-5.493 11.499 0 3.711 1.367 6.64 4.102 8.789 2.783 2.148 7.007 3.613 12.671 4.394l11.718 1.465c8.497 1.123 14.893 3.736 19.19 7.837 4.297 4.053 6.445 9.546 6.445 16.48 0 8.203-3.052 14.795-9.155 19.775-6.104 4.932-14.258 7.397-24.463 7.397-3.516 0-7.007-.415-10.474-1.245-3.466-.83-7.153-2.124-11.059-3.881zM367.114 506.673c1.563.146 3.101.268 4.615.366 1.562.049 3.076.073 4.541.073 12.011 0 20.8-2.685 26.367-8.056 5.615-5.371 8.423-13.843 8.423-25.415 0-11.621-2.808-20.069-8.423-25.342-5.616-5.322-14.6-7.984-26.953-7.984-2.295 0-4.053.025-5.274.074-1.172.049-2.27.146-3.296.293v65.991zm0 10.327H352.246c-1.807 0-3.174-.439-4.101-1.318-.879-.879-1.319-2.198-1.319-3.955 0-1.905.513-3.223 1.538-3.956 1.074-.732 3.076-1.098 6.006-1.098h1.318v-65.991h-1.171c-2.93 0-4.956-.391-6.079-1.172-1.075-.781-1.612-2.149-1.612-4.102 0-1.806.44-3.125 1.319-3.955.927-.879 2.343-1.318 4.248-1.318h30.908c12.158 0 21.85 3.93 29.077 11.792 7.226 7.812 10.84 18.384 10.84 31.714 0 6.494-1.05 12.524-3.15 18.09-2.05 5.567-5.053 10.45-9.008 14.649-3.663 3.808-8.13 6.592-13.404 8.349-5.224 1.709-11.963 2.564-20.215 2.564-.976 0-2.636-.049-4.98-.147-2.295-.097-4.077-.146-5.347-.146zM514.331 473.494c0 13.379-3.711 24.365-11.133 32.959-7.422 8.545-16.919 12.818-28.491 12.818-11.475 0-20.947-4.297-28.418-12.891-7.422-8.594-11.133-19.556-11.133-32.886 0-13.476 3.687-24.463 11.06-32.959 7.373-8.545 16.87-12.817 28.491-12.817 11.572 0 21.069 4.297 28.491 12.89 7.422 8.594 11.133 19.556 11.133 32.886zm-39.624 35.376c8.203 0 14.648-3.125 19.336-9.375 4.736-6.299 7.104-14.966 7.104-26.001 0-11.035-2.368-19.678-7.104-25.928-4.688-6.298-11.133-9.448-19.336-9.448-8.252 0-14.722 3.125-19.409 9.375-4.639 6.201-6.958 14.868-6.958 26.001 0 11.035 2.344 19.702 7.031 26.001 4.736 6.25 11.182 9.375 19.336 9.375zM587.939 432.552c.489-1.319 1.172-2.246 2.051-2.783.879-.538 2.149-.806 3.809-.806 1.806 0 3.076.439 3.808 1.318.733.879 1.099 2.686 1.099 5.42 0 4.785.049 9.253.147 13.403.097 4.102.146 5.884.146 5.347 0 2.295-.391 3.858-1.172 4.688-.781.781-2.173 1.172-4.175 1.172-3.222 0-5.322-2.295-6.298-6.885a233.566 233.566 0 00-.806-3.15c-.928-3.662-3.15-6.64-6.665-8.935-3.516-2.344-7.642-3.516-12.378-3.516-8.643 0-15.576 3.174-20.801 9.522-5.225 6.299-7.837 14.77-7.837 25.415 0 10.644 2.637 19.14 7.91 25.488 5.323 6.299 12.329 9.448 21.021 9.448 2.832 0 5.713-.39 8.642-1.172 2.93-.83 5.811-2.05 8.643-3.662 1.318-.683 3.125-1.831 5.42-3.442 2.295-1.66 3.931-2.49 4.907-2.49 1.514 0 2.783.512 3.809 1.538 1.074.976 1.611 2.197 1.611 3.662 0 1.465-.586 2.881-1.758 4.248-1.123 1.318-3.247 2.954-6.372 4.907-4.101 2.686-8.227 4.663-12.378 5.933-4.15 1.269-8.52 1.904-13.11 1.904-12.061 0-22.022-4.248-29.883-12.744-7.861-8.545-11.792-19.458-11.792-32.739 0-13.135 3.98-24.048 11.939-32.74 7.959-8.691 17.968-13.037 30.029-13.037 3.223 0 6.494.391 9.814 1.172 3.369.781 6.91 1.953 10.62 3.516zM633.496 514.437c-.244 2.197-.806 3.71-1.684 4.541-.879.878-2.271 1.318-4.175 1.318-2.051 0-3.589-.61-4.615-1.831-.976-1.172-1.538-3.101-1.684-5.786l-.952-16.992v-1.319c0-2.344.439-4.004 1.318-4.98.928-.977 2.442-1.465 4.541-1.465 2.93 0 5.029 2.099 6.299 6.299.586 2.099 1.147 3.686 1.685 4.76 1.709 3.418 4.394 6.055 8.056 7.911 3.711 1.855 8.13 2.783 13.257 2.783 6.299 0 11.401-1.489 15.308-4.468 3.955-2.979 5.932-6.787 5.932-11.426 0-3.857-1.22-6.958-3.662-9.302-2.392-2.343-5.908-3.857-10.547-4.541l-10.84-1.464c-10.107-1.416-17.48-4.078-22.119-7.984-4.638-3.906-6.958-9.399-6.958-16.479 0-7.471 3.076-13.745 9.229-18.824 6.201-5.078 13.916-7.617 23.144-7.617 2.686 0 5.518.367 8.496 1.099 2.979.684 6.348 1.782 10.108 3.296.097-1.416.488-2.393 1.172-2.93.683-.537 1.855-.806 3.515-.806 2.149 0 3.638.318 4.468.953.83.634 1.343 2.148 1.538 4.541l1.026 15.307v.733c0 1.709-.489 3.051-1.465 4.028-.977.928-2.344 1.392-4.102 1.392-2.588 0-4.59-1.807-6.006-5.42-.683-2.051-1.367-3.589-2.05-4.615-1.612-2.441-3.931-4.321-6.958-5.639-3.028-1.319-6.47-1.978-10.328-1.978-5.908 0-10.717 1.465-14.428 4.395-3.662 2.929-5.494 6.762-5.494 11.499 0 3.711 1.368 6.64 4.102 8.789 2.783 2.148 7.007 3.613 12.671 4.394l11.719 1.465c8.496 1.123 14.892 3.736 19.189 7.837 4.297 4.053 6.445 9.546 6.445 16.48 0 8.203-3.051 14.795-9.155 19.775-6.103 4.932-14.258 7.397-24.463 7.397-3.515 0-7.007-.415-10.473-1.245-3.467-.83-7.154-2.124-11.06-3.881z"/><path d="M367.114 506.673c1.563.146 3.101.268 4.615.366 1.562.049 3.076.073 4.541.073 12.011 0 20.8-2.685 26.367-8.056 5.615-5.371 8.423-13.843 8.423-25.415 0-11.621-2.808-20.069-8.423-25.342-5.616-5.322-14.6-7.984-26.953-7.984-2.295 0-4.053.025-5.274.074-1.172.049-2.27.146-3.296.293v65.991zm0 10.327H352.246c-1.807 0-3.174-.439-4.101-1.318-.879-.879-1.319-2.198-1.319-3.955 0-1.905.513-3.223 1.538-3.956 1.074-.732 3.076-1.098 6.006-1.098h1.318v-65.991h-1.171c-2.93 0-4.956-.391-6.079-1.172-1.075-.781-1.612-2.149-1.612-4.102 0-1.806.44-3.125 1.319-3.955.927-.879 2.343-1.318 4.248-1.318h30.908c12.158 0 21.85 3.93 29.077 11.792 7.226 7.812 10.84 18.384 10.84 31.714 0 6.494-1.05 12.524-3.15 18.09-2.05 5.567-5.053 10.45-9.008 14.649-3.663 3.808-8.13 6.592-13.404 8.349-5.224 1.709-11.963 2.564-20.215 2.564-.976 0-2.636-.049-4.98-.147-2.295-.097-4.077-.146-5.347-.146zM514.331 473.494c0 13.379-3.711 24.365-11.133 32.959-7.422 8.545-16.919 12.818-28.491 12.818-11.475 0-20.947-4.297-28.418-12.891-7.422-8.594-11.133-19.556-11.133-32.886 0-13.476 3.687-24.463 11.06-32.959 7.373-8.545 16.87-12.817 28.491-12.817 11.572 0 21.069 4.297 28.491 12.89 7.422 8.594 11.133 19.556 11.133 32.886zm-39.624 35.376c8.203 0 14.648-3.125 19.336-9.375 4.736-6.299 7.104-14.966 7.104-26.001 0-11.035-2.368-19.678-7.104-25.928-4.688-6.298-11.133-9.448-19.336-9.448-8.252 0-14.722 3.125-19.409 9.375-4.639 6.201-6.958 14.868-6.958 26.001 0 11.035 2.344 19.702 7.031 26.001 4.736 6.25 11.182 9.375 19.336 9.375zM587.939 432.552c.489-1.319 1.172-2.246 2.051-2.783.879-.538 2.149-.806 3.809-.806 1.806 0 3.076.439 3.808 1.318.733.879 1.099 2.686 1.099 5.42 0 4.785.049 9.253.147 13.403.097 4.102.146 5.884.146 5.347 0 2.295-.391 3.858-1.172 4.688-.781.781-2.173 1.172-4.175 1.172-3.222 0-5.322-2.295-6.298-6.885a233.566 233.566 0 00-.806-3.15c-.928-3.662-3.15-6.64-6.665-8.935-3.516-2.344-7.642-3.516-12.378-3.516-8.643 0-15.576 3.174-20.801 9.522-5.225 6.299-7.837 14.77-7.837 25.415 0 10.644 2.637 19.14 7.91 25.488 5.323 6.299 12.329 9.448 21.021 9.448 2.832 0 5.713-.39 8.642-1.172 2.93-.83 5.811-2.05 8.643-3.662 1.318-.683 3.125-1.831 5.42-3.442 2.295-1.66 3.931-2.49 4.907-2.49 1.514 0 2.783.512 3.809 1.538 1.074.976 1.611 2.197 1.611 3.662 0 1.465-.586 2.881-1.758 4.248-1.123 1.318-3.247 2.954-6.372 4.907-4.101 2.686-8.227 4.663-12.378 5.933-4.15 1.269-8.52 1.904-13.11 1.904-12.061 0-22.022-4.248-29.883-12.744-7.861-8.545-11.792-19.458-11.792-32.739 0-13.135 3.98-24.048 11.939-32.74 7.959-8.691 17.968-13.037 30.029-13.037 3.223 0 6.494.391 9.814 1.172 3.369.781 6.91 1.953 10.62 3.516zM633.496 514.437c-.244 2.197-.806 3.71-1.684 4.541-.879.878-2.271 1.318-4.175 1.318-2.051 0-3.589-.61-4.615-1.831-.976-1.172-1.538-3.101-1.684-5.786l-.952-16.992v-1.319c0-2.344.439-4.004 1.318-4.98.928-.977 2.442-1.465 4.541-1.465 2.93 0 5.029 2.099 6.299 6.299.586 2.099 1.147 3.686 1.685 4.76 1.709 3.418 4.394 6.055 8.056 7.911 3.711 1.855 8.13 2.783 13.257 2.783 6.299 0 11.401-1.489 15.308-4.468 3.955-2.979 5.932-6.787 5.932-11.426 0-3.857-1.22-6.958-3.662-9.302-2.392-2.343-5.908-3.857-10.547-4.541l-10.84-1.464c-10.107-1.416-17.48-4.078-22.119-7.984-4.638-3.906-6.958-9.399-6.958-16.479 0-7.471 3.076-13.745 9.229-18.824 6.201-5.078 13.916-7.617 23.144-7.617 2.686 0 5.518.367 8.496 1.099 2.979.684 6.348 1.782 10.108 3.296.097-1.416.488-2.393 1.172-2.93.683-.537 1.855-.806 3.515-.806 2.149 0 3.638.318 4.468.953.83.634 1.343 2.148 1.538 4.541l1.026 15.307v.733c0 1.709-.489 3.051-1.465 4.028-.977.928-2.344 1.392-4.102 1.392-2.588 0-4.59-1.807-6.006-5.42-.683-2.051-1.367-3.589-2.05-4.615-1.612-2.441-3.931-4.321-6.958-5.639-3.028-1.319-6.47-1.978-10.328-1.978-5.908 0-10.717 1.465-14.428 4.395-3.662 2.929-5.494 6.762-5.494 11.499 0 3.711 1.368 6.64 4.102 8.789 2.783 2.148 7.007 3.613 12.671 4.394l11.719 1.465c8.496 1.123 14.892 3.736 19.189 7.837 4.297 4.053 6.445 9.546 6.445 16.48 0 8.203-3.051 14.795-9.155 19.775-6.103 4.932-14.258 7.397-24.463 7.397-3.515 0-7.007-.415-10.473-1.245-3.467-.83-7.154-2.124-11.06-3.881zM197.29 682.673c1.563.146 3.101.268 4.614.366 1.563.049 3.076.073 4.541.073 12.012 0 20.801-2.685 26.367-8.056 5.616-5.371 8.423-13.843 8.423-25.415 0-11.621-2.807-20.069-8.423-25.342-5.615-5.322-14.599-7.984-26.953-7.984-2.295 0-4.052.025-5.273.074a32.98 32.98 0 00-3.296.293v65.991zm0 10.327H182.422c-1.807 0-3.174-.439-4.102-1.318-.879-.879-1.318-2.198-1.318-3.955 0-1.905.513-3.223 1.538-3.956 1.074-.732 3.076-1.098 6.006-1.098h1.318v-65.991h-1.172c-2.929 0-4.956-.391-6.079-1.172-1.074-.781-1.611-2.149-1.611-4.102 0-1.806.439-3.125 1.318-3.955.928-.879 2.344-1.318 4.248-1.318h30.909c12.158 0 21.85 3.93 29.077 11.792 7.226 7.812 10.84 18.384 10.84 31.714 0 6.494-1.05 12.524-3.15 18.09-2.051 5.567-5.054 10.45-9.009 14.649-3.662 3.808-8.13 6.592-13.403 8.349-5.225 1.709-11.963 2.564-20.215 2.564-.976 0-2.637-.049-4.98-.147-2.295-.097-4.077-.146-5.347-.146zM344.507 649.494c0 13.379-3.711 24.365-11.133 32.959-7.422 8.545-16.919 12.818-28.491 12.818-11.475 0-20.947-4.297-28.418-12.891-7.422-8.594-11.133-19.556-11.133-32.886 0-13.476 3.687-24.463 11.06-32.959 7.373-8.545 16.87-12.817 28.491-12.817 11.572 0 21.069 4.297 28.491 12.89 7.422 8.594 11.133 19.556 11.133 32.886zm-39.624 35.376c8.203 0 14.648-3.125 19.336-9.375 4.736-6.299 7.104-14.966 7.104-26.001 0-11.035-2.368-19.678-7.104-25.928-4.688-6.298-11.133-9.448-19.336-9.448-8.252 0-14.722 3.125-19.409 9.375-4.639 6.201-6.958 14.868-6.958 26.001 0 11.035 2.343 19.702 7.031 26.001 4.736 6.25 11.182 9.375 19.336 9.375zM418.115 608.552c.489-1.319 1.172-2.246 2.051-2.783.879-.538 2.148-.806 3.809-.806 1.806 0 3.076.439 3.808 1.318.733.879 1.099 2.686 1.099 5.42 0 4.785.049 9.253.146 13.403.098 4.102.147 5.884.147 5.347 0 2.295-.391 3.858-1.172 4.688-.781.781-2.173 1.172-4.175 1.172-3.223 0-5.322-2.295-6.299-6.885-.341-1.367-.61-2.417-.805-3.15-.928-3.662-3.15-6.64-6.665-8.935-3.516-2.344-7.642-3.516-12.378-3.516-8.643 0-15.577 3.174-20.801 9.522-5.225 6.299-7.837 14.77-7.837 25.415 0 10.644 2.637 19.14 7.91 25.488 5.322 6.299 12.329 9.448 21.021 9.448 2.832 0 5.713-.39 8.642-1.172 2.93-.83 5.811-2.05 8.643-3.662 1.318-.683 3.125-1.831 5.42-3.442 2.295-1.66 3.93-2.49 4.907-2.49 1.514 0 2.783.512 3.809 1.538 1.074.976 1.611 2.197 1.611 3.662 0 1.465-.586 2.881-1.758 4.248-1.123 1.318-3.247 2.954-6.372 4.907-4.102 2.686-8.228 4.663-12.378 5.933-4.15 1.269-8.52 1.904-13.11 1.904-12.061 0-22.022-4.248-29.883-12.744-7.861-8.545-11.792-19.458-11.792-32.739 0-13.135 3.979-24.048 11.938-32.74 7.959-8.691 17.969-13.037 30.03-13.037 3.222 0 6.494.391 9.814 1.172 3.369.781 6.909 1.953 10.62 3.516zM463.672 690.437c-.244 2.197-.806 3.71-1.685 4.541-.879.878-2.27 1.318-4.175 1.318-2.05 0-3.588-.61-4.614-1.831-.976-1.172-1.538-3.101-1.684-5.786l-.952-16.992v-1.319c0-2.344.439-4.004 1.318-4.98.928-.977 2.441-1.465 4.541-1.465 2.93 0 5.029 2.099 6.299 6.299.586 2.099 1.147 3.686 1.684 4.76 1.709 3.418 4.395 6.055 8.057 7.911 3.711 1.855 8.13 2.783 13.257 2.783 6.299 0 11.401-1.489 15.307-4.468 3.955-2.979 5.933-6.787 5.933-11.426 0-3.857-1.221-6.958-3.662-9.302-2.393-2.343-5.908-3.857-10.547-4.541l-10.84-1.464c-10.107-1.416-17.48-4.078-22.119-7.984-4.639-3.906-6.958-9.399-6.958-16.479 0-7.471 3.076-13.745 9.229-18.824 6.201-5.078 13.916-7.617 23.144-7.617 2.686 0 5.518.367 8.496 1.099 2.979.684 6.348 1.782 10.108 3.296.097-1.416.488-2.393 1.171-2.93.684-.537 1.856-.806 3.516-.806 2.149 0 3.638.318 4.468.953.83.634 1.343 2.148 1.538 4.541l1.025 15.307v.733c0 1.709-.488 3.051-1.465 4.028-.976.928-2.343 1.392-4.101 1.392-2.588 0-4.59-1.807-6.006-5.42-.684-2.051-1.367-3.589-2.051-4.615-1.611-2.441-3.93-4.321-6.958-5.639-3.027-1.319-6.469-1.978-10.327-1.978-5.908 0-10.718 1.465-14.429 4.395-3.662 2.929-5.493 6.762-5.493 11.499 0 3.711 1.367 6.64 4.102 8.789 2.783 2.148 7.007 3.613 12.671 4.394l11.718 1.465c8.497 1.123 14.893 3.736 19.19 7.837 4.297 4.053 6.445 9.546 6.445 16.48 0 8.203-3.052 14.795-9.155 19.775-6.104 4.932-14.258 7.397-24.463 7.397-3.516 0-7.007-.415-10.474-1.245-3.466-.83-7.153-2.124-11.059-3.881z"/><path d="M197.29 682.673c1.563.146 3.101.268 4.614.366 1.563.049 3.076.073 4.541.073 12.012 0 20.801-2.685 26.367-8.056 5.616-5.371 8.423-13.843 8.423-25.415 0-11.621-2.807-20.069-8.423-25.342-5.615-5.322-14.599-7.984-26.953-7.984-2.295 0-4.052.025-5.273.074a32.98 32.98 0 00-3.296.293v65.991zm0 10.327H182.422c-1.807 0-3.174-.439-4.102-1.318-.879-.879-1.318-2.198-1.318-3.955 0-1.905.513-3.223 1.538-3.956 1.074-.732 3.076-1.098 6.006-1.098h1.318v-65.991h-1.172c-2.929 0-4.956-.391-6.079-1.172-1.074-.781-1.611-2.149-1.611-4.102 0-1.806.439-3.125 1.318-3.955.928-.879 2.344-1.318 4.248-1.318h30.909c12.158 0 21.85 3.93 29.077 11.792 7.226 7.812 10.84 18.384 10.84 31.714 0 6.494-1.05 12.524-3.15 18.09-2.051 5.567-5.054 10.45-9.009 14.649-3.662 3.808-8.13 6.592-13.403 8.349-5.225 1.709-11.963 2.564-20.215 2.564-.976 0-2.637-.049-4.98-.147-2.295-.097-4.077-.146-5.347-.146zM344.507 649.494c0 13.379-3.711 24.365-11.133 32.959-7.422 8.545-16.919 12.818-28.491 12.818-11.475 0-20.947-4.297-28.418-12.891-7.422-8.594-11.133-19.556-11.133-32.886 0-13.476 3.687-24.463 11.06-32.959 7.373-8.545 16.87-12.817 28.491-12.817 11.572 0 21.069 4.297 28.491 12.89 7.422 8.594 11.133 19.556 11.133 32.886zm-39.624 35.376c8.203 0 14.648-3.125 19.336-9.375 4.736-6.299 7.104-14.966 7.104-26.001 0-11.035-2.368-19.678-7.104-25.928-4.688-6.298-11.133-9.448-19.336-9.448-8.252 0-14.722 3.125-19.409 9.375-4.639 6.201-6.958 14.868-6.958 26.001 0 11.035 2.343 19.702 7.031 26.001 4.736 6.25 11.182 9.375 19.336 9.375zM418.115 608.552c.489-1.319 1.172-2.246 2.051-2.783.879-.538 2.148-.806 3.809-.806 1.806 0 3.076.439 3.808 1.318.733.879 1.099 2.686 1.099 5.42 0 4.785.049 9.253.146 13.403.098 4.102.147 5.884.147 5.347 0 2.295-.391 3.858-1.172 4.688-.781.781-2.173 1.172-4.175 1.172-3.223 0-5.322-2.295-6.299-6.885-.341-1.367-.61-2.417-.805-3.15-.928-3.662-3.15-6.64-6.665-8.935-3.516-2.344-7.642-3.516-12.378-3.516-8.643 0-15.577 3.174-20.801 9.522-5.225 6.299-7.837 14.77-7.837 25.415 0 10.644 2.637 19.14 7.91 25.488 5.322 6.299 12.329 9.448 21.021 9.448 2.832 0 5.713-.39 8.642-1.172 2.93-.83 5.811-2.05 8.643-3.662 1.318-.683 3.125-1.831 5.42-3.442 2.295-1.66 3.93-2.49 4.907-2.49 1.514 0 2.783.512 3.809 1.538 1.074.976 1.611 2.197 1.611 3.662 0 1.465-.586 2.881-1.758 4.248-1.123 1.318-3.247 2.954-6.372 4.907-4.102 2.686-8.228 4.663-12.378 5.933-4.15 1.269-8.52 1.904-13.11 1.904-12.061 0-22.022-4.248-29.883-12.744-7.861-8.545-11.792-19.458-11.792-32.739 0-13.135 3.979-24.048 11.938-32.74 7.959-8.691 17.969-13.037 30.03-13.037 3.222 0 6.494.391 9.814 1.172 3.369.781 6.909 1.953 10.62 3.516zM463.672 690.437c-.244 2.197-.806 3.71-1.685 4.541-.879.878-2.27 1.318-4.175 1.318-2.05 0-3.588-.61-4.614-1.831-.976-1.172-1.538-3.101-1.684-5.786l-.952-16.992v-1.319c0-2.344.439-4.004 1.318-4.98.928-.977 2.441-1.465 4.541-1.465 2.93 0 5.029 2.099 6.299 6.299.586 2.099 1.147 3.686 1.684 4.76 1.709 3.418 4.395 6.055 8.057 7.911 3.711 1.855 8.13 2.783 13.257 2.783 6.299 0 11.401-1.489 15.307-4.468 3.955-2.979 5.933-6.787 5.933-11.426 0-3.857-1.221-6.958-3.662-9.302-2.393-2.343-5.908-3.857-10.547-4.541l-10.84-1.464c-10.107-1.416-17.48-4.078-22.119-7.984-4.639-3.906-6.958-9.399-6.958-16.479 0-7.471 3.076-13.745 9.229-18.824 6.201-5.078 13.916-7.617 23.144-7.617 2.686 0 5.518.367 8.496 1.099 2.979.684 6.348 1.782 10.108 3.296.097-1.416.488-2.393 1.171-2.93.684-.537 1.856-.806 3.516-.806 2.149 0 3.638.318 4.468.953.83.634 1.343 2.148 1.538 4.541l1.025 15.307v.733c0 1.709-.488 3.051-1.465 4.028-.976.928-2.343 1.392-4.101 1.392-2.588 0-4.59-1.807-6.006-5.42-.684-2.051-1.367-3.589-2.051-4.615-1.611-2.441-3.93-4.321-6.958-5.639-3.027-1.319-6.469-1.978-10.327-1.978-5.908 0-10.718 1.465-14.429 4.395-3.662 2.929-5.493 6.762-5.493 11.499 0 3.711 1.367 6.64 4.102 8.789 2.783 2.148 7.007 3.613 12.671 4.394l11.718 1.465c8.497 1.123 14.893 3.736 19.19 7.837 4.297 4.053 6.445 9.546 6.445 16.48 0 8.203-3.052 14.795-9.155 19.775-6.104 4.932-14.258 7.397-24.463 7.397-3.516 0-7.007-.415-10.474-1.245-3.466-.83-7.153-2.124-11.059-3.881zM27.466 858.673c1.562.146 3.1.268 4.614.366 1.563.049 3.076.073 4.541.073 12.012 0 20.8-2.685 26.367-8.056 5.615-5.371 8.423-13.843 8.423-25.415 0-11.621-2.808-20.069-8.423-25.342-5.615-5.322-14.6-7.984-26.953-7.984-2.295 0-4.053.025-5.273.074a32.99 32.99 0 00-3.296.293v65.991zm0 10.327H12.598c-1.807 0-3.174-.439-4.102-1.318-.879-.879-1.318-2.198-1.318-3.955 0-1.905.512-3.223 1.538-3.956 1.074-.732 3.076-1.098 6.006-1.098h1.318v-65.991h-1.172c-2.93 0-4.956-.391-6.079-1.172-1.074-.781-1.611-2.149-1.611-4.102 0-1.806.44-3.125 1.318-3.955.928-.879 2.344-1.318 4.248-1.318h30.908c12.158 0 21.85 3.93 29.078 11.792 7.226 7.812 10.84 18.384 10.84 31.714 0 6.494-1.05 12.524-3.15 18.09-2.05 5.567-5.054 10.45-9.009 14.649-3.662 3.808-8.13 6.592-13.403 8.349-5.225 1.709-11.963 2.564-20.215 2.564-.977 0-2.637-.049-4.98-.147-2.295-.097-4.078-.146-5.347-.146zM174.683 825.494c0 13.379-3.711 24.365-11.133 32.959-7.422 8.545-16.919 12.818-28.491 12.818-11.475 0-20.948-4.297-28.418-12.891-7.422-8.594-11.133-19.556-11.133-32.886 0-13.476 3.686-24.463 11.059-32.959 7.373-8.545 16.871-12.817 28.492-12.817 11.572 0 21.069 4.297 28.491 12.89 7.422 8.594 11.133 19.556 11.133 32.886zm-39.624 35.376c8.203 0 14.648-3.125 19.336-9.375 4.736-6.299 7.104-14.966 7.104-26.001 0-11.035-2.368-19.678-7.104-25.928-4.688-6.298-11.133-9.448-19.336-9.448-8.252 0-14.722 3.125-19.41 9.375-4.638 6.201-6.958 14.868-6.958 26.001 0 11.035 2.344 19.702 7.032 26.001 4.736 6.25 11.181 9.375 19.336 9.375zM248.291 784.552c.488-1.319 1.172-2.246 2.051-2.783.879-.538 2.148-.806 3.808-.806 1.807 0 3.077.439 3.809 1.318.732.879 1.099 2.686 1.099 5.42 0 4.785.048 9.253.146 13.403.098 4.102.147 5.884.147 5.347 0 2.295-.391 3.858-1.172 4.688-.782.781-2.173 1.172-4.175 1.172-3.223 0-5.322-2.295-6.299-6.885-.342-1.367-.61-2.417-.806-3.15-.927-3.662-3.149-6.64-6.665-8.935-3.515-2.344-7.641-3.516-12.378-3.516-8.642 0-15.576 3.174-20.8 9.522-5.225 6.299-7.837 14.77-7.837 25.415 0 10.644 2.636 19.14 7.91 25.488 5.322 6.299 12.329 9.448 21.02 9.448 2.832 0 5.713-.39 8.643-1.172 2.93-.83 5.811-2.05 8.643-3.662 1.318-.683 3.125-1.831 5.419-3.442 2.295-1.66 3.931-2.49 4.908-2.49 1.513 0 2.783.512 3.808 1.538 1.075.976 1.612 2.197 1.612 3.662 0 1.465-.586 2.881-1.758 4.248-1.123 1.318-3.247 2.954-6.372 4.907-4.102 2.686-8.228 4.663-12.378 5.933-4.151 1.269-8.521 1.904-13.111 1.904-12.06 0-22.021-4.248-29.882-12.744-7.862-8.545-11.792-19.458-11.792-32.739 0-13.135 3.979-24.048 11.938-32.74 7.959-8.691 17.969-13.037 30.029-13.037 3.223 0 6.495.391 9.815 1.172 3.369.781 6.909 1.953 10.62 3.516zM293.848 866.437c-.244 2.197-.806 3.71-1.685 4.541-.879.878-2.27 1.318-4.175 1.318-2.05 0-3.589-.61-4.614-1.831-.977-1.172-1.538-3.101-1.685-5.786l-.952-16.992v-1.319c0-2.344.44-4.004 1.319-4.98.927-.977 2.441-1.465 4.541-1.465 2.929 0 5.029 2.099 6.299 6.299.585 2.099 1.147 3.686 1.684 4.76 1.709 3.418 4.395 6.055 8.057 7.911 3.711 1.855 8.13 2.783 13.257 2.783 6.298 0 11.401-1.489 15.307-4.468 3.955-2.979 5.933-6.787 5.933-11.426 0-3.857-1.221-6.958-3.662-9.302-2.393-2.343-5.909-3.857-10.547-4.541l-10.84-1.464c-10.107-1.416-17.481-4.078-22.119-7.984-4.639-3.906-6.958-9.399-6.958-16.479 0-7.471 3.076-13.745 9.228-18.824 6.202-5.078 13.916-7.617 23.145-7.617 2.685 0 5.517.367 8.496 1.099 2.978.684 6.348 1.782 10.107 3.296.098-1.416.489-2.393 1.172-2.93.684-.537 1.856-.806 3.516-.806 2.148 0 3.638.318 4.468.953.83.634 1.342 2.148 1.538 4.541l1.025 15.307v.733c0 1.709-.488 3.051-1.465 4.028-.976.928-2.343 1.392-4.101 1.392-2.588 0-4.59-1.807-6.006-5.42-.684-2.051-1.367-3.589-2.051-4.615-1.611-2.441-3.931-4.321-6.958-5.639-3.027-1.319-6.47-1.978-10.327-1.978-5.908 0-10.718 1.465-14.429 4.395-3.662 2.929-5.493 6.762-5.493 11.499 0 3.711 1.367 6.64 4.102 8.789 2.783 2.148 7.006 3.613 12.671 4.394l11.718 1.465c8.496 1.123 14.893 3.736 19.19 7.837 4.297 4.053 6.445 9.546 6.445 16.48 0 8.203-3.052 14.795-9.155 19.775-6.104 4.932-14.258 7.397-24.463 7.397-3.516 0-7.007-.415-10.474-1.245-3.467-.83-7.153-2.124-11.059-3.881z"/><path d="M27.466 858.673c1.562.146 3.1.268 4.614.366 1.563.049 3.076.073 4.541.073 12.012 0 20.8-2.685 26.367-8.056 5.615-5.371 8.423-13.843 8.423-25.415 0-11.621-2.808-20.069-8.423-25.342-5.615-5.322-14.6-7.984-26.953-7.984-2.295 0-4.053.025-5.273.074a32.99 32.99 0 00-3.296.293v65.991zm0 10.327H12.598c-1.807 0-3.174-.439-4.102-1.318-.879-.879-1.318-2.198-1.318-3.955 0-1.905.512-3.223 1.538-3.956 1.074-.732 3.076-1.098 6.006-1.098h1.318v-65.991h-1.172c-2.93 0-4.956-.391-6.079-1.172-1.074-.781-1.611-2.149-1.611-4.102 0-1.806.44-3.125 1.318-3.955.928-.879 2.344-1.318 4.248-1.318h30.908c12.158 0 21.85 3.93 29.078 11.792 7.226 7.812 10.84 18.384 10.84 31.714 0 6.494-1.05 12.524-3.15 18.09-2.05 5.567-5.054 10.45-9.009 14.649-3.662 3.808-8.13 6.592-13.403 8.349-5.225 1.709-11.963 2.564-20.215 2.564-.977 0-2.637-.049-4.98-.147-2.295-.097-4.078-.146-5.347-.146zM174.683 825.494c0 13.379-3.711 24.365-11.133 32.959-7.422 8.545-16.919 12.818-28.491 12.818-11.475 0-20.948-4.297-28.418-12.891-7.422-8.594-11.133-19.556-11.133-32.886 0-13.476 3.686-24.463 11.059-32.959 7.373-8.545 16.871-12.817 28.492-12.817 11.572 0 21.069 4.297 28.491 12.89 7.422 8.594 11.133 19.556 11.133 32.886zm-39.624 35.376c8.203 0 14.648-3.125 19.336-9.375 4.736-6.299 7.104-14.966 7.104-26.001 0-11.035-2.368-19.678-7.104-25.928-4.688-6.298-11.133-9.448-19.336-9.448-8.252 0-14.722 3.125-19.41 9.375-4.638 6.201-6.958 14.868-6.958 26.001 0 11.035 2.344 19.702 7.032 26.001 4.736 6.25 11.181 9.375 19.336 9.375zM248.291 784.552c.488-1.319 1.172-2.246 2.051-2.783.879-.538 2.148-.806 3.808-.806 1.807 0 3.077.439 3.809 1.318.732.879 1.099 2.686 1.099 5.42 0 4.785.048 9.253.146 13.403.098 4.102.147 5.884.147 5.347 0 2.295-.391 3.858-1.172 4.688-.782.781-2.173 1.172-4.175 1.172-3.223 0-5.322-2.295-6.299-6.885-.342-1.367-.61-2.417-.806-3.15-.927-3.662-3.149-6.64-6.665-8.935-3.515-2.344-7.641-3.516-12.378-3.516-8.642 0-15.576 3.174-20.8 9.522-5.225 6.299-7.837 14.77-7.837 25.415 0 10.644 2.636 19.14 7.91 25.488 5.322 6.299 12.329 9.448 21.02 9.448 2.832 0 5.713-.39 8.643-1.172 2.93-.83 5.811-2.05 8.643-3.662 1.318-.683 3.125-1.831 5.419-3.442 2.295-1.66 3.931-2.49 4.908-2.49 1.513 0 2.783.512 3.808 1.538 1.075.976 1.612 2.197 1.612 3.662 0 1.465-.586 2.881-1.758 4.248-1.123 1.318-3.247 2.954-6.372 4.907-4.102 2.686-8.228 4.663-12.378 5.933-4.151 1.269-8.521 1.904-13.111 1.904-12.06 0-22.021-4.248-29.882-12.744-7.862-8.545-11.792-19.458-11.792-32.739 0-13.135 3.979-24.048 11.938-32.74 7.959-8.691 17.969-13.037 30.029-13.037 3.223 0 6.495.391 9.815 1.172 3.369.781 6.909 1.953 10.62 3.516zM293.848 866.437c-.244 2.197-.806 3.71-1.685 4.541-.879.878-2.27 1.318-4.175 1.318-2.05 0-3.589-.61-4.614-1.831-.977-1.172-1.538-3.101-1.685-5.786l-.952-16.992v-1.319c0-2.344.44-4.004 1.319-4.98.927-.977 2.441-1.465 4.541-1.465 2.929 0 5.029 2.099 6.299 6.299.585 2.099 1.147 3.686 1.684 4.76 1.709 3.418 4.395 6.055 8.057 7.911 3.711 1.855 8.13 2.783 13.257 2.783 6.298 0 11.401-1.489 15.307-4.468 3.955-2.979 5.933-6.787 5.933-11.426 0-3.857-1.221-6.958-3.662-9.302-2.393-2.343-5.909-3.857-10.547-4.541l-10.84-1.464c-10.107-1.416-17.481-4.078-22.119-7.984-4.639-3.906-6.958-9.399-6.958-16.479 0-7.471 3.076-13.745 9.228-18.824 6.202-5.078 13.916-7.617 23.145-7.617 2.685 0 5.517.367 8.496 1.099 2.978.684 6.348 1.782 10.107 3.296.098-1.416.489-2.393 1.172-2.93.684-.537 1.856-.806 3.516-.806 2.148 0 3.638.318 4.468.953.83.634 1.342 2.148 1.538 4.541l1.025 15.307v.733c0 1.709-.488 3.051-1.465 4.028-.976.928-2.343 1.392-4.101 1.392-2.588 0-4.59-1.807-6.006-5.42-.684-2.051-1.367-3.589-2.051-4.615-1.611-2.441-3.931-4.321-6.958-5.639-3.027-1.319-6.47-1.978-10.327-1.978-5.908 0-10.718 1.465-14.429 4.395-3.662 2.929-5.493 6.762-5.493 11.499 0 3.711 1.367 6.64 4.102 8.789 2.783 2.148 7.006 3.613 12.671 4.394l11.718 1.465c8.496 1.123 14.893 3.736 19.19 7.837 4.297 4.053 6.445 9.546 6.445 16.48 0 8.203-3.052 14.795-9.155 19.775-6.104 4.932-14.258 7.397-24.463 7.397-3.516 0-7.007-.415-10.474-1.245-3.467-.83-7.153-2.124-11.059-3.881z"/></svg>