<svg xmlns="http://www.w3.org/2000/svg" fill="currentColor" viewBox="0 0 662 723"><path d="M58.785 375h33v287c0 36-12 47-37 47s-39-14-39-51V64c0-37 13-52 37-52 23 0 37 12 37 48v51h14V60c0-45-20-60-51-60-32 0-52 19-52 64v594c0 46 21 64 54 64s51-16 51-60V363h-47v12zM222.504 4v658c0 34-12 48-35 48-24 0-36-13-36-47V4h-15v659c0 42 19 60 51 60s49-18 49-61V4h-14zM272.316 719h14V4h-14v715zM321.074 4v715h39c43 0 63-22 63-78V82c0-56-20-78-63-78h-39zm39 11c35 0 49 19 49 66v560c0 46-12 66-49 66h-24V15h24zM453.887 719h87v-12h-72V357h55v-12h-55V15h67V4h-82v715zM612.191 723c33 0 49-21 49-65v-61c0-75-22-172-44-269-21-93-40-185-40-240V59c0-32 10-47 34-47 25 0 33 15 33 44v55h14V56c0-35-13-56-47-56-32 0-48 20-48 60v28c0 57 20 149 41 244 20 96 42 193 42 266v61c0 35-9 51-34 51-29 0-37-19-37-45v-63h-14v63c0 35 14 58 51 58z"/></svg>