<svg xmlns="http://www.w3.org/2000/svg" fill="currentColor" viewBox="0 0 700 1000"><path d="M33.344 168V67.95h53.4c5.8 0 10.95.9 15.45 2.7 4.5 1.8 8.25 4.3 11.25 7.5 3.1 3.1 5.4 6.75 6.9 10.95 1.6 4.1 2.4 8.5 2.4 13.2 0 4.7-.8 9.1-2.4 13.2-1.5 4.1-3.8 7.75-6.9 10.95-3 3.1-6.75 5.55-11.25 7.35-4.5 1.8-9.65 2.7-15.45 2.7h-23.1V168h-30.3zm49.5-57.9c2.6 0 4.75-.65 6.45-1.95 1.8-1.3 2.7-3.25 2.7-5.85 0-2.7-.9-4.7-2.7-6-1.7-1.3-3.85-1.95-6.45-1.95h-19.2v15.75h19.2zM187.711 168l-13.8-31.5h-10.95V168h-30.3V67.95h53.4c5.8 0 10.95.9 15.45 2.7 4.5 1.8 8.25 4.3 11.25 7.5 3.1 3.1 5.4 6.75 6.9 10.95 1.6 4.1 2.4 8.5 2.4 13.2 0 4.3-.6 8.15-1.8 11.55-1.1 3.3-2.55 6.2-4.35 8.7-1.7 2.4-3.6 4.45-5.7 6.15-2.1 1.6-4.15 2.9-6.15 3.9l18.15 35.4h-34.5zm-6.3-57.9c2.6 0 4.9-.6 6.9-1.8 2-1.3 3-3.35 3-6.15 0-2.7-1-4.65-3-5.85-2-1.3-4.3-1.95-6.9-1.95h-18.45v15.75h18.45zM234.321 168V67.95h30.3V168h-30.3zM306.856 168l-36.9-100.05h34.35l21.6 67.35 21.6-67.35h34.35L344.956 168h-38.1zM447.995 168l-3.6-11.7h-36l-3.601 11.7h-34.35l36.901-100.05h38.1l36.9 100.05h-34.35zm-21.6-70.35l-9.9 32.25h19.799l-9.899-32.25zM532.848 169.8c-7.8 0-15.1-1.25-21.9-3.75-6.7-2.5-12.5-6-17.4-10.5-4.9-4.6-8.75-10.05-11.55-16.35-2.8-6.4-4.2-13.45-4.2-21.15 0-7.7 1.4-14.7 4.2-21 2.8-6.4 6.65-11.85 11.55-16.35 4.9-4.6 10.7-8.15 17.4-10.65 6.8-2.5 14.1-3.75 21.9-3.75 6.6 0 12.35.9 17.25 2.7 5 1.7 9.35 3.95 13.05 6.75 3.7 2.7 6.75 5.8 9.15 9.3 2.5 3.5 4.5 6.95 6 10.35l-26.1 12.15c-.6-1.9-1.55-3.75-2.85-5.55-1.2-1.8-2.65-3.35-4.35-4.65-1.7-1.3-3.6-2.35-5.7-3.15-2.1-.8-4.25-1.2-6.45-1.2-3.6 0-6.9.65-9.9 1.95-3 1.3-5.6 3.1-7.8 5.4-2.1 2.2-3.75 4.85-4.95 7.95-1.1 3-1.65 6.25-1.65 9.75s.55 6.8 1.65 9.9c1.2 3 2.85 5.65 4.95 7.95 2.2 2.2 4.8 3.95 7.8 5.25 3 1.3 6.3 1.95 9.9 1.95 2.2 0 4.35-.4 6.45-1.2 2.1-.8 4-1.85 5.7-3.15a20.6 20.6 0 004.35-4.5c1.3-1.8 2.25-3.7 2.85-5.7l26.1 12c-1.5 3.3-3.5 6.7-6 10.2-2.4 3.5-5.45 6.65-9.15 9.45-3.6 2.8-7.9 5.1-12.9 6.9-5 1.8-10.8 2.7-17.4 2.7zM609.946 168v-39.75l-37.5-60.3h34.05l18.6 33.75 18.3-33.75h34.05l-37.2 60.3V168h-30.3zM88.394 282l-13.8-31.5h-10.95V282h-30.3V181.95h53.4c5.8 0 10.95.9 15.45 2.7 4.5 1.8 8.25 4.3 11.25 7.5 3.1 3.1 5.4 6.75 6.9 10.95 1.6 4.1 2.4 8.5 2.4 13.2 0 4.3-.6 8.15-1.8 11.55-1.1 3.3-2.55 6.2-4.35 8.7-1.7 2.4-3.6 4.45-5.7 6.15-2.1 1.6-4.15 2.9-6.15 3.9l18.15 35.4h-34.5zm-6.3-57.9c2.6 0 4.9-.6 6.9-1.8 2-1.3 3-3.35 3-6.15 0-2.7-1-4.65-3-5.85-2-1.3-4.3-1.95-6.9-1.95h-18.45v15.75h18.45zM135.004 282V181.95h30.3V282h-30.3zM207.54 282l-36.9-100.05h34.35l21.6 67.35 21.6-67.35h34.35L245.64 282h-38.1zM348.678 282l-3.6-11.7h-36l-3.6 11.7h-34.35l36.9-100.05h38.1l36.9 100.05h-34.35zm-21.6-70.35l-9.9 32.25h19.8l-9.9-32.25zM433.531 283.8c-7.8 0-15.1-1.25-21.9-3.75-6.7-2.5-12.5-6-17.4-10.5-4.9-4.6-8.75-10.05-11.55-16.35-2.8-6.4-4.2-13.45-4.2-21.15 0-7.7 1.4-14.7 4.2-21 2.8-6.4 6.65-11.85 11.55-16.35 4.9-4.6 10.7-8.15 17.4-10.65 6.8-2.5 14.1-3.75 21.9-3.75 6.6 0 12.35.9 17.25 2.7 5 1.7 9.35 3.95 13.05 6.75 3.7 2.7 6.75 5.8 9.15 9.3 2.5 3.5 4.5 6.95 6 10.35l-26.1 12.15c-.6-1.9-1.55-3.75-2.85-5.55-1.2-1.8-2.65-3.35-4.35-4.65-1.7-1.3-3.6-2.35-5.7-3.15-2.1-.8-4.25-1.2-6.45-1.2-3.6 0-6.9.65-9.9 1.95-3 1.3-5.6 3.1-7.8 5.4-2.1 2.2-3.75 4.85-4.95 7.95-1.1 3-1.65 6.25-1.65 9.75s.55 6.8 1.65 9.9c1.2 3 2.85 5.65 4.95 7.95 2.2 2.2 4.8 3.95 7.8 5.25 3 1.3 6.3 1.95 9.9 1.95 2.2 0 4.35-.4 6.45-1.2 2.1-.8 4-1.85 5.7-3.15a20.6 20.6 0 004.35-4.5c1.3-1.8 2.25-3.7 2.85-5.7l26.1 12c-1.5 3.3-3.5 6.7-6 10.2-2.4 3.5-5.45 6.65-9.15 9.45-3.6 2.8-7.9 5.1-12.9 6.9-5 1.8-10.8 2.7-17.4 2.7zM510.63 282v-39.75l-37.5-60.3h34.05l18.6 33.75 18.3-33.75h34.05l-37.2 60.3V282h-30.3zM583.539 282V181.95h53.4c5.8 0 10.95.9 15.45 2.7 4.5 1.8 8.25 4.3 11.25 7.5 3.1 3.1 5.4 6.75 6.9 10.95 1.6 4.1 2.4 8.5 2.4 13.2 0 4.7-.8 9.1-2.4 13.2-1.5 4.1-3.8 7.75-6.9 10.95-3 3.1-6.75 5.55-11.25 7.35-4.5 1.8-9.65 2.7-15.45 2.7h-23.1V282h-30.3zm49.5-57.9c2.6 0 4.75-.65 6.45-1.95 1.8-1.3 2.7-3.25 2.7-5.85 0-2.7-.9-4.7-2.7-6-1.7-1.3-3.85-1.95-6.45-1.95h-19.2v15.75h19.2zM33.344 396V295.95h30.3V396h-30.3zM105.88 396l-36.9-100.05h34.35l21.6 67.35 21.6-67.35h34.35L143.98 396h-38.1zM247.018 396l-3.6-11.7h-36l-3.6 11.7h-34.35l36.9-100.05h38.1l36.9 100.05h-34.35zm-21.6-70.35l-9.9 32.25h19.8l-9.9-32.25zM331.871 397.8c-7.8 0-15.1-1.25-21.9-3.75-6.7-2.5-12.5-6-17.4-10.5-4.9-4.6-8.75-10.05-11.55-16.35-2.8-6.4-4.2-13.45-4.2-21.15 0-7.7 1.4-14.7 4.2-21 2.8-6.4 6.65-11.85 11.55-16.35 4.9-4.6 10.7-8.15 17.4-10.65 6.8-2.5 14.1-3.75 21.9-3.75 6.6 0 12.35.9 17.25 2.7 5 1.7 9.35 3.95 13.05 6.75 3.7 2.7 6.75 5.8 9.15 9.3 2.5 3.5 4.5 6.95 6 10.35l-26.1 12.15c-.6-1.9-1.55-3.75-2.85-5.55-1.2-1.8-2.65-3.35-4.35-4.65-1.7-1.3-3.6-2.35-5.7-3.15-2.1-.8-4.25-1.2-6.45-1.2-3.6 0-6.9.65-9.9 1.95-3 1.3-5.6 3.1-7.8 5.4-2.1 2.2-3.75 4.85-4.95 7.95-1.1 3-1.65 6.25-1.65 9.75s.55 6.8 1.65 9.9c1.2 3 2.85 5.65 4.95 7.95 2.2 2.2 4.8 3.95 7.8 5.25 3 1.3 6.3 1.95 9.9 1.95 2.2 0 4.35-.4 6.45-1.2 2.1-.8 4-1.85 5.7-3.15a20.6 20.6 0 004.35-4.5c1.3-1.8 2.25-3.7 2.85-5.7l26.1 12c-1.5 3.3-3.5 6.7-6 10.2-2.4 3.5-5.45 6.65-9.15 9.45-3.6 2.8-7.9 5.1-12.9 6.9-5 1.8-10.8 2.7-17.4 2.7zM408.97 396v-39.75l-37.5-60.3h34.05l18.6 33.75 18.3-33.75h34.05l-37.2 60.3V396h-30.3zM481.879 396V295.95h53.4c5.8 0 10.95.9 15.45 2.7 4.5 1.8 8.25 4.3 11.25 7.5 3.1 3.1 5.4 6.75 6.9 10.95 1.6 4.1 2.4 8.5 2.4 13.2 0 4.7-.8 9.1-2.4 13.2-1.5 4.1-3.8 7.75-6.9 10.95-3 3.1-6.75 5.55-11.25 7.35-4.5 1.8-9.65 2.7-15.45 2.7h-23.1V396h-30.3zm49.5-57.9c2.6 0 4.75-.65 6.45-1.95 1.8-1.3 2.7-3.25 2.7-5.85 0-2.7-.9-4.7-2.7-6-1.7-1.3-3.85-1.95-6.45-1.95h-19.2v15.75h19.2zM636.246 396l-13.8-31.5h-10.95V396h-30.3V295.95h53.4c5.8 0 10.95.9 15.45 2.7 4.5 1.8 8.25 4.3 11.25 7.5 3.1 3.1 5.4 6.75 6.9 10.95 1.6 4.1 2.4 8.5 2.4 13.2 0 4.3-.6 8.15-1.8 11.55-1.1 3.3-2.55 6.2-4.35 8.7-1.7 2.4-3.6 4.45-5.7 6.15-2.1 1.6-4.15 2.9-6.15 3.9l18.15 35.4h-34.5zm-6.3-57.9c2.6 0 4.9-.6 6.9-1.8 2-1.3 3-3.35 3-6.15 0-2.7-1-4.65-3-5.85-2-1.3-4.3-1.95-6.9-1.95h-18.45v15.75h18.45zM59.444 510l-36.9-100.05h34.35l21.6 67.35 21.6-67.35h34.35L97.544 510h-38.1zM200.582 510l-3.6-11.7h-36l-3.6 11.7h-34.35l36.9-100.05h38.1l36.9 100.05h-34.35zm-21.6-70.35l-9.9 32.25h19.8l-9.9-32.25zM285.436 511.8c-7.8 0-15.1-1.25-21.9-3.75-6.7-2.5-12.5-6-17.4-10.5-4.9-4.6-8.75-10.05-11.55-16.35-2.8-6.4-4.2-13.45-4.2-21.15 0-7.7 1.4-14.7 4.2-21 2.8-6.4 6.65-11.85 11.55-16.35 4.9-4.6 10.7-8.15 17.4-10.65 6.8-2.5 14.1-3.75 21.9-3.75 6.6 0 12.35.9 17.25 2.7 5 1.7 9.35 3.95 13.05 6.75 3.7 2.7 6.75 5.8 9.15 9.3 2.5 3.5 4.5 6.95 6 10.35l-26.1 12.15c-.6-1.9-1.55-3.75-2.85-5.55-1.2-1.8-2.65-3.35-4.35-4.65-1.7-1.3-3.6-2.35-5.7-3.15-2.1-.8-4.25-1.2-6.45-1.2-3.6 0-6.9.65-9.9 1.95-3 1.3-5.6 3.1-7.8 5.4-2.1 2.2-3.75 4.85-4.95 7.95-1.1 3-1.65 6.25-1.65 9.75s.55 6.8 1.65 9.9c1.2 3 2.85 5.65 4.95 7.95 2.2 2.2 4.8 3.95 7.8 5.25 3 1.3 6.3 1.95 9.9 1.95 2.2 0 4.35-.4 6.45-1.2 2.1-.8 4-1.85 5.7-3.15a20.6 20.6 0 004.35-4.5c1.3-1.8 2.25-3.7 2.85-5.7l26.1 12c-1.5 3.3-3.5 6.7-6 10.2-2.4 3.5-5.45 6.65-9.15 9.45-3.6 2.8-7.9 5.1-12.9 6.9-5 1.8-10.8 2.7-17.4 2.7zM362.534 510v-39.75l-37.5-60.3h34.05l18.6 33.75 18.3-33.75h34.05l-37.2 60.3V510h-30.3zM435.444 510V409.95h53.4c5.8 0 10.95.9 15.45 2.7 4.5 1.8 8.25 4.3 11.25 7.5 3.1 3.1 5.4 6.75 6.9 10.95 1.6 4.1 2.4 8.5 2.4 13.2 0 4.7-.8 9.1-2.4 13.2-1.5 4.1-3.8 7.75-6.9 10.95-3 3.1-6.75 5.55-11.25 7.35-4.5 1.8-9.65 2.7-15.45 2.7h-23.1V510h-30.3zm49.5-57.9c2.6 0 4.75-.65 6.45-1.95 1.8-1.3 2.7-3.25 2.7-5.85 0-2.7-.9-4.7-2.7-6-1.7-1.3-3.85-1.95-6.45-1.95h-19.2v15.75h19.2zM589.81 510l-13.8-31.5h-10.95V510h-30.3V409.95h53.4c5.8 0 10.95.9 15.45 2.7 4.5 1.8 8.25 4.3 11.25 7.5 3.1 3.1 5.4 6.75 6.9 10.95 1.6 4.1 2.4 8.5 2.4 13.2 0 4.3-.6 8.15-1.8 11.55-1.1 3.3-2.55 6.2-4.35 8.7-1.7 2.4-3.6 4.45-5.7 6.15-2.1 1.6-4.15 2.9-6.15 3.9l18.15 35.4h-34.5zm-6.3-57.9c2.6 0 4.9-.6 6.9-1.8 2-1.3 3-3.35 3-6.15 0-2.7-1-4.65-3-5.85-2-1.3-4.3-1.95-6.9-1.95h-18.45v15.75h18.45zM636.42 510V409.95h30.3V510h-30.3zM97.091 624l-3.6-11.7h-36l-3.6 11.7h-34.35l36.9-100.05h38.1l36.9 100.05h-34.35zm-21.6-70.35l-9.9 32.25h19.8l-9.9-32.25zM181.944 625.8c-7.8 0-15.1-1.25-21.9-3.75-6.7-2.5-12.5-6-17.4-10.5-4.9-4.6-8.75-10.05-11.55-16.35-2.8-6.4-4.2-13.45-4.2-21.15 0-7.7 1.4-14.7 4.2-21 2.8-6.4 6.65-11.85 11.55-16.35 4.9-4.6 10.7-8.15 17.4-10.65 6.8-2.5 14.1-3.75 21.9-3.75 6.6 0 12.35.9 17.25 2.7 5 1.7 9.35 3.95 13.05 6.75 3.7 2.7 6.75 5.8 9.15 9.3 2.5 3.5 4.5 6.95 6 10.35l-26.1 12.15c-.6-1.9-1.55-3.75-2.85-5.55-1.2-1.8-2.65-3.35-4.35-4.65-1.7-1.3-3.6-2.35-5.7-3.15-2.1-.8-4.25-1.2-6.45-1.2-3.6 0-6.9.65-9.9 1.95-3 1.3-5.6 3.1-7.8 5.4-2.1 2.2-3.75 4.85-4.95 7.95-1.1 3-1.65 6.25-1.65 9.75s.55 6.8 1.65 9.9c1.2 3 2.85 5.65 4.95 7.95 2.2 2.2 4.8 3.95 7.8 5.25 3 1.3 6.3 1.95 9.9 1.95 2.2 0 4.35-.4 6.45-1.2 2.1-.8 4-1.85 5.7-3.15a20.6 20.6 0 004.35-4.5c1.3-1.8 2.25-3.7 2.85-5.7l26.1 12c-1.5 3.3-3.5 6.7-6 10.2-2.4 3.5-5.45 6.65-9.15 9.45-3.6 2.8-7.9 5.1-12.9 6.9-5 1.8-10.8 2.7-17.4 2.7zM259.043 624v-39.75l-37.5-60.3h34.05l18.6 33.75 18.3-33.75h34.05l-37.2 60.3V624h-30.3zM331.953 624V523.95h53.4c5.8 0 10.95.9 15.45 2.7 4.5 1.8 8.25 4.3 11.25 7.5 3.1 3.1 5.4 6.75 6.9 10.95 1.6 4.1 2.4 8.5 2.4 13.2 0 4.7-.8 9.1-2.4 13.2-1.5 4.1-3.8 7.75-6.9 10.95-3 3.1-6.75 5.55-11.25 7.35-4.5 1.8-9.65 2.7-15.45 2.7h-23.1V624h-30.3zm49.5-57.9c2.6 0 4.75-.65 6.45-1.95 1.8-1.3 2.7-3.25 2.7-5.85 0-2.7-.9-4.7-2.7-6-1.7-1.3-3.85-1.95-6.45-1.95h-19.2v15.75h19.2zM486.319 624l-13.8-31.5h-10.95V624h-30.3V523.95h53.4c5.8 0 10.95.9 15.45 2.7 4.5 1.8 8.25 4.3 11.25 7.5 3.1 3.1 5.4 6.75 6.9 10.95 1.6 4.1 2.4 8.5 2.4 13.2 0 4.3-.6 8.15-1.8 11.55-1.1 3.3-2.55 6.2-4.35 8.7-1.7 2.4-3.6 4.45-5.7 6.15-2.1 1.6-4.15 2.9-6.15 3.9l18.15 35.4h-34.5zm-6.3-57.9c2.6 0 4.9-.6 6.9-1.8 2-1.3 3-3.35 3-6.15 0-2.7-1-4.65-3-5.85-2-1.3-4.3-1.95-6.9-1.95h-18.45v15.75h18.45zM532.929 624V523.95h30.3V624h-30.3zM605.465 624l-36.9-100.05h34.35l21.6 67.35 21.6-67.35h34.35L643.565 624h-38.1zM80.724 739.8c-7.8 0-15.1-1.25-21.9-3.75-6.7-2.5-12.5-6-17.4-10.5-4.9-4.6-8.75-10.05-11.55-16.35-2.8-6.4-4.2-13.45-4.2-21.15 0-7.7 1.4-14.7 4.2-21 2.8-6.4 6.65-11.85 11.55-16.35 4.9-4.6 10.7-8.15 17.4-10.65 6.8-2.5 14.1-3.75 21.9-3.75 6.6 0 12.35.9 17.25 2.7 5 1.7 9.35 3.95 13.05 6.75 3.7 2.7 6.75 5.8 9.15 9.3 2.5 3.5 4.5 6.95 6 10.35l-26.1 12.15c-.6-1.9-1.55-3.75-2.85-5.55-1.2-1.8-2.65-3.35-4.35-4.65-1.7-1.3-3.6-2.35-5.7-3.15-2.1-.8-4.25-1.2-6.45-1.2-3.6 0-6.9.65-9.9 1.95-3 1.3-5.6 3.1-7.8 5.4-2.1 2.2-3.75 4.85-4.95 7.95-1.1 3-1.65 6.25-1.65 9.75s.55 6.8 1.65 9.9c1.2 3 2.85 5.65 4.95 7.95 2.2 2.2 4.8 3.95 7.8 5.25 3 1.3 6.3 1.95 9.9 1.95 2.2 0 4.35-.4 6.45-1.2 2.1-.8 4-1.85 5.7-3.15a20.6 20.6 0 004.35-4.5c1.3-1.8 2.25-3.7 2.85-5.7l26.1 12c-1.5 3.3-3.5 6.7-6 10.2-2.4 3.5-5.45 6.65-9.15 9.45-3.6 2.8-7.9 5.1-12.9 6.9-5 1.8-10.8 2.7-17.4 2.7zM157.822 738v-39.75l-37.5-60.3h34.05l18.6 33.75 18.3-33.75h34.05l-37.2 60.3V738h-30.3zM230.732 738V637.95h53.4c5.8 0 10.95.9 15.45 2.7 4.5 1.8 8.25 4.3 11.25 7.5 3.1 3.1 5.4 6.75 6.9 10.95 1.6 4.1 2.4 8.5 2.4 13.2 0 4.7-.8 9.1-2.4 13.2-1.5 4.1-3.8 7.75-6.9 10.95-3 3.1-6.75 5.55-11.25 7.35-4.5 1.8-9.65 2.7-15.45 2.7h-23.1V738h-30.3zm49.5-57.9c2.6 0 4.75-.65 6.45-1.95 1.8-1.3 2.7-3.25 2.7-5.85 0-2.7-.9-4.7-2.7-6-1.7-1.3-3.85-1.95-6.45-1.95h-19.2v15.75h19.2zM385.098 738l-13.8-31.5h-10.95V738h-30.3V637.95h53.4c5.8 0 10.95.9 15.45 2.7 4.5 1.8 8.25 4.3 11.25 7.5 3.1 3.1 5.4 6.75 6.9 10.95 1.6 4.1 2.4 8.5 2.4 13.2 0 4.3-.6 8.15-1.8 11.55-1.1 3.3-2.55 6.2-4.35 8.7-1.7 2.4-3.6 4.45-5.7 6.15-2.1 1.6-4.15 2.9-6.15 3.9l18.15 35.4h-34.5zm-6.3-57.9c2.6 0 4.9-.6 6.9-1.8 2-1.3 3-3.35 3-6.15 0-2.7-1-4.65-3-5.85-2-1.3-4.3-1.95-6.9-1.95h-18.45v15.75h18.45zM431.708 738V637.95h30.3V738h-30.3zM504.244 738l-36.9-100.05h34.35l21.6 67.35 21.6-67.35h34.35L542.344 738h-38.1zM645.382 738l-3.6-11.7h-36l-3.6 11.7h-34.35l36.9-100.05h38.1l36.9 100.05h-34.35zm-21.6-70.35l-9.9 32.25h19.8l-9.9-32.25zM57.774 852v-39.75l-37.5-60.3h34.05l18.6 33.75 18.3-33.75h34.05l-37.2 60.3V852h-30.3zM130.683 852V751.95h53.4c5.8 0 10.95.9 15.45 2.7 4.5 1.8 8.25 4.3 11.25 7.5 3.1 3.1 5.4 6.75 6.9 10.95 1.6 4.1 2.4 8.5 2.4 13.2 0 4.7-.8 9.1-2.4 13.2-1.5 4.1-3.8 7.75-6.9 10.95-3 3.1-6.75 5.55-11.25 7.35-4.5 1.8-9.65 2.7-15.45 2.7h-23.1V852h-30.3zm49.5-57.9c2.6 0 4.75-.65 6.45-1.95 1.8-1.3 2.7-3.25 2.7-5.85 0-2.7-.9-4.7-2.7-6-1.7-1.3-3.85-1.95-6.45-1.95h-19.2v15.75h19.2zM285.049 852l-13.8-31.5h-10.95V852h-30.3V751.95h53.4c5.8 0 10.95.9 15.45 2.7 4.5 1.8 8.25 4.3 11.25 7.5 3.1 3.1 5.4 6.75 6.9 10.95 1.6 4.1 2.4 8.5 2.4 13.2 0 4.3-.6 8.15-1.8 11.55-1.1 3.3-2.55 6.2-4.35 8.7-1.7 2.4-3.6 4.45-5.7 6.15-2.1 1.6-4.15 2.9-6.15 3.9l18.15 35.4h-34.5zm-6.3-57.9c2.6 0 4.9-.6 6.9-1.8 2-1.3 3-3.35 3-6.15 0-2.7-1-4.65-3-5.85-2-1.3-4.3-1.95-6.9-1.95h-18.45v15.75h18.45zM331.66 852V751.95h30.3V852h-30.3zM404.195 852l-36.9-100.05h34.35l21.6 67.35 21.6-67.35h34.35L442.295 852h-38.1zM545.333 852l-3.6-11.7h-36l-3.6 11.7h-34.35l36.9-100.05h38.1l36.9 100.05h-34.35zm-21.6-70.35l-9.9 32.25h19.8l-9.9-32.25zM630.187 853.8c-7.8 0-15.101-1.25-21.901-3.75-6.7-2.5-12.499-6-17.399-10.5-4.9-4.6-8.75-10.05-11.55-16.35-2.8-6.4-4.2-13.45-4.2-21.15 0-7.7 1.4-14.7 4.2-21 2.8-6.4 6.65-11.85 11.55-16.35 4.9-4.6 10.699-8.15 17.399-10.65 6.8-2.5 14.101-3.75 21.901-3.75 6.6 0 12.35.9 17.25 2.7 5 1.7 9.35 3.95 13.05 6.75 3.7 2.7 6.75 5.8 9.15 9.3 2.5 3.5 4.5 6.95 6 10.35l-26.101 12.15c-.599-1.9-1.549-3.75-2.849-5.55-1.2-1.8-2.65-3.35-4.35-4.65-1.7-1.3-3.6-2.35-5.7-3.15-2.1-.8-4.25-1.2-6.45-1.2-3.6 0-6.901.65-9.901 1.95-3 1.3-5.599 3.1-7.799 5.4-2.1 2.2-3.751 4.85-4.951 7.95-1.1 3-1.649 6.25-1.649 9.75s.549 6.8 1.649 9.9c1.2 3 2.851 5.65 4.951 7.95 2.2 2.2 4.799 3.95 7.799 5.25 3 1.3 6.301 1.95 9.901 1.95 2.2 0 4.35-.4 6.45-1.2 2.1-.8 4-1.85 5.7-3.15a20.6 20.6 0 004.35-4.5c1.3-1.8 2.25-3.7 2.849-5.7l26.101 12c-1.5 3.3-3.5 6.7-6 10.2-2.4 3.5-5.45 6.65-9.15 9.45-3.6 2.8-7.9 5.1-12.9 6.9-5 1.8-10.8 2.7-17.4 2.7zM33.344 966V865.95h53.4c5.8 0 10.95.9 15.45 2.7 4.5 1.8 8.25 4.3 11.25 7.5 3.1 3.1 5.4 6.75 6.9 10.95 1.6 4.1 2.4 8.5 2.4 13.2 0 4.7-.8 9.1-2.4 13.2-1.5 4.1-3.8 7.75-6.9 10.95-3 3.1-6.75 5.55-11.25 7.35-4.5 1.8-9.65 2.7-15.45 2.7h-23.1V966h-30.3zm49.5-57.9c2.6 0 4.75-.65 6.45-1.95 1.8-1.3 2.7-3.25 2.7-5.85 0-2.7-.9-4.7-2.7-6-1.7-1.3-3.85-1.95-6.45-1.95h-19.2v15.75h19.2zM187.711 966l-13.8-31.5h-10.95V966h-30.3V865.95h53.4c5.8 0 10.95.9 15.45 2.7 4.5 1.8 8.25 4.3 11.25 7.5 3.1 3.1 5.4 6.75 6.9 10.95 1.6 4.1 2.4 8.5 2.4 13.2 0 4.3-.6 8.15-1.8 11.55-1.1 3.3-2.55 6.2-4.35 8.7-1.7 2.4-3.6 4.45-5.7 6.15-2.1 1.6-4.15 2.9-6.15 3.9l18.15 35.4h-34.5zm-6.3-57.9c2.6 0 4.9-.6 6.9-1.8 2-1.3 3-3.35 3-6.15 0-2.7-1-4.65-3-5.85-2-1.3-4.3-1.95-6.9-1.95h-18.45v15.75h18.45zM234.321 966V865.95h30.3V966h-30.3zM306.856 966l-36.9-100.05h34.35l21.6 67.35 21.6-67.35h34.35L344.956 966h-38.1zM447.995 966l-3.6-11.7h-36l-3.601 11.7h-34.35l36.901-100.05h38.1l36.9 100.05h-34.35zm-21.6-70.35l-9.9 32.25h19.799l-9.899-32.25zM532.848 967.8c-7.8 0-15.1-1.25-21.9-3.75-6.7-2.5-12.5-6-17.4-10.5-4.9-4.6-8.75-10.05-11.55-16.35-2.8-6.4-4.2-13.45-4.2-21.15 0-7.7 1.4-14.7 4.2-21 2.8-6.4 6.65-11.85 11.55-16.35 4.9-4.6 10.7-8.15 17.4-10.65 6.8-2.5 14.1-3.75 21.9-3.75 6.6 0 12.35.9 17.25 2.7 5 1.7 9.35 3.95 13.05 6.75 3.7 2.7 6.75 5.8 9.15 9.3 2.5 3.5 4.5 6.95 6 10.35l-26.1 12.15c-.6-1.9-1.55-3.75-2.85-5.55-1.2-1.8-2.65-3.35-4.35-4.65-1.7-1.3-3.6-2.35-5.7-3.15-2.1-.8-4.25-1.2-6.45-1.2-3.6 0-6.9.65-9.9 1.95-3 1.3-5.6 3.1-7.8 5.4-2.1 2.2-3.75 4.85-4.95 7.95-1.1 3-1.65 6.25-1.65 9.75s.55 6.8 1.65 9.9c1.2 3 2.85 5.65 4.95 7.95 2.2 2.2 4.8 3.95 7.8 5.25 3 1.3 6.3 1.95 9.9 1.95 2.2 0 4.35-.4 6.45-1.2 2.1-.8 4-1.85 5.7-3.15a20.6 20.6 0 004.35-4.5c1.3-1.8 2.25-3.7 2.85-5.7l26.1 12c-1.5 3.3-3.5 6.7-6 10.2-2.4 3.5-5.45 6.65-9.15 9.45-3.6 2.8-7.9 5.1-12.9 6.9-5 1.8-10.8 2.7-17.4 2.7zM609.946 966v-39.75l-37.5-60.3h34.05l18.6 33.75 18.3-33.75h34.05l-37.2 60.3V966h-30.3z"/></svg>