<svg xmlns="http://www.w3.org/2000/svg" fill="currentColor" viewBox="0 0 700 1000"><path d="M103.969 697.049c18.8-.404 29.985-14.69 29.985-38.274 0-24.46-11.859-38.677-32.209-38.677-14.959 0-23.517 8.423-27.425 27.155l-2.358 11.118c-1.82 8.827-4.919 12.331-10.849 12.331-5.727 0-9.366-4.784-9.366-12.331 0-7.951 4.245-13.072 11.05-13.476v-22.978c-18.058.337-29.984 14.959-29.984 36.724 0 22.371 12.061 36.454 31.13 36.454 14.623 0 24.258-8.962 27.964-26.212L94.4 657.36c2.09-9.77 4.65-13.072 10.108-13.072 6.469 0 10.444 5.323 10.444 13.948 0 9.703-3.841 15.229-10.983 15.835v22.978zM112.122 539.912v39.554H92.244v-37.061H74.051v37.061H54.645v-39.554H34.767v64.283H132v-64.283h-19.878zM113.268 485.871c0 9.164-6.537 13.881-19.137 13.881H72.636c-12.533 0-19.137-4.649-19.137-13.477 0-7.951 6.806-12.937 17.654-12.937v-25.134c-24.392 0-38.34 13.679-38.34 37.532 0 24.999 14.824 39.824 39.823 39.824H94.13c24.999 0 39.823-14.825 39.823-39.824 0-23.853-13.948-37.667-37.936-37.667v25.134c10.646 0 17.25 4.852 17.25 12.668zM113.133 402.653c0 8.423-5.997 12.87-17.318 12.87H34.767v24.73h62.396c23.247 0 36.791-13.814 36.791-37.6s-13.544-37.599-36.79-37.599H34.766v24.729h61.048c11.321 0 17.318 4.447 17.318 12.87zM97.972 320.312L132 303.937v-27.761l-37.667 19.136c-4.447-10.174-15.026-16.576-27.492-16.576-20.08 0-32.074 13.612-32.074 36.32v37.33H132v-24.73H97.972v-7.344zm-44.54 7.344v-9.096c0-9.03 5.12-14.555 13.341-14.555 8.423 0 13.746 5.593 13.746 14.487v9.164H53.432zM132 199.225h-19.878v20.484H54.645v-20.484H34.767v65.63h19.877v-20.484h57.478v20.484H132v-65.63zM132 134.402H54.644v-26.683H34.767v78.029h19.877v-26.684H132v-24.662zM132 49.096H98.578L34.767 18.773V45.12l39.688 15.633V62.1L34.767 77.733v26.347l63.811-30.322H132V49.096zM235.969 769.049c18.8-.404 29.985-14.69 29.985-38.274 0-24.46-11.859-38.677-32.209-38.677-14.959 0-23.516 8.423-27.425 27.155l-2.358 11.118c-1.819 8.827-4.919 12.331-10.849 12.331-5.727 0-9.366-4.784-9.366-12.331 0-7.951 4.245-13.072 11.051-13.476v-22.978c-18.059.337-29.985 14.959-29.985 36.724 0 22.371 12.061 36.454 31.13 36.454 14.622 0 24.258-8.962 27.964-26.212l2.493-11.523c2.089-9.77 4.65-13.072 10.108-13.072 6.469 0 10.444 5.323 10.444 13.948 0 9.703-3.841 15.229-10.983 15.835v22.978zM244.122 611.912v39.554h-19.878v-37.061h-18.193v37.061h-19.406v-39.554h-19.878v64.283H264v-64.283h-19.878zM245.268 557.871c0 9.164-6.537 13.881-19.137 13.881h-21.495c-12.533 0-19.137-4.649-19.137-13.477 0-7.951 6.806-12.937 17.654-12.937v-25.134c-24.392 0-38.34 13.679-38.34 37.532 0 24.999 14.824 39.824 39.823 39.824h21.495c24.999 0 39.823-14.825 39.823-39.824 0-23.853-13.948-37.667-37.936-37.667v25.134c10.646 0 17.25 4.852 17.25 12.668zM245.133 474.653c0 8.423-5.997 12.87-17.318 12.87h-61.048v24.73h62.396c23.247 0 36.791-13.814 36.791-37.6s-13.544-37.599-36.791-37.599h-62.396v24.729h61.048c11.321 0 17.318 4.447 17.318 12.87zM229.972 392.312L264 375.937v-27.761l-37.667 19.136c-4.447-10.174-15.026-16.576-27.492-16.576-20.08 0-32.074 13.612-32.074 36.32v37.33H264v-24.73h-34.028v-7.344zm-44.54 7.344v-9.096c0-9.03 5.121-14.555 13.341-14.555 8.423 0 13.747 5.593 13.747 14.487v9.164h-27.088zM264 271.225h-19.878v20.484h-57.477v-20.484h-19.878v65.63h19.878v-20.484h57.477v20.484H264v-65.63zM264 206.402h-77.355v-26.683h-19.878v78.029h19.878v-26.684H264v-24.662zM264 121.096h-33.422l-63.811-30.323v26.347l39.688 15.633v1.348l-39.688 15.632v26.347l63.811-30.322H264v-24.662zM367.969 841.049c18.8-.404 29.985-14.69 29.985-38.274 0-24.46-11.859-38.677-32.209-38.677-14.959 0-23.516 8.423-27.425 27.155l-2.358 11.118c-1.819 8.827-4.919 12.331-10.849 12.331-5.727 0-9.366-4.784-9.366-12.331 0-7.951 4.245-13.072 11.051-13.476v-22.978c-18.059.337-29.986 14.959-29.986 36.724 0 22.371 12.062 36.454 31.131 36.454 14.622 0 24.258-8.962 27.964-26.212l2.493-11.523c2.089-9.77 4.65-13.072 10.108-13.072 6.469 0 10.444 5.323 10.444 13.948 0 9.703-3.841 15.229-10.983 15.835v22.978zM376.122 683.912v39.554h-19.878v-37.061h-18.193v37.061h-19.406v-39.554h-19.878v64.283H396v-64.283h-19.878zM377.268 629.871c0 9.164-6.537 13.881-19.137 13.881h-21.495c-12.533 0-19.137-4.649-19.137-13.477 0-7.951 6.806-12.937 17.654-12.937v-25.134c-24.392 0-38.341 13.679-38.341 37.532 0 24.999 14.825 39.824 39.824 39.824h21.495c24.999 0 39.823-14.825 39.823-39.824 0-23.853-13.948-37.667-37.936-37.667v25.134c10.646 0 17.25 4.852 17.25 12.668zM377.133 546.653c0 8.423-5.997 12.87-17.318 12.87h-61.048v24.73h62.396c23.247 0 36.791-13.814 36.791-37.6s-13.544-37.599-36.791-37.599h-62.396v24.729h61.048c11.321 0 17.318 4.447 17.318 12.87zM361.972 464.312L396 447.937v-27.761l-37.667 19.136c-4.447-10.174-15.026-16.576-27.492-16.576-20.08 0-32.074 13.612-32.074 36.32v37.33H396v-24.73h-34.028v-7.344zm-44.54 7.344v-9.096c0-9.03 5.121-14.555 13.341-14.555 8.423 0 13.747 5.593 13.747 14.487v9.164h-27.088zM396 343.225h-19.878v20.484h-57.477v-20.484h-19.878v65.63h19.878v-20.484h57.477v20.484H396v-65.63zM396 278.402h-77.355v-26.683h-19.878v78.029h19.878v-26.684H396v-24.662zM396 193.096h-33.422l-63.811-30.323v26.347l39.688 15.633v1.348l-39.688 15.632v26.347l63.811-30.322H396v-24.662zM499.969 913.049c18.8-.404 29.985-14.69 29.985-38.274 0-24.46-11.859-38.677-32.209-38.677-14.959 0-23.516 8.423-27.425 27.155l-2.358 11.118c-1.819 8.827-4.919 12.331-10.849 12.331-5.727 0-9.366-4.784-9.366-12.331 0-7.951 4.245-13.072 11.051-13.476v-22.978c-18.059.337-29.986 14.959-29.986 36.724 0 22.371 12.062 36.454 31.131 36.454 14.622 0 24.258-8.962 27.964-26.212l2.493-11.523c2.089-9.77 4.65-13.072 10.108-13.072 6.469 0 10.444 5.323 10.444 13.948 0 9.703-3.841 15.229-10.983 15.835v22.978zM508.122 755.912v39.554h-19.878v-37.061h-18.193v37.061h-19.406v-39.554h-19.878v64.283H528v-64.283h-19.878zM509.268 701.871c0 9.164-6.537 13.881-19.137 13.881h-21.495c-12.533 0-19.137-4.649-19.137-13.477 0-7.951 6.806-12.937 17.654-12.937v-25.134c-24.392 0-38.341 13.679-38.341 37.532 0 24.999 14.825 39.824 39.824 39.824h21.495c24.999 0 39.823-14.825 39.823-39.824 0-23.853-13.948-37.667-37.936-37.667v25.134c10.646 0 17.25 4.852 17.25 12.668zM509.133 618.653c0 8.423-5.997 12.87-17.318 12.87h-61.048v24.73h62.396c23.247 0 36.791-13.814 36.791-37.6s-13.544-37.599-36.791-37.599h-62.396v24.729h61.048c11.321 0 17.318 4.447 17.318 12.87zM493.972 536.312L528 519.937v-27.761l-37.667 19.136c-4.447-10.174-15.026-16.576-27.492-16.576-20.08 0-32.074 13.612-32.074 36.32v37.33H528v-24.73h-34.028v-7.344zm-44.54 7.344v-9.096c0-9.03 5.121-14.555 13.341-14.555 8.423 0 13.747 5.593 13.747 14.487v9.164h-27.088zM528 415.225h-19.878v20.484h-57.477v-20.484h-19.878v65.63h19.878v-20.484h57.477v20.484H528v-65.63zM528 350.402h-77.355v-26.683h-19.878v78.029h19.878v-26.684H528v-24.662zM528 265.096h-33.422l-63.811-30.323v26.347l39.688 15.633v1.348l-39.688 15.632v26.347l63.811-30.322H528v-24.662zM631.969 985.049c18.8-.404 29.985-14.69 29.985-38.274 0-24.46-11.859-38.677-32.209-38.677-14.959 0-23.516 8.423-27.425 27.155l-2.358 11.118c-1.819 8.827-4.919 12.331-10.849 12.331-5.727 0-9.366-4.784-9.366-12.331 0-7.951 4.245-13.072 11.051-13.476v-22.978c-18.059.337-29.986 14.959-29.986 36.724 0 22.371 12.062 36.454 31.131 36.454 14.622 0 24.258-8.962 27.964-26.212l2.493-11.523c2.089-9.77 4.65-13.072 10.108-13.072 6.469 0 10.444 5.323 10.444 13.948 0 9.703-3.841 15.229-10.983 15.835v22.978zM640.122 827.912v39.554h-19.878v-37.061h-18.193v37.061h-19.406v-39.554h-19.878v64.283H660v-64.283h-19.878zM641.268 773.871c0 9.164-6.537 13.881-19.137 13.881h-21.495c-12.533 0-19.137-4.649-19.137-13.477 0-7.951 6.806-12.937 17.654-12.937v-25.134c-24.392 0-38.341 13.679-38.341 37.532 0 24.999 14.825 39.824 39.824 39.824h21.495c24.999 0 39.823-14.825 39.823-39.824 0-23.853-13.948-37.667-37.936-37.667v25.134c10.646 0 17.25 4.852 17.25 12.668zM641.133 690.653c0 8.423-5.997 12.87-17.318 12.87h-61.048v24.73h62.396c23.247 0 36.791-13.814 36.791-37.6s-13.544-37.599-36.791-37.599h-62.396v24.729h61.048c11.321 0 17.318 4.447 17.318 12.87zM625.972 608.312L660 591.937v-27.761l-37.667 19.136c-4.447-10.174-15.026-16.576-27.492-16.576-20.08 0-32.074 13.612-32.074 36.32v37.33H660v-24.73h-34.028v-7.344zm-44.54 7.344v-9.096c0-9.03 5.121-14.555 13.341-14.555 8.423 0 13.747 5.593 13.747 14.487v9.164h-27.088zM660 487.225h-19.878v20.484h-57.477v-20.484h-19.878v65.63h19.878v-20.484h57.477v20.484H660v-65.63zM660 422.402h-77.355v-26.683h-19.878v78.029h19.878v-26.684H660v-24.662zM660 337.096h-33.422l-63.811-30.323v26.347l39.688 15.633v1.348l-39.688 15.632v26.347l63.811-30.322H660v-24.662z"/></svg>