<svg xmlns="http://www.w3.org/2000/svg" fill="currentColor" viewBox="0 0 24 24" {% if class %} class="{{ class }}" {% endif %}>
    <!-- <path fill="#000" fill-rule="evenodd" d="M21.8175 12h-8.727L6.648 15.042 4.3635 12h-2.181C.9825 12 0 13.0125 0 14.25s.9825 2.25 2.1825 2.25h19.635c1.2 0 2.1825-1.0125 2.1825-2.25S23.0175 12 21.8175 12zM2.3025 9h19.77C23.2785 9 24 8.256 24 7.047 24 2.799 18.7245 0 12.057 0 5.391 0 0 2.799 0 7.047 0 8.256 1.0965 9 2.304 9h-.0015zm15.705-6c.78 0 1.4925.6645 1.4925 1.497C19.5 5.3295 18.789 6 18.0075 6c-.1981.0026-.3946-.03436-.5782-.10873-.1836-.07437-.3505-.18464-.4909-.32435-.1404-.1397-.2515-.30604-.3268-.48925-.0753-.18321-.1132-.3796-.1116-.57767 0-.903.726-1.5 1.5075-1.5zm-6.018-1.5c.786 0 1.5105.672 1.5105 1.5s-.7245 1.5-1.5105 1.5C11.205 4.5 10.5 3.828 10.5 3s.705-1.5 1.4895-1.5zM6 3c.7845 0 1.5.666 1.5 1.4955S6.7845 6 6 6s-1.5-.675-1.5-1.5045C4.5 3.666 5.2155 3 6 3zm15.8175 16.5H2.1825C.978 19.5 0 19.8525 0 21.177 0 23.166 1.4655 24 3.273 24h17.454C22.5345 24 24 23.166 24 21.177c0-1.3245-.978-1.677-2.1825-1.677z" clip-rule="evenodd"/> -->
    <path d="M2.3 9h19.8c1.2 0 1.9-.7 1.9-2 0-4.2-5.3-7-12-7C5.5 0 0 2.8 0 7c0 1.3 1.1 2 2.3 2zM18 3c.8 0 1.5.7 1.5 1.5a1.5 1.5 0 01-2 1.4 1.5 1.5 0 01-1-1.4c0-.9.7-1.5 1.5-1.5zm-6-1.5c.8 0 1.5.7 1.5 1.5s-.7 1.5-1.5 1.5-1.5-.7-1.5-1.5.7-1.5 1.5-1.5zM6 3c.8 0 1.5.7 1.5 1.5S6.8 6 6 6s-1.5-.7-1.5-1.5S5.2 3 6 3z"/>
    <path d="M13 12h8.8c1.2 0 2.2 1 2.2 2.3 0 1.2-1 2.2-2.2 2.2H2.2c-1.2 0-2.2-1-2.2-2.3C0 13 1 12 2.2 12h2.2l2.2 3 6.5-3z"/>
    <path d="M2.2 19.5h19.6c1.2 0 2.2.4 2.2 1.7 0 2-1.5 2.8-3.3 2.8H3.3C1.5 24 0 23.2 0 21.2c0-1.3 1-1.7 2.2-1.7z"/>
</svg>
