<svg xmlns="http://www.w3.org/2000/svg" viewBox="0 0 30 30" fill="currentColor"  {% if class %} class="{{ class }}" {% endif %}>
    <path d="M18.984375-.01367188A1.0001 1.0001 0 0018 1v1h-1a1.0001 1.0001 0 100 2h1v1a1.0001 1.0001 0 102 0V4h1a1.0001 1.0001 0 100-2h-1V1a1.0001 1.0001 0 00-1.015625-1.01367188zm-6.59375 3.30664068C7.019625 4.4859687 3 9.27 3 15c0 6.627 5.373 12 12 12 5.73 0 10.514031-4.019625 11.707031-9.390625C25.171031 18.489375 23.397 19 21.5 19 15.701 19 11 14.299 11 8.5c0-1.897.510625-3.6710312 1.390625-5.2070312zM25 7c-.552 0-1 .448-1 1v1c0 .552-.448 1-1 1h-1c-.552 0-1 .448-1 1s.448 1 1 1h1c.552 0 1 .448 1 1v1c0 .552.448 1 1 1s1-.448 1-1v-1c0-.552.448-1 1-1h1c.552 0 1-.448 1-1s-.448-1-1-1h-1c-.552 0-1-.448-1-1V8c0-.552-.448-1-1-1z"/>
</svg>
