<svg class="keybase" xmlns="http://www.w3.org/2000/svg" xmlns:xlink="http://www.w3.org/1999/xlink" viewBox="0 0 256 235">
    <defs>
        <path id="prefix__a" d="M0 108.875L0 217.288 256 217.288 256 108.875 256 0.462 0 0.462z"/>
        <path id="prefix__c" d="M193.548 151.333L0.012 151.333 0.012 0.623 193.548 0.623 193.548 151.333z"/>
        <path id="prefix__e" d="M0.614 0.373L80.663 0.373 80.663 104.931 0.614 104.931 0.614 0.373z"/>
    </defs>
    <g fill="none" fill-rule="evenodd">
        <path d="M0 0H256V256H0z" transform="translate(0 -11)"/>
        <g>
            <g transform="translate(0 -11) translate(0 11) translate(0 16.485)">
                <mask id="prefix__b" fill="#fff">
                    <use xlink:href="#prefix__a"/>
                </mask>
                <path fill="#33A0FF" d="M128 .462c-70.692 0-128 57.308-128 128 0 24.406 6.833 47.215 18.687 66.623l13.98-14.843c-.941-5.414-1.436-10.982-1.436-16.665 0-53.444 43.326-96.768 96.769-96.768 53.443 0 96.768 47.305 96.768 96.768 0 19.091-3.703 37.858-12.38 53.711h7.766C242.346 194.27 256 162.962 256 128.462c0-70.692-57.308-128-128-128" mask="url(#prefix__b)"/>
            </g>
            <g transform="translate(0 -11) translate(0 11) translate(31.22 82.67)">
                <mask id="prefix__d" fill="#fff">
                    <use xlink:href="#prefix__c"/>
                </mask>
                <path fill="#FFF" d="M96.78.623C43.337.623.012 44.014.012 97.54c0 19.903 5.994 38.402 16.268 53.793h164.888c8.678-15.877 12.38-34.673 12.38-53.793C193.548 48 150.224.623 96.78.623" mask="url(#prefix__d)"/>
            </g>
            <path fill="#282828" d="M128 77.674c-56.457 0-102.388 46-102.388 102.54 0 19.714 5.59 38.143 15.256 53.79h13.538c-11.03-15.095-17.555-33.692-17.555-53.79 0-50.334 40.89-91.284 91.149-91.284 23.885 0 46.756 10.007 64.396 28.176 17.002 17.51 26.752 40.512 26.752 63.108 0 15.235-2.48 35.88-13.225 53.79h12.813c7.663-15.192 11.651-33.438 11.651-53.79 0-25.5-10.91-51.362-29.933-70.955C180.68 88.891 154.947 77.674 128 77.674" transform="translate(0 -11) translate(0 11)"/>
            <path fill="#282827" d="M108.463 208.153c0 5.13-4.16 9.29-9.29 9.29-5.13 0-9.29-4.16-9.29-9.29 0-5.13 4.16-9.29 9.29-9.29 5.13 0 9.29 4.16 9.29 9.29M166.117 208.153c0 5.13-4.16 9.29-9.29 9.29-5.13 0-9.29-4.16-9.29-9.29 0-5.13 4.16-9.29 9.29-9.29 5.13 0 9.29 4.16 9.29 9.29" transform="translate(0 -11) translate(0 11)"/>
            <path fill="#FF6F21" d="M22.419 204.468l51.565-54.689-12.412 38.912c40.258-29.297 82.52-24.664 112.278-15.927 31.587 9.276 53.699-18.62 32.053-48.38-10.287-14.142-24.398-25.885-40.425-33.005-42.037-18.675-84.3-7.787-112.811 21.014-30.201 30.507-30.248 64.347-30.248 92.075" transform="translate(0 -11) translate(0 11)"/>
            <path fill="#282827" d="M123.156 87.762c-6.07 0-12.1.606-18.024 1.825-18.058 3.714-34.819 12.967-48.472 26.759-23.805 24.047-27.812 49.853-28.485 73.826l58.672-62.226-15.2 47.647c30.285-16.802 65.12-19.574 103.787-8.22 12.573 3.692 24.016.828 29.865-7.473 6.004-8.522 4.53-20.564-3.94-32.21-9.856-13.55-23.41-24.62-38.163-31.176-13.07-5.806-26.653-8.752-40.04-8.752zM16.8 218.62v-14.151c0-28.439 0-63.831 31.873-96.03 15.217-15.372 33.958-25.697 54.194-29.86 21.301-4.382 43.74-1.732 64.892 7.665 16.53 7.344 31.69 19.715 42.688 34.836 11.264 15.486 12.812 32.842 4.039 45.294-8.707 12.358-24.883 16.872-42.219 11.784-40.975-12.034-77.106-6.96-107.389 15.078l-13.876 10.098 10.119-31.72L16.8 218.619z" transform="translate(0 -11) translate(0 11)"/>
            <path fill="#3DCC8E" d="M70.09 52.183c-5.553-.34-9.81-5.14-9.486-10.698l.847-13.67c.33-5.327 4.77-9.499 10.108-9.499.2 0 .4.006.602.018l13.662.846c2.694.163 5.168 1.37 6.959 3.399 1.794 2.026 2.689 4.636 2.516 7.343l-.839 13.624c-.043.697-.187 1.236-.273 1.533l-.4 1.958-8.243 6.102-15.453-.956z" transform="translate(0 -11) translate(0 11)"/>
            <path fill="#282828" d="M71.56 12.696c-8.301 0-15.204 6.488-15.718 14.77l-.846 13.651v.02l-.002.022c-.503 8.642 6.117 16.104 14.756 16.634l13.401.828 4.089.253 3.292-2.437 4.868-3.603 3.46-2.562.794-3.884c.167-.62.35-1.462.413-2.49l.84-13.644c.268-4.184-1.124-8.244-3.922-11.404-2.779-3.147-6.627-5.025-10.829-5.28l-13.63-.844-.018-.002h-.019c-.308-.018-.621-.028-.93-.028m10.205 27.296l.502-8.12-8.121-.502-.504 8.121 8.123.501M71.56 23.935c.09 0 .18.003.272.008l13.644.845c1.196.073 2.298.61 3.094 1.51.8.903 1.198 2.063 1.12 3.265l-.839 13.638c-.013.212-.096.397-.138.6l-4.867 3.603-13.408-.83c-2.474-.15-4.367-2.288-4.223-4.762l.846-13.65c.147-2.382 2.124-4.227 4.5-4.227" transform="translate(0 -11) translate(0 11)"/>
            <path fill="#FF6F21" d="M152.703 78.14c-6.113 15.93-23.842 24.824-40.266 20.2-18.506-5.211-28.278-20.083-25.932-38.947 2.334-18.76 15.011-35.208 29.624-55.483-12.003 25.55-1.806 27.944 1.42 27.816 3.187-.126 7.84.416 14.461 2.614 18.043 5.988 27.58 25.851 20.693 43.8" transform="translate(0 -11) translate(0 11)"/>
            <g transform="translate(0 -11) translate(0 11) translate(79.922 .251)">
                <mask id="prefix__f" fill="#fff">
                    <use xlink:href="#prefix__e"/>
                </mask>
                <path fill="#282828" d="M25.657 28.35c-7.119 10.848-12.17 20.815-13.497 31.486-2.008 16.143 6.17 28.42 21.878 32.843 13.687 3.853 28.402-3.526 33.497-16.804 2.762-7.197 2.474-14.985-.811-21.927-3.288-6.947-9.114-12.105-16.406-14.525C44.03 37.336 40.063 37 37.85 37.09c-1.61.057-7.132-.134-10.59-5.346-.68-1.027-1.215-2.159-1.602-3.395m15.717 76.582c-3.45 0-6.938-.463-10.383-1.433C9.783 97.527-1.707 80.265 1.007 58.448c2.36-18.974 14.162-35.29 27.829-54.182.928-1.283 1.866-2.58 2.812-3.893l9.645 5.675c-7.208 15.345-4.774 19.322-4.668 19.483.224.339.723.334.779.329 4.584-.179 10.118.793 16.455 2.896 10.233 3.396 18.41 10.636 23.024 20.385 4.611 9.744 5.017 20.669 1.145 30.76-5.872 15.303-20.847 25.03-36.654 25.03" mask="url(#prefix__f)"/>
            </g>
            <path fill="#3DCC8E" d="M135.222 138.976c-2.407 0-4.659-1.07-6.18-2.933l-4.62-5.659c-1.342-1.643-1.963-3.712-1.75-5.825.2-1.966 1.102-3.751 2.552-5.071-1-.49-1.894-1.196-2.62-2.086l-1.054-1.29c-2.773-3.396-2.268-8.415 1.128-11.188l.665-.543-6.77-8.308c-3.008-3.686-2.458-9.14 1.231-12.155 1.548-1.26 3.488-1.951 5.469-1.951 2.602 0 5.041 1.156 6.691 3.171l28.869 35.533c3.004 3.68 2.453 9.134-1.236 12.149-1.022.833-2.237 1.43-3.519 1.726-.64.148-1.294.223-1.948.223-2.25 0-4.377-.863-5.978-2.398l-5.89 4.808c-1.419 1.159-3.209 1.797-5.04 1.797" transform="translate(0 -11) translate(0 11)"/>
            <path fill="#282828" d="M123.273 76.348c-3.27 0-6.47 1.139-9.01 3.206-6.101 4.986-7.01 13.986-2.04 20.076l3.76 4.615c-2.761 4.75-2.461 10.92 1.213 15.42l.708.866c-1.663 4.387-1.008 9.52 2.166 13.408l4.62 5.66c2.591 3.174 6.43 4.996 10.532 4.996 3.122 0 6.174-1.088 8.594-3.063l2.768-2.26c1.73.73 3.61 1.116 5.545 1.116 1.08 0 2.16-.123 3.21-.366 2.118-.489 4.128-1.474 5.813-2.85 6.088-4.974 6.997-13.975 2.026-20.065L134.34 81.612l-.013-.017-.014-.017c-2.722-3.324-6.746-5.23-11.04-5.23m0 11.239c.877 0 1.745.38 2.345 1.112l28.855 35.515c1.056 1.294.862 3.198-.43 4.253-.373.304-.794.503-1.23.604-.225.052-.454.078-.683.078-.876 0-1.745-.379-2.343-1.11l-2.875-3.543-10.203 8.33c-.437.356-.963.53-1.486.53-.683 0-1.36-.296-1.825-.866l-4.62-5.66c-.814-.994-.665-2.46.33-3.272l10.253-8.37-4.19-5.165-5.071 4.143c-.415.339-.915.504-1.411.504-.647 0-1.289-.28-1.73-.82l-1.057-1.294c-.814-.997-.666-2.466.331-3.28l5.012-4.093-10.314-12.66c-1.056-1.294-.862-3.197.43-4.253.565-.46 1.24-.683 1.913-.683" transform="translate(0 -11) translate(0 11)"/>
        </g>
    </g>
</svg>
